<?xml version="1.0" encoding="utf-8"?>
<!-- Generator: Adobe Illustrator 14.0.0, SVG Export Plug-In . SVG Version: 6.00 Build 43363)  -->
<!DOCTYPE svg PUBLIC "-//W3C//DTD SVG 1.1//EN" "http://www.w3.org/Graphics/SVG/1.1/DTD/svg11.dtd">
<svg version="1.1" id="Layer_1" xmlns="http://www.w3.org/2000/svg" xmlns:xlink="http://www.w3.org/1999/xlink" x="0px" y="0px"
	 width="53.813px" height="53.813px" viewBox="0 0 53.813 53.813" enable-background="new 0 0 53.813 53.813" xml:space="preserve">
<g>
	<linearGradient id="SVGID_1_" gradientUnits="userSpaceOnUse" x1="26.9063" y1="53.2549" x2="26.9062" y2="-1.4287">
		<stop  offset="0" style="stop-color:#F99D2A"/>
		<stop  offset="1" style="stop-color:#FEBD36"/>
	</linearGradient>
	<path fill-rule="evenodd" clip-rule="evenodd" fill="url(#SVGID_1_)" d="M11.944,0h29.925c6.569,0,11.943,5.375,11.943,11.944
		v29.925c0,6.568-5.374,11.943-11.943,11.943H11.944C5.375,53.813,0,48.438,0,41.869V11.944C0,5.375,5.375,0,11.944,0z"/>
	<path fill-rule="evenodd" clip-rule="evenodd" fill="#FFD888" d="M23.93,37.084v-2.977h2.977v2.977H23.93L23.93,37.084z
		 M23.93,31.131v-2.977h2.977v2.977H23.93L23.93,31.131z M23.93,25.179v-2.977h2.977v2.977H23.93z"/>
	<path fill-rule="evenodd" clip-rule="evenodd" fill="#FFD888" d="M26.906,34.107v-2.977h2.977v2.977H26.906L26.906,34.107z
		 M26.906,28.154v-2.976h2.977v2.976H26.906z"/>
	<path fill-rule="evenodd" clip-rule="evenodd" fill="#FFFFFF" d="M23.93,37.084h5.953v10.417H23.93V37.084L23.93,37.084z
		 M25.418,41.549h2.977v-2.977h-2.977V41.549z"/>
	<g>
		<path fill="#FFFFFF" d="M20.332,15.475c-0.6-0.644-0.899-1.468-0.899-2.472s0.298-1.819,0.894-2.448
			c0.596-0.628,1.338-0.941,2.227-0.941c0.52,0,0.978,0.118,1.374,0.354c0.396,0.236,0.701,0.546,0.918,0.931V9.721h1.38v6.721
			c0,0.928-0.286,1.686-0.858,2.273s-1.334,0.882-2.286,0.882s-1.724-0.21-2.315-0.63c-0.593-0.42-0.929-0.99-1.009-1.71h1.356
			c0.104,0.344,0.326,0.622,0.666,0.834s0.766,0.318,1.278,0.318c0.512,0,0.938-0.168,1.277-0.504s0.511-0.824,0.511-1.464v-1.345
			c-0.225,0.408-0.532,0.734-0.925,0.979c-0.392,0.244-0.848,0.366-1.367,0.366C21.672,16.441,20.933,16.119,20.332,15.475z
			 M24.25,14.647c0.396-0.404,0.595-0.946,0.595-1.626c0-0.681-0.198-1.221-0.595-1.62c-0.396-0.4-0.866-0.601-1.41-0.601
			s-1.014,0.196-1.409,0.588c-0.396,0.393-0.595,0.929-0.595,1.608s0.198,1.226,0.595,1.638c0.396,0.412,0.865,0.618,1.409,0.618
			S23.854,15.051,24.25,14.647z"/>
		<path fill="#FFFFFF" d="M32.236,9.721v1.116l-3,4.38h3v1.116h-4.584v-1.116l3.012-4.38h-3.012V9.721H32.236z"/>
	</g>
</g>
</svg>
