<?xml version="1.0" encoding="utf-8"?>
<!-- Generator: Adobe Illustrator 14.0.0, SVG Export Plug-In . SVG Version: 6.00 Build 43363)  -->
<!DOCTYPE svg PUBLIC "-//W3C//DTD SVG 1.1//EN" "http://www.w3.org/Graphics/SVG/1.1/DTD/svg11.dtd">
<svg version="1.1" id="Layer_1" xmlns="http://www.w3.org/2000/svg" xmlns:xlink="http://www.w3.org/1999/xlink" x="0px" y="0px"
	 width="53.813px" height="53.813px" viewBox="0 0 53.813 53.813" enable-background="new 0 0 53.813 53.813" xml:space="preserve">
<g>
	<linearGradient id="SVGID_1_" gradientUnits="userSpaceOnUse" x1="26.9063" y1="53.2549" x2="26.9062" y2="-1.4287">
		<stop  offset="0" style="stop-color:#F99D2A"/>
		<stop  offset="1" style="stop-color:#FEBD36"/>
	</linearGradient>
	<path fill-rule="evenodd" clip-rule="evenodd" fill="url(#SVGID_1_)" d="M11.943,0h29.925c6.569,0,11.944,5.375,11.944,11.943
		v29.926c0,6.568-5.375,11.943-11.944,11.943H11.943C5.375,53.813,0,48.438,0,41.869V11.943C0,5.375,5.375,0,11.943,0z"/>
	<path fill-rule="evenodd" clip-rule="evenodd" fill="#FFFFFF" d="M21.139,13.329l-1.764-4.032l-1.778,4.032l-1.68-3.99h-1.218
		l2.716,6.538l0.182,0.448v-0.015l0.014,0.015l0.168-0.42l1.582-3.837l1.568,3.809l0.21,0.448v-0.015v0.015l0.098-0.267l2.786-6.72
		h-1.204L21.139,13.329L21.139,13.329z M30.421,9.311v0.854c-0.574-0.502-1.302-0.798-2.128-0.798c-1.848,0-3.36,1.559-3.36,3.467
		c0,1.951,1.512,3.491,3.36,3.491c0.826,0,1.554-0.294,2.128-0.784v0.784h1.274V9.311H30.421L30.421,9.311z M28.293,15.051
		c-1.176,0-2.142-0.994-2.142-2.212c0-1.197,0.966-2.193,2.142-2.193c1.078,0,1.974,0.828,2.128,1.909v0.588
		C30.267,14.225,29.371,15.051,28.293,15.051L28.293,15.051z M35.783,13.14l-1.68-3.814h-1.344l2.772,6.439l0.238,0.561l0.014-0.015
		v0.015l0.126-0.351l2.87-6.649h-1.316L35.783,13.14z"/>
	<path fill="#FFFFFF" d="M24.288,46.823c-2.265,0-4.106-1.842-4.106-4.106V30.135c0-0.34-0.288-0.627-0.627-0.627
		s-0.627,0.287-0.627,0.627v1.074H15.95v-1.074c0-1.986,1.617-3.604,3.604-3.604c1.987,0,3.604,1.617,3.604,3.604v12.582
		c0,0.623,0.507,1.131,1.13,1.131s1.13-0.508,1.13-1.131v-4.673h2.976v4.673C28.394,44.981,26.552,46.823,24.288,46.823z
		 M34.258,40.999c-1.987,0-3.604-1.616-3.604-3.604V25.012c0-0.623-0.507-1.131-1.13-1.131c-0.623,0-1.13,0.508-1.13,1.131v13.032
		h-2.976V25.012c0-2.265,1.842-4.107,4.106-4.107c2.265,0,4.107,1.843,4.107,4.107v12.384c0,0.34,0.287,0.627,0.627,0.627
		s0.627-0.287,0.627-0.627v-1.956c0-1.987,1.617-3.604,3.604-3.604h2.977v2.977h-2.977c-0.34,0-0.627,0.287-0.627,0.627v1.956
		C37.862,39.383,36.245,40.999,34.258,40.999z M15.323,34.813h-2.977v-2.977h2.977c0.34,0,0.627-0.287,0.627-0.627h2.977
		C18.927,33.196,17.31,34.813,15.323,34.813z"/>
	<path fill="#FFFFFF" d="M34.258,40.999c-1.987,0-3.604-1.616-3.604-3.604v-2.101h2.977v2.101c0,0.34,0.287,0.627,0.627,0.627
		s0.627-0.287,0.627-0.627v-1.956h2.977v1.956C37.862,39.383,36.245,40.999,34.258,40.999z"/>
	<path fill="#FFFFFF" d="M28.394,38.044h-2.976V25.012c0-2.265,1.842-4.107,4.106-4.107c2.265,0,4.107,1.843,4.107,4.107v10.283
		h-2.977V25.012c0-0.623-0.507-1.131-1.13-1.131c-0.623,0-1.13,0.508-1.13,1.131V38.044z"/>
	<path fill="#FFFFFF" d="M37.862,35.439h-2.977c0-1.987,1.617-3.604,3.604-3.604h2.977v2.977h-2.977
		C38.149,34.813,37.862,35.1,37.862,35.439z"/>
	<path fill="#FFD886" d="M24.288,46.823c-2.265,0-4.106-1.842-4.106-4.106v-7.422h2.976v7.422c0,0.623,0.507,1.131,1.13,1.131
		s1.13-0.508,1.13-1.131v-8.853h2.976v8.853C28.394,44.981,26.552,46.823,24.288,46.823z"/>
	<path fill="#FFD886" d="M15.323,34.813h-2.977v-2.977h2.977c0.34,0,0.627-0.287,0.627-0.627h2.977
		C18.927,33.196,17.31,34.813,15.323,34.813z"/>
	<path fill="#FFD886" d="M23.157,35.295h-2.976v-5.16c0-0.34-0.288-0.627-0.627-0.627s-0.627,0.287-0.627,0.627v1.074H15.95v-1.074
		c0-1.986,1.617-3.604,3.604-3.604c1.987,0,3.604,1.617,3.604,3.604V35.295z"/>
</g>
</svg>
