<?xml version="1.0" encoding="utf-8"?>
<!-- Generator: Adobe Illustrator 14.0.0, SVG Export Plug-In . SVG Version: 6.00 Build 43363)  -->
<!DOCTYPE svg PUBLIC "-//W3C//DTD SVG 1.1//EN" "http://www.w3.org/Graphics/SVG/1.1/DTD/svg11.dtd">
<svg version="1.1" id="Layer_1" xmlns="http://www.w3.org/2000/svg" xmlns:xlink="http://www.w3.org/1999/xlink" x="0px" y="0px"
	 width="53.813px" height="53.813px" viewBox="0 0 53.813 53.813" enable-background="new 0 0 53.813 53.813" xml:space="preserve">
<g>
	<linearGradient id="SVGID_1_" gradientUnits="userSpaceOnUse" x1="26.9063" y1="-0.4473" x2="26.9063" y2="51.5516">
		<stop  offset="0" style="stop-color:#F26B75"/>
		<stop  offset="1" style="stop-color:#EB5A63"/>
	</linearGradient>
	<path fill-rule="evenodd" clip-rule="evenodd" fill="url(#SVGID_1_)" d="M11.943,0h29.925c6.569,0,11.944,5.375,11.944,11.944
		v29.925c0,6.568-5.375,11.943-11.944,11.943H11.943C5.375,53.813,0,48.438,0,41.869V11.944C0,5.375,5.375,0,11.943,0z"/>
	<path fill-rule="evenodd" clip-rule="evenodd" fill="#FFFFFF" d="M25.395,12.577c-0.07-0.562-0.21-1.108-0.504-1.572
		c-0.602-1.008-1.596-1.708-2.786-1.708c-1.12,0-2.086,0.588-2.688,1.47c-0.602-0.882-1.554-1.47-2.618-1.47
		c-0.728,0-1.414,0.252-1.96,0.7v-0.7h-1.288v7.028h1.288v-4.31c0.322-0.842,1.064-1.388,1.96-1.388
		c0.952,0,1.722,0.644,2.002,1.598l-0.042,3.988v0.084h1.288v-4.002c0.266-0.996,1.064-1.668,2.058-1.668
		c0.952,0,1.722,0.644,2.016,1.598v4.072h1.26L25.395,12.577L25.395,12.577z M27.719,19.797v-4.256
		c0.602,0.49,1.33,0.784,2.17,0.784c1.862,0,3.388-1.552,3.388-3.493c0-1.927-1.526-3.507-3.388-3.507
		c-0.84,0-1.568,0.294-2.17,0.784V9.325h-1.26v10.472H27.719L27.719,19.797z M29.889,10.599c1.19,0,2.156,1.003,2.156,2.233
		c0,1.216-0.966,2.219-2.156,2.219c-1.12,0-2.016-0.837-2.17-1.939v-0.574C27.873,11.464,28.769,10.599,29.889,10.599L29.889,10.599
		z M38.891,11.103h-3.234v-4.55h-1.288v4.55l0,0v1.288h4.522v3.934h1.288V6.553h-1.288V11.103z"/>
	<polygon fill-rule="evenodd" clip-rule="evenodd" fill="#FFFFFF" points="23.322,29.267 27.869,31.892 32.415,34.517 
		27.869,37.142 23.322,39.767 23.322,34.517 	"/>
	<path fill="#F7B0B9" d="M26.906,46.373c-6.538,0-11.856-5.318-11.856-11.856S20.368,22.66,26.906,22.66
		c6.538,0,11.857,5.319,11.857,11.857S33.444,46.373,26.906,46.373z M26.906,25.636c-4.896,0-8.88,3.984-8.88,8.881
		c0,4.896,3.984,8.881,8.88,8.881c4.897,0,8.881-3.984,8.881-8.881C35.787,29.62,31.803,25.636,26.906,25.636z"/>
</g>
</svg>
