<?xml version="1.0" encoding="utf-8"?>
<!-- Generator: Adobe Illustrator 14.0.0, SVG Export Plug-In . SVG Version: 6.00 Build 43363)  -->
<!DOCTYPE svg PUBLIC "-//W3C//DTD SVG 1.1//EN" "http://www.w3.org/Graphics/SVG/1.1/DTD/svg11.dtd">
<svg version="1.1" id="Layer_1" xmlns="http://www.w3.org/2000/svg" xmlns:xlink="http://www.w3.org/1999/xlink" x="0px" y="0px"
	 width="20px" height="20px" viewBox="0 0 20 20" enable-background="new 0 0 20 20" xml:space="preserve">
<path fill="#4D4E4E" d="M12.975,9.253c0.483,0,0.877-0.767,0.877-1.713c0-0.946-0.394-1.713-0.877-1.713s-0.877,0.767-0.877,1.713
	C12.098,8.486,12.491,9.253,12.975,9.253z M7.052,9.253c0.485,0,0.877-0.767,0.877-1.713c0-0.946-0.392-1.713-0.877-1.713
	c-0.483,0-0.875,0.767-0.875,1.713C6.177,8.486,6.568,9.253,7.052,9.253z M15.729,11.622H4.271c-0.063,0-0.119,0.028-0.158,0.076
	c-0.041,0.047-0.056,0.109-0.044,0.17C4.615,14.702,7.11,16.758,10,16.758c2.891,0,5.385-2.057,5.933-4.891
	c0.012-0.061-0.004-0.123-0.043-0.17C15.851,11.65,15.792,11.622,15.729,11.622z M10,15.958c-2.409,0-4.499-1.475-5.055-3.682
	h10.109C14.499,14.483,12.409,15.958,10,15.958z M10.001,0C4.486,0,0,4.486,0,10c0,5.515,4.486,10,10.001,10
	C15.515,20,20,15.514,20,10C20,4.486,15.515,0,10.001,0z M10.001,18.879c-4.897,0-8.881-3.983-8.881-8.88s3.983-8.88,8.881-8.88
	c4.896,0,8.879,3.983,8.879,8.88S14.896,18.879,10.001,18.879z"/>
</svg>
