<?xml version="1.0" encoding="utf-8"?>
<!-- Generator: Adobe Illustrator 14.0.0, SVG Export Plug-In . SVG Version: 6.00 Build 43363)  -->
<!DOCTYPE svg PUBLIC "-//W3C//DTD SVG 1.1//EN" "http://www.w3.org/Graphics/SVG/1.1/DTD/svg11.dtd">
<svg version="1.1" id="Layer_1" xmlns="http://www.w3.org/2000/svg" xmlns:xlink="http://www.w3.org/1999/xlink" x="0px" y="0px"
	 width="53.813px" height="53.813px" viewBox="0 0 53.813 53.813" enable-background="new 0 0 53.813 53.813" xml:space="preserve">
<g>
	<linearGradient id="SVGID_1_" gradientUnits="userSpaceOnUse" x1="26.9063" y1="52.7114" x2="26.9062" y2="-0.1384">
		<stop  offset="0" style="stop-color:#55B047"/>
		<stop  offset="1" style="stop-color:#8AC646"/>
	</linearGradient>
	<path fill-rule="evenodd" clip-rule="evenodd" fill="url(#SVGID_1_)" d="M11.944,0h29.925c6.569,0,11.943,5.375,11.943,11.944
		v29.925c0,6.569-5.374,11.944-11.943,11.944H11.944C5.375,53.813,0,48.438,0,41.869V11.944C0,5.375,5.375,0,11.944,0z"/>
	<path fill-rule="evenodd" clip-rule="evenodd" fill="#FFFFFF" d="M24.324,14.271l-0.84-1.467l1.975-3.451h-1.415l-1.245,2.221
		l-1.246-2.221h-1.4l1.974,3.451l-0.825,1.467l-1.204,2.053h1.302h0.098v-0.084l1.303-2.263l1.302,2.263v0.084h1.428L24.324,14.271
		L24.324,14.271z M28.034,5.839h-1.288v10.486h1.288V5.839L28.034,5.839z M31.675,12.069c-1.12-0.042-1.246-0.448-1.246-0.728
		c0-0.546,0.434-0.798,0.896-0.798c0.435,0.014,0.813,0.21,1.148,0.602l0.168,0.196l0.63-1.12l-0.084-0.098
		c-0.393-0.49-1.148-0.826-1.862-0.826h-0.14c-1.078,0-1.975,0.924-1.975,2.044c0,1.302,1.303,1.918,2.395,1.96
		c0.742,0.112,1.036,0.395,1.036,0.889c0,0.551-0.435,0.973-1.008,0.973h-0.028c-0.729-0.014-1.386-0.224-1.708-0.733l-0.154-0.24
		l-0.588,1.015l0.07,0.084c0.434,0.63,1.273,1.036,2.128,1.036h0.28c1.231,0,2.184-0.952,2.184-2.135
		C33.816,13.049,32.977,12.223,31.675,12.069z"/>
	<path fill="#B0D463" d="M36.145,46.016h-2.977v-5.064h-4.773v5.064h-2.977v-5.064h-4.773v5.064h-2.976v-5.064h-6.262v-2.977h6.262
		v-4.773h-6.262v-2.977h6.262v-6.261h2.976v6.261h4.773v-6.261h2.977v6.261h4.773v-6.261h2.977v6.261h6.261v2.977h-6.261v4.773
		h6.261v2.977h-6.261V46.016z M28.395,37.976h4.773v-4.773h-4.773V37.976z M20.645,37.976h4.773v-4.773h-4.773V37.976z"/>
	<path fill="#FFFFFF" d="M28.395,40.952H17.669V30.226h10.726V40.952z M20.645,37.976h4.773v-4.773h-4.773V37.976z"/>
</g>
</svg>
