<?xml version="1.0" encoding="utf-8"?>
<!-- Generator: Adobe Illustrator 14.0.0, SVG Export Plug-In . SVG Version: 6.00 Build 43363)  -->
<!DOCTYPE svg PUBLIC "-//W3C//DTD SVG 1.1//EN" "http://www.w3.org/Graphics/SVG/1.1/DTD/svg11.dtd">
<svg version="1.1" id="Layer_1" xmlns="http://www.w3.org/2000/svg" xmlns:xlink="http://www.w3.org/1999/xlink" x="0px" y="0px"
	 width="16px" height="16px" viewBox="0 0 16 16" enable-background="new 0 0 16 16" xml:space="preserve">
<circle fill="#FFFFFF" cx="8" cy="8" r="6.688"/>
<g id="타원_7">
	<path fill="#7A8186" d="M8,15.5c-4.136,0-7.5-3.363-7.5-7.5c0-4.136,3.364-7.5,7.5-7.5c4.137,0,7.5,3.364,7.5,7.5
		C15.5,12.137,12.135,15.5,8,15.5L8,15.5z M8,1.5C4.416,1.5,1.5,4.416,1.5,8s2.916,6.5,6.5,6.5s6.5-2.916,6.5-6.5S11.584,1.5,8,1.5
		L8,1.5z"/>
</g>
<rect x="4.5" y="7.125" fill="#7A8186" width="7" height="1.75"/>
</svg>
