<?xml version="1.0" encoding="utf-8"?>
<!-- Generator: Adobe Illustrator 14.0.0, SVG Export Plug-In . SVG Version: 6.00 Build 43363)  -->
<!DOCTYPE svg PUBLIC "-//W3C//DTD SVG 1.1//EN" "http://www.w3.org/Graphics/SVG/1.1/DTD/svg11.dtd">
<svg version="1.1" id="Layer_1" xmlns="http://www.w3.org/2000/svg" xmlns:xlink="http://www.w3.org/1999/xlink" x="0px" y="0px"
	 width="15.836px" height="19.003px" viewBox="0 0 15.836 19.003" enable-background="new 0 0 15.836 19.003" xml:space="preserve">
<path d="M8.816,2.079v-1.1C8.816,0.438,8.378,0,7.837,0s-0.98,0.438-0.98,0.979v1.095C3.453,2.547,0.821,5.468,0.821,9v4.589
	L0.59,13.814c0,0-0.752,0.186-0.558,1.186c0.063,0.328,0.56,1.029,1.908,1.035h11.991c1.342,0,1.905-0.697,1.905-1.031
	c0-1-0.772-1.188-0.772-1.188l-0.242-0.236V9C14.822,5.479,12.206,2.564,8.816,2.079z M0.838,15l1.172-0.987L1.917,8.913
	C1.917,5.652,4.566,3,7.82,3c3.255,0,5.904,2.652,5.904,5.913L13.816,14l1.021,1H0.838z M7.66,19.003c1.104,0,2-0.896,2-2h-4
	C5.66,18.107,6.555,19.003,7.66,19.003z"/>
</svg>
