<?xml version="1.0" encoding="utf-8"?>
<!-- Generator: Adobe Illustrator 14.0.0, SVG Export Plug-In . SVG Version: 6.00 Build 43363)  -->
<!DOCTYPE svg PUBLIC "-//W3C//DTD SVG 1.1//EN" "http://www.w3.org/Graphics/SVG/1.1/DTD/svg11.dtd">
<svg version="1.1" id="Layer_1" xmlns="http://www.w3.org/2000/svg" xmlns:xlink="http://www.w3.org/1999/xlink" x="0px" y="0px"
	 width="53.813px" height="53.813px" viewBox="0 0 53.813 53.813" enable-background="new 0 0 53.813 53.813" xml:space="preserve">
<g>
	<linearGradient id="SVGID_1_" gradientUnits="userSpaceOnUse" x1="26.9063" y1="53.2549" x2="26.9062" y2="-1.4281">
		<stop  offset="0" style="stop-color:#C05827"/>
		<stop  offset="1" style="stop-color:#F7922F"/>
	</linearGradient>
	<path fill-rule="evenodd" clip-rule="evenodd" fill="url(#SVGID_1_)" d="M11.944,0h29.925c6.569,0,11.943,5.375,11.943,11.944
		v29.925c0,6.569-5.374,11.944-11.943,11.944H11.944C5.375,53.813,0,48.438,0,41.869V11.944C0,5.375,5.375,0,11.944,0z"/>
	<path fill-rule="evenodd" clip-rule="evenodd" fill="#FFFFFF" d="M17.948,19.797v-4.256c0.602,0.49,1.33,0.784,2.17,0.784
		c1.862,0,3.388-1.551,3.388-3.493c0-1.927-1.525-3.507-3.388-3.507c-0.84,0-1.568,0.294-2.17,0.784V9.325h-1.26v10.472H17.948
		L17.948,19.797z M20.118,10.599c1.19,0,2.156,1.003,2.156,2.233c0,1.215-0.966,2.219-2.156,2.219c-1.12,0-2.016-0.837-2.17-1.939
		v-0.574C18.103,11.464,18.998,10.599,20.118,10.599L20.118,10.599z M25.83,19.797v-4.256c0.603,0.49,1.33,0.784,2.17,0.784
		c1.862,0,3.388-1.551,3.388-3.493c0-1.927-1.525-3.507-3.388-3.507c-0.84,0-1.567,0.294-2.17,0.784V9.325h-1.26v10.472H25.83
		L25.83,19.797z M28,10.599c1.19,0,2.156,1.003,2.156,2.233c0,1.215-0.966,2.219-2.156,2.219c-1.12,0-2.016-0.837-2.17-1.939v-0.574
		C25.984,11.464,26.88,10.599,28,10.599L28,10.599z M35.477,9.297V5.825h-1.303v3.472h-1.903v1.33h1.903v5.698h1.303v-5.698h1.834
		v-1.33H35.477z"/>
	<path fill="#FFD183" d="M34.847,30.943c-0.435-1.026-1.056-1.947-1.848-2.739s-1.713-1.414-2.739-1.847l1.159-2.741
		c1.381,0.583,2.62,1.419,3.685,2.483c1.064,1.064,1.9,2.304,2.484,3.685L34.847,30.943z"/>
	<path fill="#FBB35B" d="M38.499,34.297h-2.976c0-4.751-3.866-8.617-8.617-8.617v-2.976C33.299,22.704,38.499,27.904,38.499,34.297z
		"/>
	<path fill="#FFFFFF" d="M26.906,45.89c-6.393,0-11.593-5.201-11.593-11.593s5.2-11.593,11.593-11.593h1.488v10.104h10.104v1.488
		C38.499,40.689,33.299,45.89,26.906,45.89z M25.418,25.809c-4.044,0.707-7.128,4.244-7.128,8.488c0,4.751,3.865,8.617,8.616,8.617
		c4.244,0,7.781-3.084,8.488-7.128h-9.977V25.809z"/>
</g>
</svg>
