<?xml version="1.0" encoding="utf-8"?>
<!-- Generator: Adobe Illustrator 14.0.0, SVG Export Plug-In . SVG Version: 6.00 Build 43363)  -->
<!DOCTYPE svg PUBLIC "-//W3C//DTD SVG 1.1//EN" "http://www.w3.org/Graphics/SVG/1.1/DTD/svg11.dtd">
<svg version="1.1" id="Layer_1" xmlns="http://www.w3.org/2000/svg" xmlns:xlink="http://www.w3.org/1999/xlink" x="0px" y="0px"
	 width="53.813px" height="53.813px" viewBox="0 0 53.813 53.813" enable-background="new 0 0 53.813 53.813" xml:space="preserve">
<g>
	<path fill-rule="evenodd" clip-rule="evenodd" fill="#F4F4F4" d="M11.944,0h29.925c6.569,0,11.943,5.375,11.943,11.944v29.925
		c0,6.569-5.374,11.944-11.943,11.944H11.944C5.375,53.813,0,48.438,0,41.869V11.944C0,5.375,5.375,0,11.944,0z"/>
	<path fill-rule="evenodd" clip-rule="evenodd" fill="#19AFE6" d="M17.185,19.797v-4.256c0.602,0.49,1.33,0.784,2.17,0.784
		c1.862,0,3.388-1.552,3.388-3.493c0-1.927-1.525-3.507-3.388-3.507c-0.84,0-1.568,0.294-2.17,0.784V9.325h-1.26v10.472H17.185
		L17.185,19.797z M19.354,10.599c1.19,0,2.156,1.003,2.156,2.233c0,1.216-0.966,2.219-2.156,2.219c-1.12,0-2.016-0.838-2.17-1.939
		v-0.574C17.339,11.465,18.234,10.599,19.354,10.599L19.354,10.599z M30.288,12.587c-0.153-1.792-1.54-3.262-3.29-3.262
		c-0.714,0-1.372,0.266-1.918,0.672V9.325h-1.273v7h1.273v-4.284c0.322-0.84,1.022-1.4,1.918-1.4c0.952,0,1.75,0.658,2.017,1.596
		v4.074h1.273V12.587L30.288,12.587z M36.729,9.339v0.784c-0.603-0.504-1.344-0.784-2.143-0.784c-1.876,0-3.401,1.554-3.401,3.479
		c0,0.661,0.182,1.251,0.476,1.799c0.238,0.378,0.532,0.742,0.91,1.036c0.561,0.406,1.246,0.672,2.016,0.672
		c0.799,0,1.526-0.28,2.087-0.77c0.041,0,0.014-0.014,0.056-0.014v0.126v1.186c-0.252,0.919-1.078,1.615-2.086,1.615
		c-0.966,0-1.792-0.667-2.072-1.573l-0.756,1.295c0.63,0.936,1.638,1.552,2.828,1.552c0.784,0,1.483-0.28,2.086-0.742
		c0.798-0.627,1.315-1.631,1.315-2.744V9.339H36.729L36.729,9.339z M34.586,15.037c-0.518,0-0.966-0.154-1.344-0.462
		c-0.336-0.269-0.56-0.619-0.714-1.055c-0.07-0.224-0.112-0.464-0.112-0.703c0-1.236,0.967-2.233,2.17-2.233
		c1.106,0,1.988,0.856,2.143,1.939c-0.042,0.703-0.056,0.829-0.07,0.926c-0.154,0.437-0.378,0.801-0.7,1.083
		C35.58,14.855,35.133,15.037,34.586,15.037L34.586,15.037z M32.57,16.853h0.028l-0.028,0.042V16.853z"/>
	<path fill-rule="evenodd" clip-rule="evenodd" fill="#A2ACB7" d="M16.489,24.351h2.977v2.977h-2.977V24.351L16.489,24.351z
		 M22.441,24.351h2.977v2.977h-2.977V24.351L22.441,24.351z M28.395,24.351h2.977v2.977h-2.977V24.351L28.395,24.351z
		 M34.348,24.351h2.977v2.977h-2.977V24.351z"/>
	<path fill-rule="evenodd" clip-rule="evenodd" fill="#A2ACB7" d="M13.513,27.328h2.977v2.976h-2.977V27.328L13.513,27.328z
		 M19.466,27.328h2.976v2.976h-2.976V27.328L19.466,27.328z M25.418,27.328h2.977v2.976h-2.977V27.328L25.418,27.328z
		 M31.371,27.328h2.977v2.976h-2.977V27.328L31.371,27.328z M37.324,27.328H40.3v2.976h-2.976V27.328z"/>
	<path fill-rule="evenodd" clip-rule="evenodd" fill="#A2ACB7" d="M16.489,30.304h2.977v2.977h-2.977V30.304L16.489,30.304z
		 M22.441,30.304h2.977v2.977h-2.977V30.304L22.441,30.304z M28.395,30.304h2.977v2.977h-2.977V30.304L28.395,30.304z
		 M34.348,30.304h2.977v2.977h-2.977V30.304z"/>
	<path fill-rule="evenodd" clip-rule="evenodd" fill="#A2ACB7" d="M13.513,33.28h2.977v2.976h-2.977V33.28L13.513,33.28z
		 M19.466,33.28h2.976v2.976h-2.976V33.28L19.466,33.28z M25.418,33.28h2.977v2.976h-2.977V33.28L25.418,33.28z M31.371,33.28h2.977
		v2.976h-2.977V33.28L31.371,33.28z M37.324,33.28H40.3v2.976h-2.976V33.28z"/>
	<path fill-rule="evenodd" clip-rule="evenodd" fill="#A2ACB7" d="M16.489,36.256h2.977v2.977h-2.977V36.256L16.489,36.256z
		 M22.441,36.256h2.977v2.977h-2.977V36.256L22.441,36.256z M28.395,36.256h2.977v2.977h-2.977V36.256L28.395,36.256z
		 M34.348,36.256h2.977v2.977h-2.977V36.256z"/>
	<path fill-rule="evenodd" clip-rule="evenodd" fill="#A2ACB7" d="M13.513,39.233h2.977v2.977h-2.977V39.233L13.513,39.233z
		 M19.466,39.233h2.976v2.977h-2.976V39.233L19.466,39.233z M25.418,39.233h2.977v2.977h-2.977V39.233L25.418,39.233z
		 M31.371,39.233h2.977v2.977h-2.977V39.233L31.371,39.233z M37.324,39.233H40.3v2.977h-2.976V39.233z"/>
	<path fill-rule="evenodd" clip-rule="evenodd" fill="#A2ACB7" d="M16.489,42.209h2.977v2.976h-2.977V42.209L16.489,42.209z
		 M22.441,42.209h2.977v2.976h-2.977V42.209L22.441,42.209z M28.395,42.209h2.977v2.976h-2.977V42.209L28.395,42.209z
		 M34.348,42.209h2.977v2.976h-2.977V42.209z"/>
</g>
</svg>
