<?xml version="1.0" encoding="utf-8"?>
<!-- Generator: Adobe Illustrator 14.0.0, SVG Export Plug-In . SVG Version: 6.00 Build 43363)  -->
<!DOCTYPE svg PUBLIC "-//W3C//DTD SVG 1.1//EN" "http://www.w3.org/Graphics/SVG/1.1/DTD/svg11.dtd">
<svg version="1.1" id="Layer_1" xmlns="http://www.w3.org/2000/svg" xmlns:xlink="http://www.w3.org/1999/xlink" x="0px" y="0px"
	 width="53.813px" height="53.813px" viewBox="0 0 53.813 53.813" enable-background="new 0 0 53.813 53.813" xml:space="preserve">
<g>
	<linearGradient id="SVGID_1_" gradientUnits="userSpaceOnUse" x1="26.9063" y1="53.2441" x2="26.9062" y2="-2.4524">
		<stop  offset="0" style="stop-color:#177DBB"/>
		<stop  offset="0.28" style="stop-color:#2B87C8"/>
		<stop  offset="1" style="stop-color:#328FCE"/>
	</linearGradient>
	<path fill-rule="evenodd" clip-rule="evenodd" fill="url(#SVGID_1_)" d="M11.944,0h29.925c6.569,0,11.944,5.375,11.944,11.944
		v29.925c0,6.569-5.375,11.944-11.944,11.944H11.944C5.375,53.813,0,48.438,0,41.869V11.944C0,5.375,5.375,0,11.944,0z"/>
	<path fill-rule="evenodd" clip-rule="evenodd" fill="#FFFFFF" d="M21.951,5.825v4.242c-0.574-0.49-1.316-0.77-2.142-0.77
		c-1.876,0-3.402,1.554-3.402,3.493s1.526,3.535,3.402,3.535c0.826,0,1.568-0.322,2.142-0.812v0.812h1.26v-10.5H21.951L21.951,5.825
		z M19.809,15.023c-1.19,0-2.156-0.997-2.156-2.233c0-1.237,0.966-2.233,2.156-2.233c1.12,0,2.03,0.842,2.142,1.939v0.588
		C21.839,14.181,20.929,15.023,19.809,15.023L19.809,15.023z M27.565,9.339c-1.876,0-3.402,1.554-3.402,3.493
		c0,1.953,1.526,3.493,3.402,3.493c1.862,0,3.388-1.54,3.388-3.493C30.953,10.893,29.427,9.339,27.565,9.339L27.565,9.339z
		 M27.565,15.051c-1.204,0-2.17-0.996-2.17-2.219s0.966-2.219,2.17-2.219c1.19,0,2.156,0.997,2.156,2.219
		S28.755,15.051,27.565,15.051L27.565,15.051z M36.665,14.519c-0.392,0.322-0.896,0.504-1.386,0.504
		c-1.218,0-2.198-0.982-2.198-2.205c0-1.194,0.98-2.191,2.198-2.191c0.49,0,0.966,0.154,1.344,0.476l0.196,0.142l0.588-1.206
		l-0.14-0.07c-0.602-0.42-1.274-0.63-1.988-0.63c-1.946,0-3.5,1.54-3.5,3.479c0,1.953,1.554,3.507,3.5,3.507
		c0.714,0,1.386-0.224,1.988-0.658l0.14-0.056l-0.588-1.248L36.665,14.519z"/>
	<path fill-rule="evenodd" clip-rule="evenodd" fill="#7CB6E3" d="M23.056,23.965h20.846v2.977H23.056V23.965L23.056,23.965z
		 M23.056,30.01h20.846v2.977H23.056V30.01L23.056,30.01z M9.91,36.054h33.992v2.977H9.91V36.054L9.91,36.054z M9.91,42.099h33.992
		v2.977H9.91V42.099z"/>
	<polygon fill-rule="evenodd" clip-rule="evenodd" fill="#FFFFFF" points="13.6,33.05 9.91,23.942 12.043,23.942 13.758,28.7 
		15.602,23.656 15.766,23.656 17.622,28.7 19.321,23.942 21.285,23.942 17.622,33.05 17.489,33.05 15.602,28.006 13.758,33.05 	"/>
</g>
</svg>
