<?xml version="1.0" encoding="utf-8"?>
<!-- Generator: Adobe Illustrator 14.0.0, SVG Export Plug-In . SVG Version: 6.00 Build 43363)  -->
<!DOCTYPE svg PUBLIC "-//W3C//DTD SVG 1.1//EN" "http://www.w3.org/Graphics/SVG/1.1/DTD/svg11.dtd">
<svg version="1.1" id="暠꿔_1" xmlns="http://www.w3.org/2000/svg" xmlns:xlink="http://www.w3.org/1999/xlink" x="0px" y="0px"
	 width="16px" height="15.988px" viewBox="0 0 16 15.988" enable-background="new 0 0 16 15.988" xml:space="preserve">
<g display="none">
	<g display="inline">
		<path fill="#323031" d="M13.384,13.321c-0.051-0.116-0.187-0.17-0.303-0.116c-0.538,0.24-1.196,0.367-1.899,0.367
			c-0.981,0-2.018-0.249-2.995-0.72c-0.776-0.374-1.649-0.572-2.523-0.572c-1.357,0-2.601,0.465-3.414,1.275
			c-0.045,0.046-0.068,0.104-0.068,0.162c0,0.06,0.023,0.117,0.067,0.161c0.09,0.09,0.234,0.09,0.325,0
			c0.5-0.497,1.218-0.75,2.136-0.75c0.983,0,2.148,0.302,3.278,0.847c0.659,0.315,1.362,0.476,2.093,0.476
			c1.331,0,2.538-0.539,3.187-0.828c0.088-0.038,0.137-0.121,0.137-0.209C13.404,13.383,13.396,13.35,13.384,13.321z"/>
		<path fill="#3BB3E7" d="M12.23,14.962c-0.061-0.11-0.199-0.151-0.312-0.093c-0.336,0.186-0.862,0.284-1.479,0.284
			c-1.094,0-2.279-0.313-3.167-0.832C6.551,13.895,5.73,13.672,4.9,13.672c-1.131,0-2.133,0.429-2.749,1.175L2.15,14.847l0,0
			c-0.025,0.03-0.04,0.065-0.048,0.103v0.001l0,0l0,0c-0.015,0.079,0.014,0.163,0.08,0.218c0.026,0.022,0.056,0.036,0.086,0.044
			v0.002c0.085,0.021,0.178-0.005,0.237-0.076c0.001-0.001,0.001-0.001,0.001-0.001c0.361-0.438,0.895-0.656,1.587-0.656
			c0.848,0,1.922,0.344,2.947,0.943c0.615,0.363,1.355,0.548,2.196,0.548c1.195,0,2.311-0.375,2.902-0.697
			c0.076-0.042,0.119-0.121,0.119-0.202C12.259,15.034,12.249,14.996,12.23,14.962z"/>
		<path fill="#323031" d="M10.018,0.985c0.076-0.104,0.123-0.232,0.123-0.373c0-0.352-0.283-0.634-0.636-0.634
			c-0.351,0-0.635,0.282-0.635,0.634c0,0.021,0.005,0.042,0.007,0.063c-3.146-0.588-6.148,0.91-6.881,3.521
			C1.995,4.198,1.994,4.2,1.993,4.204l-0.002,0.01C1.988,4.224,1.985,4.236,1.982,4.246C1.977,4.265,1.973,4.285,1.97,4.304
			C1.891,4.714,1.993,5.152,2.258,5.52C2.527,5.896,2.94,6.173,3.419,6.302c0.193,0.052,0.387,0.076,0.574,0.076
			c0.298,0,0.583-0.063,0.834-0.177C5.11,6.573,5.554,6.873,6.102,7.019c0.221,0.059,0.446,0.09,0.667,0.089
			c0.165,0,0.322-0.021,0.473-0.053l-1.477,5.507c-0.064,0.245,0.081,0.495,0.325,0.562c0.04,0.01,0.08,0.017,0.119,0.017
			c0.203,0,0.388-0.136,0.443-0.341l1.483-5.54C8.411,7.526,8.777,7.737,9.21,7.853c0.222,0.059,0.444,0.088,0.664,0.088
			c0.308,0,0.595-0.059,0.847-0.163c0.27,0.379,0.688,0.664,1.174,0.793c0.188,0.051,0.383,0.076,0.573,0.076
			c0.288,0,0.568-0.059,0.821-0.172c0.413-0.188,0.721-0.516,0.857-0.909c0.006-0.019,0.013-0.037,0.02-0.057
			c0.003-0.015,0.008-0.029,0.012-0.044c0-0.001,0-0.001,0-0.003C14.85,4.846,13.018,2.057,10.018,0.985z"/>
	</g>
	<path display="inline" fill="#BCD75F" d="M5.426,5.084C5.423,5.096,5.421,5.11,5.417,5.124c-0.101,0.379,0.331,0.852,0.924,1.01
		C6.485,6.173,6.628,6.192,6.77,6.192c0.437,0,0.794-0.19,0.874-0.463c0.001-0.002,0.001-0.003,0.002-0.006l1.043-3.895
		C7.021,2.372,5.875,3.51,5.426,5.084z"/>
	<path display="inline" fill="#FFFFFF" d="M3.655,5.416c-0.27-0.073-0.509-0.229-0.653-0.431C2.877,4.811,2.833,4.621,2.877,4.448
		c0.488-1.75,2.257-2.881,4.341-2.977c-1.355,0.751-2.293,1.934-2.7,3.454c-0.008,0.03-0.013,0.06-0.015,0.089
		C4.484,5.125,4.48,5.237,4.488,5.346C4.263,5.462,3.959,5.497,3.655,5.416z"/>
	<path display="inline" fill="#3BB3E7" d="M13.29,7.235c-0.046,0.172-0.181,0.315-0.377,0.405c-0.226,0.102-0.511,0.118-0.781,0.046
		c-0.296-0.079-0.548-0.26-0.688-0.482c0.063-0.09,0.117-0.184,0.156-0.287c0.012-0.026,0.021-0.056,0.03-0.086
		c0.408-1.52,0.187-3.013-0.612-4.341C12.773,3.613,13.74,5.477,13.29,7.235z"/>
	<path display="inline" fill="#FFC10E" d="M8.529,5.936c0,0.007-0.004,0.013-0.006,0.021c-0.101,0.378,0.33,0.852,0.926,1.01
		c0.142,0.038,0.285,0.058,0.426,0.058c0.443,0,0.803-0.193,0.878-0.471c0.004-0.015,0.007-0.026,0.013-0.04
		c0.397-1.587-0.025-3.145-1.197-4.449L8.529,5.936z"/>
</g>
<g>
	<path fill="#BAA0B5" d="M5.703,5.96c0-1.989,0.564-3.894,1.548-5.292C4.697,1.123,2.752,3.321,2.752,5.961
		c0,1.541,0.665,2.928,1.724,3.91c0.023,0.012,0.043,0.026,0.06,0.05l0.012,0.016c0.765,0.685,1.727,1.159,2.793,1.331
		C6.286,9.849,5.703,7.983,5.703,5.96z"/>
	<path fill="#EF6A6D" d="M7.828,11.301c0.005,0.007,0.008,0.018,0.012,0.022c0.129,0.009,0.257,0.021,0.388,0.021
		c0.054,0,0.106-0.009,0.161-0.009c0.006-0.013,0.009-0.024,0.018-0.035c1.129-1.376,1.751-3.272,1.751-5.34
		c0-2.023-0.597-3.958-1.636-5.306C8.507,0.635,8.496,0.613,8.49,0.591C8.402,0.586,8.316,0.577,8.229,0.577
		c-0.166,0-0.33,0.01-0.492,0.024C7.731,0.62,7.723,0.638,7.711,0.655C6.67,2.005,6.073,3.939,6.073,5.96
		C6.073,8.025,6.697,9.923,7.828,11.301z"/>
	<path fill="#FBE295" d="M8.956,0.63c0.999,1.4,1.573,3.322,1.573,5.33c0,2.042-0.592,3.925-1.664,5.342
		c1.263-0.144,2.396-0.709,3.248-1.554l0.024-0.031c0.006-0.005,0.013-0.009,0.018-0.013c0.956-0.971,1.549-2.29,1.549-3.744
		C13.704,3.236,11.632,0.983,8.956,0.63z"/>
	<rect x="7.337" y="13.733" fill="#B2DFF6" width="1.773" height="1.503"/>
</g>
<g>
	
		<ellipse fill="none" stroke="#444B56" stroke-linecap="round" stroke-linejoin="round" stroke-miterlimit="10" cx="8.233" cy="6.052" rx="5.661" ry="5.57"/>
	<path fill="none" stroke="#444B56" stroke-linecap="round" stroke-linejoin="round" stroke-miterlimit="10" d="M7.689,11.51
		c-1.098-1.339-1.796-3.226-1.796-5.459c0-2.15,0.647-4.083,1.676-5.418"/>
	<path fill="none" stroke="#444B56" stroke-linecap="round" stroke-linejoin="round" stroke-miterlimit="10" d="M8.556,11.51
		c1.099-1.339,1.794-3.226,1.794-5.459c0-2.15-0.646-4.083-1.675-5.418"/>
	
		<line fill="none" stroke="#444B56" stroke-linecap="round" stroke-linejoin="round" stroke-miterlimit="10" x1="9.294" y1="13.638" x2="12.288" y2="9.925"/>
	
		<line fill="none" stroke="#444B56" stroke-linecap="round" stroke-linejoin="round" stroke-miterlimit="10" x1="7.157" y1="13.638" x2="4.396" y2="10.127"/>
	
		<rect x="7.157" y="13.638" fill="none" stroke="#444B56" stroke-linecap="round" stroke-linejoin="round" stroke-miterlimit="10" width="2.143" height="1.877"/>
</g>
</svg>
