<?xml version="1.0" encoding="utf-8"?>
<!-- Generator: Adobe Illustrator 14.0.0, SVG Export Plug-In . SVG Version: 6.00 Build 43363)  -->
<!DOCTYPE svg PUBLIC "-//W3C//DTD SVG 1.1//EN" "http://www.w3.org/Graphics/SVG/1.1/DTD/svg11.dtd">
<svg version="1.1" id="Layer_1_copy" xmlns="http://www.w3.org/2000/svg" xmlns:xlink="http://www.w3.org/1999/xlink" x="0px"
	 y="0px" width="16px" height="16px" viewBox="2 2 16 16" enable-background="new 2 2 16 16" xml:space="preserve">
<g>
	<path fill="#35424B" d="M11.5,12H5.563c-0.276,0-0.5,0.225-0.5,0.5s0.224,0.5,0.5,0.5H11.5c0.275,0,0.5-0.225,0.5-0.5
		S11.775,12,11.5,12z"/>
	<path fill="#35424B" d="M18,6.483c0-0.195-0.114-0.372-0.291-0.453c-0.176-0.081-0.384-0.054-0.533,0.073L15,7.956V7
		c0-1.103-0.896-2-2-2h-1.006C11.965,3.66,10.733,3.108,10,3H4.063c-0.276,0-0.5,0.224-0.5,0.5S3.786,4,4.063,4l5.86-0.006
		C9.966,4.001,10.954,4.17,10.993,5h-0.046H3.984c-1.103,0-2,0.897-2,2v8c0,1.104,0.897,2,2,2H13c1.104,0,2-0.896,2-2v-0.996
		l2.208,1.723c0.09,0.069,0.198,0.105,0.308,0.105c0.075,0,0.15-0.017,0.22-0.051c0.172-0.084,0.28-0.259,0.28-0.45L18,6.483z
		 M14,9.495v2.973V15c0,0.552-0.447,1-1,1H3.984c-0.552,0-1-0.448-1-1V7c0-0.552,0.448-1,1-1H13c0.553,0,1,0.448,1,1V9.495z
		 M15.026,12.756V9.247l1.976-1.682l0.012,6.742L15.026,12.756z"/>
</g>
</svg>
