<?xml version="1.0" encoding="utf-8"?>
<!-- Generator: Adobe Illustrator 14.0.0, SVG Export Plug-In . SVG Version: 6.00 Build 43363)  -->
<!DOCTYPE svg PUBLIC "-//W3C//DTD SVG 1.1//EN" "http://www.w3.org/Graphics/SVG/1.1/DTD/svg11.dtd">
<svg version="1.1" id="Layer_1" xmlns="http://www.w3.org/2000/svg" xmlns:xlink="http://www.w3.org/1999/xlink" x="0px" y="0px"
	 width="53.813px" height="53.813px" viewBox="0 0 53.813 53.813" enable-background="new 0 0 53.813 53.813" xml:space="preserve">
<g>
	<linearGradient id="SVGID_1_" gradientUnits="userSpaceOnUse" x1="26.9063" y1="51.5513" x2="26.9062" y2="-0.4645">
		<stop  offset="0" style="stop-color:#1B8946"/>
		<stop  offset="1" style="stop-color:#28B25F"/>
	</linearGradient>
	<path fill-rule="evenodd" clip-rule="evenodd" fill="url(#SVGID_1_)" d="M11.944,0h29.925c6.568,0,11.943,5.375,11.943,11.944
		v29.925c0,6.569-5.375,11.944-11.943,11.944H11.944C5.375,53.813,0,48.438,0,41.869V11.944C0,5.375,5.375,0,11.944,0z"/>
	<path fill-rule="evenodd" clip-rule="evenodd" fill="#93CE97" d="M14.044,23.743h25.725h1.488v1.488v19.075v1.488h-1.488H14.044
		h-1.488v-1.488V25.231v-1.488H14.044L14.044,23.743z M38.28,26.719H15.532v16.099H38.28V26.719z"/>
	<circle fill-rule="evenodd" clip-rule="evenodd" fill="#FFFFFF" cx="23.779" cy="31.706" r="2.712"/>
	<rect x="12.556" y="42.818" fill-rule="evenodd" clip-rule="evenodd" fill="#FFFFFF" width="27.213" height="2.976"/>
	<polygon fill-rule="evenodd" clip-rule="evenodd" fill="#FFFFFF" points="12.556,42.818 18.771,36.602 19.824,35.549 
		20.876,36.602 24.556,40.281 22.451,42.385 19.824,39.758 14.66,44.922 	"/>
	<path fill-rule="evenodd" clip-rule="evenodd" fill="#FFFFFF" d="M33.961,31.749l6.86,6.86l0.436,0.436v0.616v4.645v1.488h-1.488
		H21.403h-3.593l2.541-2.541l11.505-11.505l1.052-1.052L33.961,31.749L33.961,31.749z M38.28,40.277l-5.372-5.372l-7.912,7.913
		H38.28V40.277z"/>
	<g>
		<path fill="#FFFFFF" d="M17.758,10.838c0.888,0,1.628,0.314,2.22,0.942s0.888,1.444,0.888,2.448s-0.298,1.828-0.894,2.472
			c-0.597,0.644-1.334,0.966-2.214,0.966c-0.521,0-0.977-0.122-1.368-0.366c-0.393-0.244-0.704-0.57-0.937-0.978v1.236h-1.367v-8.88
			h1.367v3.444c0.225-0.384,0.534-0.694,0.931-0.93C16.779,10.956,17.237,10.838,17.758,10.838z M18.874,15.86
			c0.399-0.412,0.6-0.958,0.6-1.638s-0.198-1.216-0.594-1.608c-0.396-0.392-0.868-0.588-1.416-0.588c-0.549,0-1.021,0.2-1.416,0.6
			c-0.396,0.4-0.595,0.94-0.595,1.62c0,0.68,0.198,1.222,0.595,1.626c0.396,0.404,0.865,0.606,1.41,0.606
			C18.002,16.478,18.474,16.272,18.874,15.86z"/>
		<path fill="#FFFFFF" d="M23.589,10.946v1.044c0.44-0.768,1.145-1.152,2.112-1.152c0.512,0,0.968,0.12,1.368,0.36
			c0.399,0.24,0.704,0.588,0.912,1.044c0.231-0.44,0.554-0.784,0.966-1.032c0.412-0.248,0.878-0.372,1.398-0.372
			c0.76,0,1.384,0.246,1.872,0.738c0.487,0.492,0.731,1.186,0.731,2.082v3.9h-1.368v-3.696c0-0.592-0.147-1.046-0.443-1.362
			c-0.297-0.316-0.7-0.474-1.213-0.474c-0.512,0-0.916,0.158-1.212,0.474c-0.296,0.316-0.443,0.77-0.443,1.362v3.696h-1.356v-3.696
			c0-0.592-0.147-1.046-0.443-1.362c-0.297-0.316-0.7-0.474-1.213-0.474c-0.512,0-0.918,0.158-1.218,0.474
			c-0.3,0.316-0.45,0.77-0.45,1.362v3.696h-1.367v-6.612H23.589z"/>
		<path fill="#FFFFFF" d="M38.361,10.838c0.888,0,1.628,0.314,2.22,0.942s0.888,1.444,0.888,2.448s-0.298,1.828-0.894,2.472
			c-0.597,0.644-1.334,0.966-2.214,0.966c-0.521,0-0.977-0.122-1.368-0.366c-0.393-0.244-0.704-0.57-0.937-0.978v4.38h-1.367v-9.756
			h1.367v1.176c0.225-0.384,0.534-0.694,0.931-0.93C37.383,10.956,37.841,10.838,38.361,10.838z M39.478,15.86
			c0.399-0.412,0.6-0.958,0.6-1.638s-0.198-1.216-0.594-1.608c-0.396-0.392-0.868-0.588-1.416-0.588c-0.549,0-1.021,0.2-1.416,0.6
			c-0.396,0.4-0.595,0.94-0.595,1.62c0,0.68,0.198,1.222,0.595,1.626c0.396,0.404,0.865,0.606,1.41,0.606
			C38.605,16.478,39.077,16.272,39.478,15.86z"/>
	</g>
</g>
</svg>
