<?xml version="1.0" encoding="utf-8"?>
<!-- Generator: Adobe Illustrator 14.0.0, SVG Export Plug-In . SVG Version: 6.00 Build 43363)  -->
<!DOCTYPE svg PUBLIC "-//W3C//DTD SVG 1.1//EN" "http://www.w3.org/Graphics/SVG/1.1/DTD/svg11.dtd">
<svg version="1.1" xmlns="http://www.w3.org/2000/svg" xmlns:xlink="http://www.w3.org/1999/xlink" x="0px" y="0px"
	 width="15.999px" height="16px" viewBox="0 0 15.999 16" enable-background="new 0 0 15.999 16" xml:space="preserve">
<g id="Layer_1">
	<path display="none" fill="#767676" d="M-215.941-2.858l3.915,7.071l8.217,1.775l-5.589,5.574l1.199,8.424l-7.381-3.242
		l-7.825,3.081l1.604-8.264l-5.825-5.979l7.71-1.5L-215.941-2.858 M-215.922-3.937c-0.726,0-1.398,0.389-1.76,1.02l-3.183,5.557
		l-6.158,1.198c-0.731,0.142-1.325,0.675-1.546,1.386c-0.224,0.711-0.038,1.487,0.482,2.022l4.598,4.72l-1.268,6.533
		c-0.144,0.729,0.125,1.474,0.694,1.947c0.371,0.31,0.832,0.469,1.297,0.469c0.251,0,0.502-0.046,0.742-0.141l6.39-2.515
		l5.991,2.634c0.264,0.115,0.541,0.17,0.818,0.17c0.436,0,0.866-0.141,1.227-0.412c0.586-0.444,0.886-1.173,0.781-1.902
		l-0.954-6.718l4.405-4.392c0.526-0.524,0.724-1.295,0.514-2.008c-0.209-0.713-0.792-1.255-1.519-1.412l-6.633-1.432l-3.144-5.678
		c-0.356-0.641-1.029-1.041-1.759-1.047C-215.913-3.937-215.917-3.937-215.922-3.937L-215.922-3.937z"/>
</g>
<g id="Layer_2">
	<g>
		<path fill="#4C4C4C" d="M8.526,16L0,7.473V0h7.473l8.526,8.527L8.526,16z M0.588,7.229l7.938,7.939l6.642-6.641L7.229,0.588H0.588
			V7.229z"/>
		<path fill="#4C4C4C" d="M3.234,4.705c-0.812,0-1.471-0.66-1.471-1.47s0.659-1.47,1.471-1.47c0.811,0,1.47,0.66,1.47,1.47
			S4.045,4.705,3.234,4.705z M3.234,2.353c-0.486,0-0.883,0.396-0.883,0.882s0.396,0.882,0.883,0.882s0.882-0.396,0.882-0.882
			S3.721,2.353,3.234,2.353z"/>
	</g>
</g>
</svg>
