<?xml version="1.0" encoding="utf-8"?>
<!-- Generator: Adobe Illustrator 14.0.0, SVG Export Plug-In . SVG Version: 6.00 Build 43363)  -->
<!DOCTYPE svg PUBLIC "-//W3C//DTD SVG 1.1//EN" "http://www.w3.org/Graphics/SVG/1.1/DTD/svg11.dtd">
<svg version="1.1" id="Layer_1" xmlns="http://www.w3.org/2000/svg" xmlns:xlink="http://www.w3.org/1999/xlink" x="0px" y="0px"
	 width="53.813px" height="53.813px" viewBox="0 0 53.813 53.813" enable-background="new 0 0 53.813 53.813" xml:space="preserve">
<g>
	<linearGradient id="SVGID_1_" gradientUnits="userSpaceOnUse" x1="26.9063" y1="53.2549" x2="26.9062" y2="-1.4285">
		<stop  offset="0" style="stop-color:#F99D2A"/>
		<stop  offset="1" style="stop-color:#FEBD36"/>
	</linearGradient>
	<path fill-rule="evenodd" clip-rule="evenodd" fill="url(#SVGID_1_)" d="M11.944,0h29.925c6.569,0,11.944,5.375,11.944,11.944
		v29.925c0,6.568-5.375,11.943-11.944,11.943H11.944C5.375,53.813,0,48.438,0,41.869V11.944C0,5.375,5.375,0,11.944,0z"/>
	<path fill-rule="evenodd" clip-rule="evenodd" fill="#FFFFFF" d="M24.331,9.311v0.854c-0.574-0.501-1.302-0.798-2.128-0.798
		c-1.848,0-3.36,1.559-3.36,3.467c0,1.951,1.512,3.491,3.36,3.491c0.826,0,1.554-0.294,2.128-0.784v0.784h1.274V9.311H24.331
		L24.331,9.311z M22.203,15.051c-1.176,0-2.142-0.994-2.142-2.212c0-1.197,0.966-2.193,2.142-2.193c1.078,0,1.974,0.828,2.128,1.909
		v0.588C24.176,14.225,23.28,15.051,22.203,15.051L22.203,15.051z M29.692,13.14l-1.68-3.815h-1.344l2.772,6.44l0.238,0.56
		l0.014-0.014v0.014l0.126-0.35l2.87-6.65h-1.316L29.692,13.14L29.692,13.14z M34.957,9.315h-1.26v7.009h1.26V9.315L34.957,9.315z
		 M33.654,7.267c0,0.364,0.294,0.658,0.658,0.658c0.35,0,0.658-0.294,0.658-0.658c0-0.35-0.308-0.658-0.658-0.658
		C33.948,6.609,33.654,6.917,33.654,7.267z"/>
	<polygon fill-rule="evenodd" clip-rule="evenodd" fill="#FFFFFF" points="23.322,29.267 27.869,31.892 32.416,34.517 
		27.869,37.142 23.322,39.767 23.322,34.517 	"/>
	<path fill="#FFD886" d="M26.906,46.373c-6.538,0-11.856-5.318-11.856-11.856S20.369,22.66,26.906,22.66
		c6.538,0,11.857,5.319,11.857,11.857S33.444,46.373,26.906,46.373z M26.906,25.636c-4.896,0-8.88,3.984-8.88,8.881
		c0,4.896,3.984,8.881,8.88,8.881c4.897,0,8.881-3.984,8.881-8.881C35.787,29.62,31.803,25.636,26.906,25.636z"/>
</g>
</svg>
