<svg xmlns="http://www.w3.org/2000/svg" width="23" height="23" viewBox="0 0 23 23">
  <defs>
    <style>
      .cls-1 {
        fill: #fefefe;
        fill-rule: evenodd;
      }
    </style>
  </defs>
  <path id="대화_목록" data-name="대화 목록" class="cls-1" d="M23.777,198.988L17,202l1.916-3.831C14.847,196.628,12,193.105,12,189c0-5.523,5.149-10,11.5-10S35,183.477,35,189C35,194.441,30,198.859,23.777,198.988ZM19,188a1,1,0,1,1-1,1A1,1,0,0,1,19,188Zm5,0a1,1,0,1,1-1,1A1,1,0,0,1,24,188Zm5,0a1,1,0,1,1-1,1A1,1,0,0,1,29,188Z" transform="translate(-12 -179)"/>
</svg>
