<?xml version="1.0" encoding="utf-8"?>
<!-- Generator: Adobe Illustrator 14.0.0, SVG Export Plug-In . SVG Version: 6.00 Build 43363)  -->
<!DOCTYPE svg PUBLIC "-//W3C//DTD SVG 1.1//EN" "http://www.w3.org/Graphics/SVG/1.1/DTD/svg11.dtd">
<svg version="1.1" id="Layer_1" xmlns="http://www.w3.org/2000/svg" xmlns:xlink="http://www.w3.org/1999/xlink" x="0px" y="0px"
	 width="53.813px" height="53.813px" viewBox="0 0 53.813 53.813" enable-background="new 0 0 53.813 53.813" xml:space="preserve">
<g>
	<linearGradient id="SVGID_1_" gradientUnits="userSpaceOnUse" x1="26.9063" y1="53.2549" x2="26.9062" y2="-1.4285">
		<stop  offset="0" style="stop-color:#C05827"/>
		<stop  offset="1" style="stop-color:#F7922F"/>
	</linearGradient>
	<path fill-rule="evenodd" clip-rule="evenodd" fill="url(#SVGID_1_)" d="M11.944,0h29.925c6.569,0,11.944,5.375,11.944,11.944
		v29.925c0,6.568-5.375,11.943-11.944,11.943H11.944C5.375,53.813,0,48.438,0,41.869V11.944C0,5.375,5.375,0,11.944,0z"/>
	<path fill-rule="evenodd" clip-rule="evenodd" fill="#FFFFFF" d="M23.413,14.527c-0.392,0.322-0.896,0.504-1.386,0.504
		c-1.218,0-2.198-0.982-2.198-2.205c0-1.194,0.98-2.191,2.198-2.191c0.49,0,0.966,0.154,1.344,0.477l0.196,0.143l0.588-1.207
		l-0.14-0.069c-0.602-0.421-1.274-0.63-1.988-0.63c-1.946,0-3.5,1.539-3.5,3.479c0,1.953,1.554,3.507,3.5,3.507
		c0.714,0,1.386-0.224,1.988-0.658l0.14-0.056l-0.588-1.248L23.413,14.527L23.413,14.527z M27.585,12.077
		c-1.12-0.042-1.246-0.448-1.246-0.728c0-0.547,0.434-0.799,0.896-0.799c0.434,0.015,0.812,0.211,1.148,0.603l0.168,0.196l0.63-1.12
		l-0.084-0.099c-0.392-0.489-1.148-0.826-1.862-0.826h-0.14c-1.078,0-1.974,0.925-1.974,2.045c0,1.302,1.302,1.918,2.394,1.96
		c0.742,0.111,1.036,0.394,1.036,0.889c0,0.551-0.434,0.973-1.008,0.973h-0.028c-0.728-0.014-1.386-0.224-1.708-0.732l-0.154-0.24
		l-0.588,1.015l0.07,0.084c0.434,0.63,1.274,1.036,2.128,1.036h0.28c1.232,0,2.185-0.952,2.185-2.135
		C29.728,13.057,28.887,12.231,27.585,12.077L27.585,12.077z M33.143,12.077c-1.12-0.042-1.246-0.448-1.246-0.728
		c0-0.547,0.434-0.799,0.896-0.799c0.434,0.015,0.812,0.211,1.148,0.603l0.168,0.196l0.63-1.12l-0.084-0.099
		c-0.392-0.489-1.148-0.826-1.862-0.826h-0.14c-1.078,0-1.974,0.925-1.974,2.045c0,1.302,1.302,1.918,2.394,1.96
		c0.742,0.111,1.036,0.394,1.036,0.889c0,0.551-0.434,0.973-1.008,0.973h-0.028c-0.728-0.014-1.386-0.224-1.708-0.732l-0.154-0.24
		l-0.588,1.015l0.07,0.084c0.434,0.63,1.274,1.036,2.128,1.036h0.28c1.232,0,2.184-0.952,2.184-2.135
		C35.285,13.057,34.445,12.231,33.143,12.077z"/>
	<path fill="#FBB35B" d="M33.637,44.92v-2.977c0.498,0,0.917-0.42,0.917-0.917v-4.811c0-0.599,0.135-1.176,0.39-1.699
		c-0.255-0.523-0.39-1.101-0.39-1.698v-4.812c0-0.497-0.42-0.917-0.917-0.917v-2.977c2.147,0,3.894,1.747,3.894,3.894v4.812
		c0,0.242,0.096,0.472,0.27,0.646l1.053,1.053l-1.053,1.053c-0.174,0.174-0.27,0.403-0.27,0.646v4.811
		C37.531,43.174,35.784,44.92,33.637,44.92z"/>
	<path fill="#FBB35B" d="M20.175,44.92c-2.147,0-3.894-1.746-3.894-3.894v-4.811c0-0.243-0.096-0.473-0.27-0.646l-1.053-1.053
		l1.053-1.053c0.174-0.174,0.27-0.403,0.27-0.646v-4.812c0-2.146,1.747-3.894,3.894-3.894v2.977c-0.497,0-0.917,0.42-0.917,0.917
		v4.812c0,0.598-0.135,1.175-0.39,1.698c0.255,0.523,0.39,1.101,0.39,1.699v4.811c0,0.497,0.42,0.917,0.917,0.917V44.92z"/>
	<path fill-rule="evenodd" clip-rule="evenodd" fill="#FBB35B" d="M31.256,33.257c0.822,0,1.488,0.667,1.488,1.488
		c0,0.822-0.667,1.488-1.488,1.488s-1.488-0.666-1.488-1.488C29.768,33.924,30.434,33.257,31.256,33.257L31.256,33.257z
		 M26.792,33.257c0.822,0,1.488,0.667,1.488,1.488c0,0.822-0.667,1.488-1.488,1.488s-1.488-0.666-1.488-1.488
		C25.304,33.924,25.97,33.257,26.792,33.257L26.792,33.257z M22.328,33.257c0.822,0,1.488,0.667,1.488,1.488
		c0,0.822-0.666,1.488-1.488,1.488c-0.822,0-1.488-0.666-1.488-1.488C20.839,33.924,21.505,33.257,22.328,33.257z"/>
</g>
</svg>
