<?xml version="1.0" encoding="utf-8"?>
<!-- Generator: Adobe Illustrator 14.0.0, SVG Export Plug-In . SVG Version: 6.00 Build 43363)  -->
<!DOCTYPE svg PUBLIC "-//W3C//DTD SVG 1.1//EN" "http://www.w3.org/Graphics/SVG/1.1/DTD/svg11.dtd">
<svg version="1.1" id="Layer_1" xmlns="http://www.w3.org/2000/svg" xmlns:xlink="http://www.w3.org/1999/xlink" x="0px" y="0px"
	 width="53.813px" height="53.813px" viewBox="0 0 53.813 53.813" enable-background="new 0 0 53.813 53.813" xml:space="preserve">
<g>
	<linearGradient id="SVGID_1_" gradientUnits="userSpaceOnUse" x1="26.9063" y1="51.5508" x2="26.9062" y2="-0.4652">
		<stop  offset="0" style="stop-color:#1B8946"/>
		<stop  offset="1" style="stop-color:#28B25F"/>
	</linearGradient>
	<path fill-rule="evenodd" clip-rule="evenodd" fill="url(#SVGID_1_)" d="M11.944,0h29.925c6.568,0,11.943,5.375,11.943,11.943
		v29.926c0,6.568-5.375,11.943-11.943,11.943H11.944C5.375,53.813,0,48.438,0,41.869V11.943C0,5.375,5.375,0,11.944,0z"/>
	<g>
		<path fill="#FFFFFF" d="M39.383,31.082l-2.296-0.435c-0.204-0.684-0.474-1.338-0.808-1.952l1.314-1.931
			c0.125-0.182,0.102-0.428-0.055-0.584l-2.906-2.906c-0.157-0.157-0.402-0.18-0.584-0.056l-1.931,1.314
			c-0.616-0.333-1.269-0.604-1.952-0.808l-0.436-2.295c-0.041-0.217-0.231-0.374-0.453-0.374h-4.109
			c-0.222,0-0.411,0.157-0.453,0.374l-0.435,2.295c-0.683,0.204-1.337,0.475-1.952,0.808l-1.93-1.314
			c-0.184-0.124-0.428-0.102-0.584,0.055l-2.908,2.907c-0.156,0.156-0.179,0.402-0.055,0.584l1.314,1.931
			c-0.333,0.614-0.604,1.269-0.807,1.952l-2.295,0.435c-0.217,0.042-0.374,0.231-0.374,0.452v4.11c0,0.222,0.157,0.412,0.374,0.452
			l2.295,0.437c0.203,0.683,0.474,1.336,0.807,1.952l-1.314,1.93c-0.124,0.183-0.102,0.428,0.055,0.584l2.908,2.907
			c0.156,0.155,0.4,0.179,0.584,0.055l1.93-1.313c0.615,0.333,1.27,0.604,1.952,0.807l0.435,2.295
			c0.042,0.217,0.231,0.374,0.453,0.374h4.109c0.222,0,0.412-0.157,0.453-0.374l0.436-2.295c0.684-0.204,1.336-0.475,1.952-0.807
			l1.931,1.313c0.182,0.124,0.428,0.101,0.584-0.055l2.906-2.907c0.156-0.156,0.18-0.401,0.055-0.584l-1.313-1.93
			c0.333-0.616,0.604-1.27,0.807-1.952l2.296-0.437c0.217-0.04,0.373-0.23,0.373-0.451v-4.111
			C39.756,31.313,39.6,31.124,39.383,31.082z M27.223,41.067c-4.123,0-7.477-3.354-7.477-7.478c0-4.122,3.354-7.477,7.477-7.477
			S34.7,29.468,34.7,33.59C34.7,37.713,31.346,41.067,27.223,41.067z"/>
		<path fill="#FFFFFF" d="M27.223,27.381c-3.423,0-6.209,2.786-6.209,6.209c0,3.424,2.786,6.209,6.209,6.209
			c3.424,0,6.209-2.785,6.209-6.209C33.432,30.167,30.646,27.381,27.223,27.381z M27.223,36.947c-1.852,0-3.357-1.506-3.357-3.357
			c0-1.851,1.506-3.357,3.357-3.357s3.357,1.507,3.357,3.357C30.58,35.441,29.074,36.947,27.223,36.947z"/>
	</g>
	<g>
		<path fill="#FFFEFE" d="M20.217,16.434c-0.96,0-1.739-0.313-2.34-0.937c-0.6-0.624-0.899-1.452-0.899-2.483
			c0-1.032,0.304-1.858,0.912-2.479c0.607-0.62,1.394-0.93,2.357-0.93s1.746,0.298,2.346,0.894c0.601,0.597,0.9,1.374,0.9,2.334
			c0,0.232-0.016,0.448-0.048,0.648h-5.064c0.032,0.552,0.218,0.99,0.559,1.313c0.34,0.324,0.766,0.486,1.277,0.486
			c0.744,0,1.269-0.308,1.572-0.924h1.477c-0.2,0.607-0.564,1.105-1.093,1.494C21.646,16.239,20.993,16.434,20.217,16.434z
			 M21.525,11.243c-0.353-0.324-0.78-0.486-1.284-0.486s-0.926,0.162-1.266,0.486c-0.341,0.324-0.534,0.758-0.582,1.302h3.672
			C22.058,12.001,21.877,11.567,21.525,11.243z"/>
		<path fill="#FFFEFE" d="M29.806,9.713l-2.136,3.265l2.136,3.348h-1.548l-1.429-2.244l-1.344,2.244h-1.428l2.136-3.252l-2.136-3.36
			h1.548l1.428,2.244l1.345-2.244H29.806z"/>
		<path fill="#FFFEFE" d="M33.608,16.434c-0.96,0-1.739-0.313-2.34-0.937c-0.6-0.624-0.899-1.452-0.899-2.483
			c0-1.032,0.304-1.858,0.912-2.479c0.607-0.62,1.394-0.93,2.357-0.93s1.746,0.298,2.346,0.894c0.601,0.597,0.9,1.374,0.9,2.334
			c0,0.232-0.016,0.448-0.048,0.648h-5.064c0.032,0.552,0.218,0.99,0.559,1.313c0.34,0.324,0.766,0.486,1.277,0.486
			c0.744,0,1.269-0.308,1.572-0.924h1.477c-0.2,0.607-0.564,1.105-1.093,1.494C35.037,16.239,34.385,16.434,33.608,16.434z
			 M34.917,11.243c-0.353-0.324-0.78-0.486-1.284-0.486s-0.926,0.162-1.266,0.486c-0.341,0.324-0.534,0.758-0.582,1.302h3.672
			C35.449,12.001,35.269,11.567,34.917,11.243z"/>
	</g>
</g>
</svg>
