<?xml version="1.0" encoding="utf-8"?>
<!-- Generator: Adobe Illustrator 14.0.0, SVG Export Plug-In . SVG Version: 6.00 Build 43363)  -->
<!DOCTYPE svg PUBLIC "-//W3C//DTD SVG 1.1//EN" "http://www.w3.org/Graphics/SVG/1.1/DTD/svg11.dtd">
<svg version="1.1" id="Layer_1_copy" xmlns="http://www.w3.org/2000/svg" xmlns:xlink="http://www.w3.org/1999/xlink" x="0px"
	 y="0px" width="20px" height="20px" viewBox="0 0 20 20" enable-background="new 0 0 20 20" xml:space="preserve">
<g>
	<path d="M19.457,9.949h-2.371V7.501c0-0.3-0.242-0.543-0.543-0.543c-0.3,0-0.543,0.243-0.543,0.543v2.447h-2.457
		c-0.301,0-0.543,0.242-0.543,0.543c0,0.299,0.242,0.543,0.543,0.543H16v2.381c0,0.299,0.243,0.543,0.543,0.543
		c0.301,0,0.543-0.244,0.543-0.543v-2.381h2.371c0.3,0,0.543-0.244,0.543-0.543C20,10.191,19.757,9.949,19.457,9.949z"/>
	<path d="M7.5,10C9.985,10,12,7.985,12,5.5S9.985,1,7.5,1S3,3.015,3,5.5S5.015,10,7.5,10z M7.5,2C9.43,2,11,3.57,11,5.5
		S9.43,9,7.5,9S4,7.43,4,5.5S5.57,2,7.5,2z"/>
	<path d="M7.5,11.042c-4.142,0-7.5,3.357-7.5,7.5v0.438h1v-0.438c0-3.584,2.916-6.5,6.5-6.5s6.5,2.916,6.5,6.5v0.438h1v-0.438
		C15,14.399,11.643,11.042,7.5,11.042z"/>
</g>
</svg>
