<?xml version="1.0" encoding="utf-8"?>
<!-- Generator: Adobe Illustrator 14.0.0, SVG Export Plug-In . SVG Version: 6.00 Build 43363)  -->
<!DOCTYPE svg PUBLIC "-//W3C//DTD SVG 1.1//EN" "http://www.w3.org/Graphics/SVG/1.1/DTD/svg11.dtd">
<svg version="1.1" id="暠꿔_1" xmlns="http://www.w3.org/2000/svg" xmlns:xlink="http://www.w3.org/1999/xlink" x="0px" y="0px"
	 width="16px" height="15.988px" viewBox="0 0 16 15.988" enable-background="new 0 0 16 15.988" xml:space="preserve">
<g>
	<path fill="#C9C9C9" d="M1.219,14.393c-0.285,0-0.517-0.231-0.517-0.517V2.16c0-0.285,0.232-0.518,0.517-0.518h8.752l-0.053,0.25
		c-0.05,0.232-0.074,0.486-0.074,0.755c0,0.604,0.125,1.118,0.359,1.487l0.033,0.051v7.665l-0.033,0.051
		c-0.234,0.37-0.359,0.885-0.359,1.488c0,0.27,0.024,0.522,0.074,0.755l0.053,0.249H1.219z M2.498,2.852
		c-0.399,0-0.724,0.325-0.724,0.724v1.113c0,0.399,0.325,0.724,0.724,0.724h5.941c0.399,0,0.724-0.325,0.724-0.724V3.575
		c0-0.399-0.324-0.724-0.724-0.724H2.498z"/>
	<path fill="#609BC1" d="M2.498,5.205c-0.285,0-0.517-0.231-0.517-0.517V3.575c0-0.285,0.232-0.517,0.517-0.517h5.941
		c0.285,0,0.518,0.232,0.518,0.517v1.113c0,0.285-0.232,0.517-0.518,0.517H2.498z"/>
	<path fill="#B0B0B0" d="M11.514,15.364c-0.943,0-1.463-0.701-1.463-1.975s0.525-1.975,1.479-1.975c0.295,0,0.58,0.064,0.846,0.19
		l0.103,0.05l0.039-0.107c0.415-1.146,0.625-2.333,0.625-3.529c0-1.19-0.212-2.377-0.63-3.527l-0.039-0.107l-0.104,0.049
		c-0.265,0.125-0.547,0.188-0.84,0.188c-0.954,0-1.479-0.702-1.479-1.974c0-1.273,0.525-1.975,1.479-1.975
		c0.077,0,0.161,0.005,0.245,0.016c2.027,0.24,3.616,3.459,3.616,7.33c0,3.869-1.59,7.089-3.618,7.33
		C11.685,15.359,11.598,15.364,11.514,15.364L11.514,15.364z"/>
	<g>
		<g>
			<path fill="#604C55" d="M3.543,7.744c0,0.342-0.278,0.62-0.621,0.62l0,0c-0.343,0-0.621-0.278-0.621-0.62l0,0
				c0-0.343,0.277-0.621,0.621-0.621l0,0C3.265,7.123,3.543,7.401,3.543,7.744L3.543,7.744z"/>
			<path fill="#604C55" d="M6.104,7.744c0,0.342-0.278,0.62-0.621,0.62l0,0c-0.343,0-0.621-0.278-0.621-0.62l0,0
				c0-0.343,0.277-0.621,0.621-0.621l0,0C5.826,7.123,6.104,7.401,6.104,7.744L6.104,7.744z"/>
			<path fill="#604C55" d="M8.665,7.744c0,0.342-0.278,0.62-0.621,0.62l0,0c-0.343,0-0.621-0.278-0.621-0.62l0,0
				c0-0.343,0.278-0.621,0.621-0.621l0,0C8.386,7.123,8.665,7.401,8.665,7.744L8.665,7.744z"/>
			<path fill="#604C55" d="M3.543,9.89c0,0.343-0.278,0.621-0.621,0.621l0,0c-0.343,0-0.621-0.278-0.621-0.621l0,0
				c0-0.342,0.277-0.62,0.621-0.62l0,0C3.265,9.27,3.543,9.549,3.543,9.89L3.543,9.89z"/>
			<path fill="#604C55" d="M6.104,9.89c0,0.343-0.278,0.621-0.621,0.621l0,0c-0.343,0-0.621-0.278-0.621-0.621l0,0
				c0-0.342,0.277-0.62,0.621-0.62l0,0C5.826,9.27,6.104,9.549,6.104,9.89L6.104,9.89z"/>
			<path fill="#604C55" d="M8.665,9.89c0,0.343-0.278,0.621-0.621,0.621l0,0c-0.343,0-0.621-0.278-0.621-0.621l0,0
				c0-0.342,0.278-0.62,0.621-0.62l0,0C8.386,9.27,8.665,9.549,8.665,9.89L8.665,9.89z"/>
			<path fill="#604C55" d="M3.543,12.038c0,0.343-0.278,0.62-0.621,0.62l0,0c-0.343,0-0.621-0.277-0.621-0.62l0,0
				c0-0.343,0.277-0.621,0.621-0.621l0,0C3.265,11.417,3.543,11.695,3.543,12.038L3.543,12.038z"/>
			<path fill="#604C55" d="M6.104,12.038c0,0.343-0.278,0.62-0.621,0.62l0,0c-0.343,0-0.621-0.277-0.621-0.62l0,0
				c0-0.343,0.277-0.621,0.621-0.621l0,0C5.826,11.417,6.104,11.695,6.104,12.038L6.104,12.038z"/>
			<path fill="#604C55" d="M8.665,12.038c0,0.343-0.278,0.62-0.621,0.62l0,0c-0.343,0-0.621-0.277-0.621-0.62l0,0
				c0-0.343,0.278-0.621,0.621-0.621l0,0C8.386,11.417,8.665,11.695,8.665,12.038L8.665,12.038z"/>
		</g>
		<path fill="#604C55" d="M8.439,2.644H8.133h-5.21H2.498c-0.513,0-0.931,0.418-0.931,0.931v1.113c0,0.513,0.417,0.931,0.931,0.931
			h0.825h4.293h0.823c0.513,0,0.931-0.417,0.931-0.931V3.575C9.37,3.062,8.952,2.644,8.439,2.644z M8.749,4.688
			c0,0.171-0.139,0.31-0.31,0.31H2.923H2.498c-0.171,0-0.31-0.139-0.31-0.31V3.575c0-0.171,0.139-0.31,0.31-0.31h0.548h5.393
			c0.171,0,0.31,0.139,0.31,0.31V4.688z"/>
	</g>
	<path fill="#604C55" d="M11.824,0.278c-0.1-0.012-0.198-0.019-0.293-0.019c-0.748,0-1.305,0.356-1.614,0.994
		c-0.064-0.015-0.13-0.024-0.197-0.024h-8.5c-0.514,0-0.931,0.418-0.931,0.931v11.717c0,0.514,0.417,0.931,0.931,0.931h7.794l0,0
		h0.706c0.067,0,0.133-0.01,0.197-0.023c0.31,0.638,0.866,0.994,1.614,0.994c0.096,0,0.191-0.006,0.292-0.019
		c2.271-0.27,3.983-3.598,3.983-7.741C15.806,3.874,14.094,0.547,11.824,0.278z M10.65,4.827c0.252,0.135,0.547,0.208,0.881,0.208
		c0.238,0,0.472-0.035,0.696-0.103c0.334,1.011,0.503,2.047,0.503,3.086c0,1.043-0.168,2.08-0.497,3.088
		c-0.227-0.069-0.462-0.105-0.702-0.105c-0.334,0-0.629,0.074-0.881,0.209V4.827z M1.219,14.187c-0.171,0-0.311-0.141-0.311-0.311
		V2.16c0-0.171,0.14-0.311,0.311-0.311h8.498C9.665,2.092,9.637,2.358,9.637,2.647c0,0.658,0.138,1.198,0.392,1.599v7.545
		c-0.254,0.4-0.392,0.941-0.392,1.599c0,0.289,0.027,0.556,0.079,0.798H1.219z M11.749,15.143c-1.238,0.152-1.49-0.894-1.49-1.754
		c0-0.806,0.221-1.767,1.272-1.767c0.264,0,0.519,0.057,0.757,0.17l0.309,0.146l0.116-0.321c0.424-1.169,0.639-2.38,0.639-3.6
		c0-1.214-0.217-2.425-0.645-3.598l-0.117-0.32l-0.308,0.146c-0.235,0.112-0.489,0.168-0.751,0.168
		c-1.052,0-1.272-0.961-1.272-1.767c0-0.806,0.221-1.768,1.272-1.768c0.069,0,0.143,0.005,0.22,0.014
		c1.926,0.229,3.435,3.358,3.435,7.125S13.677,14.914,11.749,15.143z"/>
</g>
</svg>
