<?xml version="1.0" encoding="utf-8"?>
<!-- Generator: Adobe Illustrator 14.0.0, SVG Export Plug-In . SVG Version: 6.00 Build 43363)  -->
<!DOCTYPE svg PUBLIC "-//W3C//DTD SVG 1.1//EN" "http://www.w3.org/Graphics/SVG/1.1/DTD/svg11.dtd">
<svg version="1.1" id="Layer_1" xmlns="http://www.w3.org/2000/svg" xmlns:xlink="http://www.w3.org/1999/xlink" x="0px" y="0px"
	 width="53.813px" height="53.813px" viewBox="0 0 53.813 53.813" enable-background="new 0 0 53.813 53.813" xml:space="preserve">
<g>
	<linearGradient id="SVGID_1_" gradientUnits="userSpaceOnUse" x1="26.9063" y1="53.2549" x2="26.9062" y2="-1.4287">
		<stop  offset="0" style="stop-color:#F99D2A"/>
		<stop  offset="1" style="stop-color:#FEBD36"/>
	</linearGradient>
	<path fill-rule="evenodd" clip-rule="evenodd" fill="url(#SVGID_1_)" d="M11.944,0h29.925c6.569,0,11.943,5.375,11.943,11.944
		v29.925c0,6.568-5.374,11.943-11.943,11.943H11.944C5.375,53.813,0,48.438,0,41.869V11.944C0,5.375,5.375,0,11.944,0z"/>
	<polygon fill-rule="evenodd" clip-rule="evenodd" fill="#FFFFFF" points="18.426,9.361 18.426,10.621 21.547,10.621 19.531,14.219 
		18.313,16.333 23.647,16.333 23.647,15.102 20.483,15.102 23.773,9.361 	"/>
	<path fill-rule="evenodd" clip-rule="evenodd" fill="#FFFFFF" d="M26.668,9.324h-1.26v7.009h1.26V9.324L26.668,9.324z
		 M25.366,7.275c0,0.363,0.294,0.658,0.658,0.658c0.35,0,0.658-0.295,0.658-0.658c0-0.351-0.309-0.658-0.658-0.658
		C25.66,6.617,25.366,6.925,25.366,7.275z"/>
	<path fill-rule="evenodd" clip-rule="evenodd" fill="#FFFFFF" d="M29.857,19.806v-4.257c0.602,0.49,1.33,0.784,2.17,0.784
		c1.862,0,3.388-1.552,3.388-3.493c0-1.927-1.525-3.507-3.388-3.507c-0.84,0-1.568,0.294-2.17,0.784V9.333h-1.26v10.473H29.857
		L29.857,19.806z M32.027,10.607c1.189,0,2.156,1.003,2.156,2.232c0,1.216-0.967,2.22-2.156,2.22c-1.12,0-2.016-0.838-2.17-1.939
		v-0.574C30.012,11.473,30.907,10.607,32.027,10.607z"/>
	<path fill-rule="evenodd" clip-rule="evenodd" fill="#FFD888" d="M23.93,37.084v-2.977h2.977v2.977H23.93L23.93,37.084z
		 M23.93,31.131v-2.977h2.977v2.977H23.93L23.93,31.131z M23.93,25.179v-2.977h2.977v2.977H23.93z"/>
	<path fill-rule="evenodd" clip-rule="evenodd" fill="#FFD888" d="M26.906,34.107v-2.977h2.977v2.977H26.906L26.906,34.107z
		 M26.906,28.154v-2.976h2.977v2.976H26.906z"/>
	<path fill-rule="evenodd" clip-rule="evenodd" fill="#FFFFFF" d="M23.93,37.084h5.953v10.417H23.93V37.084L23.93,37.084z
		 M25.418,41.549h2.977v-2.977h-2.977V41.549z"/>
</g>
</svg>
