<?xml version="1.0" encoding="utf-8"?>
<!-- Generator: Adobe Illustrator 14.0.0, SVG Export Plug-In . SVG Version: 6.00 Build 43363)  -->
<!DOCTYPE svg PUBLIC "-//W3C//DTD SVG 1.1//EN" "http://www.w3.org/Graphics/SVG/1.1/DTD/svg11.dtd">
<svg version="1.1" id="Layer_1" xmlns="http://www.w3.org/2000/svg" xmlns:xlink="http://www.w3.org/1999/xlink" x="0px" y="0px"
	 width="19px" height="19px" viewBox="0 0 19 19" enable-background="new 0 0 19 19" xml:space="preserve">
<path display="none" d="M19.287,9.286h-8.573V0.713C10.714,0.32,10.395,0,10,0C9.606,0,9.286,0.32,9.286,0.713v8.573H0.713
	C0.32,9.286,0,9.606,0,10s0.32,0.714,0.713,0.714h8.573v8.573C9.286,19.679,9.606,20,10,20c0.395,0,0.714-0.321,0.714-0.713v-8.573
	h8.573C19.682,10.714,20,10.394,20,10S19.682,9.286,19.287,9.286z"/>
<g>
	<path d="M9.5,19C9.224,19,9,18.776,9,18.5v-18C9,0.224,9.224,0,9.5,0S10,0.224,10,0.5v18C10,18.776,9.776,19,9.5,19L9.5,19z"/>
</g>
<g>
	<path d="M19,9.5c0,0.276-0.224,0.5-0.5,0.5h-18C0.224,10,0,9.776,0,9.5S0.224,9,0.5,9h18C18.776,9,19,9.224,19,9.5L19,9.5z"/>
</g>
</svg>
