<?xml version="1.0" encoding="utf-8"?>
<!-- Generator: Adobe Illustrator 14.0.0, SVG Export Plug-In . SVG Version: 6.00 Build 43363)  -->
<!DOCTYPE svg PUBLIC "-//W3C//DTD SVG 1.1//EN" "http://www.w3.org/Graphics/SVG/1.1/DTD/svg11.dtd">
<svg version="1.1" id="Layer_1" xmlns="http://www.w3.org/2000/svg" xmlns:xlink="http://www.w3.org/1999/xlink" x="0px" y="0px"
	 width="16px" height="16px" viewBox="0 0 16 16" enable-background="new 0 0 16 16" xml:space="preserve">
<path d="M8.707,8l7.146-7.146c0.195-0.195,0.195-0.512,0-0.707s-0.512-0.195-0.707,0L8,7.293L0.854,0.146
	c-0.195-0.195-0.512-0.195-0.707,0s-0.195,0.512,0,0.707L7.293,8l-7.146,7.146c-0.195,0.195-0.195,0.512,0,0.707
	C0.244,15.951,0.372,16,0.5,16s0.256-0.049,0.354-0.146L8,8.707l7.146,7.146C15.244,15.951,15.372,16,15.5,16
	s0.256-0.049,0.354-0.146c0.195-0.195,0.195-0.512,0-0.707L8.707,8z"/>
</svg>
