<?xml version="1.0" encoding="utf-8"?>
<!-- Generator: Adobe Illustrator 14.0.0, SVG Export Plug-In . SVG Version: 6.00 Build 43363)  -->
<!DOCTYPE svg PUBLIC "-//W3C//DTD SVG 1.1//EN" "http://www.w3.org/Graphics/SVG/1.1/DTD/svg11.dtd">
<svg version="1.1" id="暠꿔_1" xmlns="http://www.w3.org/2000/svg" xmlns:xlink="http://www.w3.org/1999/xlink" x="0px" y="0px"
	 width="16px" height="15.988px" viewBox="0 0 16 15.988" enable-background="new 0 0 16 15.988" xml:space="preserve">
<g>
	<path fill="#C9C9C9" d="M3.156,5.002l-0.22,0c-0.193,0-0.351-0.158-0.351-0.352l0.001-3.693c0-0.194,0.158-0.352,0.352-0.352
		l4.737,0.001c0.195,0,0.352,0.158,0.352,0.352l0,0.285L7.953,1.305C7.811,1.424,7.73,1.595,7.73,1.774L7.729,5.003L4.616,5.002
		l-1.46,0.973V5.002z"/>
	<path fill="#609BC1" d="M0.594,15.316l0.092-0.271c0.1-0.301,0.282-0.555,0.498-0.699l1.865-1.238l0.165,0.054
		c0.096,0.029,0.204,0.055,0.331,0.076l0.302,0.051l0,2.029L0.594,15.316z"/>
	<path fill="#D5D5D5" d="M11.747,6.339L8.346,6.338c-0.226,0-0.408-0.183-0.408-0.409l0.001-4.155c0-0.226,0.183-0.409,0.408-0.409
		l5.295,0.001c0.225,0,0.408,0.183,0.408,0.409L14.05,5.931C14.049,6.156,13.865,6.34,13.64,6.34h-0.234v1.106L11.747,6.339z"/>
	<path fill="#609BC1" d="M4.072,15.317l0-2.029l0.302-0.051c0.126-0.021,0.235-0.047,0.33-0.076l0.166-0.053l1.865,1.239
		c0.216,0.145,0.397,0.398,0.498,0.699l0.091,0.271L4.072,15.317z"/>
	<path fill="#CDBBA4" d="M3.959,13.05c-1.245-0.001-2.258-1.015-2.258-2.259c0-1.246,1.014-2.26,2.259-2.259
		c1.246,0.001,2.259,1.015,2.259,2.261C6.219,12.037,5.205,13.05,3.959,13.05z"/>
	<path fill="#6B7378" d="M8.575,15.318l0.091-0.271c0.102-0.301,0.282-0.555,0.498-0.699l1.867-1.237l0.164,0.053
		c0.097,0.029,0.205,0.055,0.331,0.076l0.302,0.051l-0.001,2.029L8.575,15.318z"/>
	<path fill="#6B7378" d="M12.052,15.319l0.001-2.029l0.303-0.051c0.126-0.021,0.235-0.047,0.331-0.076l0.165-0.053l1.863,1.239
		c0.217,0.145,0.398,0.398,0.498,0.699l0.092,0.271L12.052,15.319z"/>
	<path fill="#CDBBA4" d="M11.941,13.052c-1.246,0-2.26-1.015-2.26-2.259c0.001-1.246,1.015-2.259,2.261-2.259
		c1.246,0.001,2.259,1.015,2.258,2.261C14.2,12.039,13.187,13.052,11.941,13.052z"/>
	<g>
		<g>
			<circle fill="#604C55" cx="9.401" cy="3.923" r="0.311"/>
			<circle fill="#604C55" cx="10.994" cy="3.923" r="0.311"/>
			<circle fill="#604C55" cx="12.587" cy="3.924" r="0.311"/>
		</g>
		<g>
			<circle fill="#604C55" cx="3.635" cy="2.85" r="0.311"/>
			<circle fill="#604C55" cx="5.229" cy="2.851" r="0.311"/>
		</g>
	</g>
	<path fill="#604C55" d="M6.975,13.988l-1.477-0.981l0.163-0.133c0.629-0.515,0.99-1.272,0.991-2.081
		c0-1.484-1.207-2.692-2.691-2.693c-1.483,0-2.691,1.207-2.691,2.691c0,0.809,0.36,1.566,0.989,2.082l0.163,0.133l-1.476,0.98
		c-0.452,0.301-0.75,0.889-0.766,1.447c-0.002,0.1,0.126,0.299,0.406,0.299c0.28,0,6.493,0.002,6.747,0.002s0.409-0.207,0.405-0.311
		C7.719,14.869,7.422,14.285,6.975,13.988z M1.908,10.791c0-1.131,0.921-2.053,2.052-2.052c1.132,0,2.052,0.923,2.052,2.054
		c0,1.131-0.921,2.05-2.053,2.05C2.829,12.842,1.908,11.922,1.908,10.791z M0.882,15.111c0.081-0.242,0.23-0.469,0.416-0.592
		l1.783-1.184l0.071,0.021c0.105,0.034,0.222,0.062,0.358,0.085l0.13,0.021l0,1.648L0.882,15.111z M4.279,13.464l0.129-0.021
		c0.136-0.023,0.253-0.051,0.358-0.084l0.071-0.021l1.783,1.185c0.186,0.123,0.334,0.35,0.415,0.592l-2.757-0.001L4.279,13.464z"/>
	<path fill="#604C55" d="M14.956,13.99l-1.476-0.981l0.162-0.133c0.629-0.515,0.989-1.272,0.989-2.081
		c0.001-1.484-1.206-2.692-2.689-2.693c-1.484,0-2.691,1.207-2.692,2.691c0,0.809,0.36,1.566,0.989,2.083l0.163,0.133l-1.477,0.979
		c-0.451,0.301-0.75,0.889-0.765,1.447c-0.002,0.102,0.126,0.299,0.406,0.299c0.28,0,6.493,0.002,6.747,0.002
		c0.255,0,0.41-0.207,0.406-0.311C15.7,14.871,15.402,14.287,14.956,13.99z M9.888,10.793c0.001-1.131,0.922-2.052,2.054-2.052
		c1.131,0,2.052,0.923,2.051,2.054c0,1.131-0.921,2.05-2.052,2.05C10.809,12.844,9.888,11.924,9.888,10.793z M8.863,15.113
		c0.081-0.242,0.229-0.469,0.416-0.592l1.783-1.183l0.07,0.021c0.106,0.033,0.223,0.061,0.359,0.084l0.13,0.021l-0.001,1.648
		L8.863,15.113z M12.26,13.466l0.13-0.021c0.136-0.023,0.253-0.051,0.358-0.084l0.07-0.021l1.782,1.185
		c0.186,0.123,0.334,0.35,0.415,0.592l-2.757-0.001L12.26,13.466z"/>
	<path fill="#604C55" d="M13.642,0.951L8.44,0.95C8.435,0.531,8.095,0.192,7.675,0.192L2.938,0.191
		c-0.422,0-0.766,0.344-0.766,0.766L2.171,4.65c0,0.352,0.236,0.653,0.57,0.741v0.625c0,0.228,0.162,0.4,0.376,0.4
		c0.081,0,0.161-0.025,0.233-0.074L4.74,5.416l2.781,0.001v0.513c0,0.454,0.37,0.824,0.824,0.824l3.276,0.001l1.573,1.05
		c0.076,0.05,0.159,0.077,0.241,0.077c0.219,0,0.385-0.177,0.385-0.412V6.735c0.375-0.083,0.643-0.415,0.644-0.804l0.001-4.155
		C14.466,1.321,14.096,0.951,13.642,0.951z M4.553,4.794l-1.19,0.793l0-0.793l-0.427,0c-0.08,0-0.145-0.064-0.145-0.144l0.001-3.693
		c0-0.08,0.065-0.145,0.145-0.145l4.737,0.001c0.081,0,0.145,0.065,0.145,0.145l0,0.188C7.64,1.298,7.523,1.522,7.523,1.774l0,3.021
		L4.553,4.794z M13.843,5.931c-0.001,0.111-0.092,0.201-0.202,0.201h-0.441v0.926l-1.376-0.917l-0.014-0.01L8.346,6.131
		c-0.111,0-0.202-0.09-0.202-0.201l0.001-4.155c0-0.111,0.091-0.202,0.202-0.202l5.295,0.001c0.11,0,0.201,0.09,0.201,0.202
		L13.843,5.931z"/>
</g>
</svg>
