<?xml version="1.0" encoding="utf-8"?>
<!-- Generator: Adobe Illustrator 14.0.0, SVG Export Plug-In . SVG Version: 6.00 Build 43363)  -->
<!DOCTYPE svg PUBLIC "-//W3C//DTD SVG 1.1//EN" "http://www.w3.org/Graphics/SVG/1.1/DTD/svg11.dtd">
<svg version="1.1" id="Layer_1" xmlns="http://www.w3.org/2000/svg" xmlns:xlink="http://www.w3.org/1999/xlink" x="0px" y="0px"
	 width="53.813px" height="53.813px" viewBox="0 0 53.813 53.813" enable-background="new 0 0 53.813 53.813" xml:space="preserve">
<g>
	<linearGradient id="SVGID_1_" gradientUnits="userSpaceOnUse" x1="26.9063" y1="53.2441" x2="26.9062" y2="-2.4529">
		<stop  offset="0" style="stop-color:#177DBB"/>
		<stop  offset="0.28" style="stop-color:#2B87C8"/>
		<stop  offset="1" style="stop-color:#328FCE"/>
	</linearGradient>
	<path fill-rule="evenodd" clip-rule="evenodd" fill="url(#SVGID_1_)" d="M11.944,0h29.925c6.569,0,11.944,5.375,11.944,11.944
		v29.925c0,6.568-5.375,11.943-11.944,11.943H11.944C5.375,53.813,0,48.438,0,41.869V11.944C0,5.375,5.375,0,11.944,0z"/>
	<path fill-rule="evenodd" clip-rule="evenodd" fill="#FFFFFF" d="M19.046,12.662c-0.182-1.783-1.554-3.211-3.248-3.211
		c-0.742,0-1.414,0.28-1.974,0.728V5.825h-1.302v10.485l0.056,0.015h1.232l0.014-4.016c0.28-0.898,1.036-1.57,1.974-1.57
		c0.952,0,1.708,0.658,1.974,1.599v3.987h1.246C19.046,13.067,19.046,12.857,19.046,12.662L19.046,12.662z M23.625,9.297V5.825
		h-1.302v3.472h-1.904v1.33h1.904v5.698h1.302v-5.698h1.834v-1.33H23.625L23.625,9.297z M38.31,12.578
		c-0.07-0.563-0.209-1.108-0.504-1.573c-0.602-1.008-1.596-1.708-2.786-1.708c-1.12,0-2.086,0.588-2.688,1.47
		c-0.602-0.882-1.554-1.47-2.618-1.47c-0.728,0-1.414,0.252-1.96,0.7v-0.7h-1.288v7.028h1.288v-4.31
		c0.322-0.843,1.064-1.389,1.96-1.389c0.952,0,1.722,0.645,2.002,1.599l-0.042,3.987v0.084h1.288v-4.002
		c0.266-0.996,1.064-1.668,2.058-1.668c0.952,0,1.722,0.645,2.016,1.599v4.071h1.26L38.31,12.578L38.31,12.578z M40.718,5.839H39.43
		v10.486h1.288V5.839z"/>
	<path fill="#7CB6E3" d="M25.765,44.729l-2.875-0.771l5.158-19.25l2.875,0.771L25.765,44.729z M32.641,40.763l-1.719-2.431
		l5.11-3.612l-5.11-3.613l1.719-2.431l8.546,6.044L32.641,40.763z M21.172,40.763l-8.547-6.043l8.547-6.044l1.719,2.431l-5.11,3.613
		l5.11,3.612L21.172,40.763z"/>
</g>
</svg>
