<?xml version="1.0" encoding="utf-8"?>
<!-- Generator: Adobe Illustrator 14.0.0, SVG Export Plug-In . SVG Version: 6.00 Build 43363)  -->
<!DOCTYPE svg PUBLIC "-//W3C//DTD SVG 1.1//EN" "http://www.w3.org/Graphics/SVG/1.1/DTD/svg11.dtd">
<svg version="1.1" id="Layer_1" xmlns="http://www.w3.org/2000/svg" xmlns:xlink="http://www.w3.org/1999/xlink" x="0px" y="0px"
	 width="15.953px" height="16px" viewBox="-0.675 -1.201 15.953 16" enable-background="new -0.675 -1.201 15.953 16"
	 xml:space="preserve">
<path fill="#4C4C4C" d="M15.164,13.902l-4.062-4.221c0.771-0.931,1.307-2.079,1.475-3.364c0.476-3.638-2.098-6.985-5.735-7.461
	C3.202-1.62-0.141,0.952-0.618,4.59c-0.476,3.638,2.096,6.984,5.734,7.461c1.954,0.257,3.821-0.377,5.208-1.575l4.053,4.206
	c0.176,0.179,0.495,0.148,0.713-0.064C15.309,14.399,15.343,14.083,15.164,13.902z M5.26,10.951
	C2.23,10.555,0.085,7.764,0.482,4.734c0.396-3.031,3.186-5.175,6.217-4.777c3.032,0.396,5.174,3.184,4.778,6.215
	C11.081,9.203,8.29,11.349,5.26,10.951z"/>
</svg>
