<?xml version="1.0" encoding="utf-8"?>
<!-- Generator: Adobe Illustrator 14.0.0, SVG Export Plug-In . SVG Version: 6.00 Build 43363)  -->
<!DOCTYPE svg PUBLIC "-//W3C//DTD SVG 1.1//EN" "http://www.w3.org/Graphics/SVG/1.1/DTD/svg11.dtd">
<svg version="1.1" id="Layer_1" xmlns="http://www.w3.org/2000/svg" xmlns:xlink="http://www.w3.org/1999/xlink" x="0px" y="0px"
	 width="19.743px" height="19.386px" viewBox="0 0 19.743 19.386" enable-background="new 0 0 19.743 19.386" xml:space="preserve">
<path d="M19.506,19.167c0.312-0.416,0.392-1.033-0.227-1.601l-4.104-4.063c1.212-1.688,1.777-3.335,1.777-5.113
	c0-4.626-3.805-8.39-8.478-8.39C3.802,0,0,3.764,0,8.391c0,4.625,3.802,8.389,8.476,8.389c1.876,0,3.835-0.844,5.241-1.868
	l4.082,4.043C18.774,19.78,19.506,19.167,19.506,19.167z M8.476,15.731c-4.09,0-7.417-3.293-7.417-7.34
	c0-4.049,3.327-7.342,7.417-7.342c4.091,0,7.419,3.293,7.419,7.342C15.896,12.438,12.567,15.731,8.476,15.731z"/>
</svg>
