<?xml version="1.0" encoding="utf-8"?>
<!-- Generator: Adobe Illustrator 14.0.0, SVG Export Plug-In . SVG Version: 6.00 Build 43363)  -->
<!DOCTYPE svg PUBLIC "-//W3C//DTD SVG 1.1//EN" "http://www.w3.org/Graphics/SVG/1.1/DTD/svg11.dtd">
<svg version="1.1" id="Layer_1" xmlns="http://www.w3.org/2000/svg" xmlns:xlink="http://www.w3.org/1999/xlink" x="0px" y="0px"
	 width="53.813px" height="53.813px" viewBox="0 0 53.813 53.813" enable-background="new 0 0 53.813 53.813" xml:space="preserve">
<g>
	<linearGradient id="SVGID_1_" gradientUnits="userSpaceOnUse" x1="26.9063" y1="1.0928" x2="26.9063" y2="53.5425">
		<stop  offset="0" style="stop-color:#54C1EF"/>
		<stop  offset="1" style="stop-color:#489FD8"/>
	</linearGradient>
	<path fill-rule="evenodd" clip-rule="evenodd" fill="url(#SVGID_1_)" d="M11.944,0h29.925c6.569,0,11.944,5.375,11.944,11.943
		v29.926c0,6.568-5.375,11.943-11.944,11.943H11.944C5.375,53.813,0,48.438,0,41.869V11.943C0,5.375,5.375,0,11.944,0z"/>
	<path fill-rule="evenodd" clip-rule="evenodd" fill="#FFFFFF" d="M25.402,12.577c-0.07-0.562-0.21-1.108-0.504-1.572
		c-0.602-1.008-1.596-1.708-2.786-1.708c-1.12,0-2.086,0.588-2.688,1.47c-0.602-0.882-1.554-1.47-2.618-1.47
		c-0.728,0-1.414,0.252-1.96,0.7v-0.7h-1.288v7.028h1.288v-4.31c0.322-0.843,1.064-1.389,1.96-1.389
		c0.952,0,1.722,0.644,2.002,1.599l-0.042,3.987v0.084h1.288v-4.002c0.266-0.996,1.064-1.668,2.058-1.668
		c0.952,0,1.722,0.644,2.016,1.599v4.071h1.26L25.402,12.577L25.402,12.577z M27.726,19.797v-4.256
		c0.602,0.49,1.33,0.784,2.17,0.784c1.862,0,3.388-1.552,3.388-3.493c0-1.928-1.526-3.507-3.388-3.507
		c-0.84,0-1.568,0.294-2.17,0.784V9.325h-1.26v10.472H27.726L27.726,19.797z M29.896,10.599c1.19,0,2.156,1.004,2.156,2.233
		c0,1.216-0.966,2.219-2.156,2.219c-1.12,0-2.016-0.838-2.17-1.938v-0.574C27.88,11.465,28.776,10.599,29.896,10.599L29.896,10.599z
		 M38.982,10.921c0.462-0.49,0.77-1.134,0.77-1.848c0-1.4-1.106-2.534-2.478-2.534c-1.358,0-2.478,1.134-2.478,2.534h1.176
		c0-0.742,0.588-1.345,1.302-1.345c0.728,0,1.288,0.603,1.288,1.333c0,0.686-0.504,1.262-1.162,1.332l-0.126-0.002v1.206
		c0.966,0,1.778,0.786,1.778,1.74c0,0.971-0.812,1.741-1.778,1.741c-0.966,0-1.736-0.714-1.778-1.654H34.25
		c0.042,1.612,1.386,2.872,3.024,2.872c1.666,0,3.024-1.316,3.024-2.954c0-1.01-0.518-1.911-1.316-2.432V10.921z"/>
	<path fill-rule="evenodd" clip-rule="evenodd" fill="#FFFFFF" d="M24.609,33.686c1.143,0,2.212,0.314,3.127,0.861v-9.918v-1.487
		h1.488c0.814,0,1.599,0.165,2.32,0.464c0.754,0.313,1.425,0.763,1.98,1.317s1.005,1.226,1.317,1.979
		c0.299,0.722,0.464,1.506,0.464,2.32v6.499H32.33v-6.499c0-0.43-0.083-0.832-0.232-1.192c-0.153-0.37-0.385-0.711-0.678-1.003
		c-0.213-0.213-0.451-0.395-0.708-0.536v13.298c0,3.37-2.732,6.103-6.103,6.103s-6.103-2.732-6.103-6.103
		C18.506,36.418,21.239,33.686,24.609,33.686z"/>
</g>
</svg>
