<?xml version="1.0" encoding="utf-8"?>
<!-- Generator: Adobe Illustrator 14.0.0, SVG Export Plug-In . SVG Version: 6.00 Build 43363)  -->
<!DOCTYPE svg PUBLIC "-//W3C//DTD SVG 1.1//EN" "http://www.w3.org/Graphics/SVG/1.1/DTD/svg11.dtd">
<svg version="1.1" id="Layer_1" xmlns="http://www.w3.org/2000/svg" xmlns:xlink="http://www.w3.org/1999/xlink" x="0px" y="0px"
	 width="53.813px" height="53.813px" viewBox="0 0 53.813 53.813" enable-background="new 0 0 53.813 53.813" xml:space="preserve">
<g>
	<linearGradient id="SVGID_1_" gradientUnits="userSpaceOnUse" x1="26.9063" y1="53.2549" x2="26.9062" y2="-1.4283">
		<stop  offset="0" style="stop-color:#C05827"/>
		<stop  offset="1" style="stop-color:#F7922F"/>
	</linearGradient>
	<path fill-rule="evenodd" clip-rule="evenodd" fill="url(#SVGID_1_)" d="M11.944,0h29.925c6.569,0,11.943,5.375,11.943,11.944
		v29.925c0,6.568-5.374,11.943-11.943,11.943H11.944C5.375,53.813,0,48.438,0,41.869V11.944C0,5.375,5.375,0,11.944,0z"/>
	<polygon fill-rule="evenodd" clip-rule="evenodd" fill="#FFFFFF" points="23.322,29.267 27.869,31.892 32.416,34.517 
		27.869,37.142 23.322,39.767 23.322,34.517 	"/>
	<path fill="#FBB35B" d="M26.906,46.373c-6.538,0-11.856-5.318-11.856-11.856S20.368,22.66,26.906,22.66s11.857,5.319,11.857,11.857
		S33.444,46.373,26.906,46.373z M26.906,25.636c-4.896,0-8.88,3.984-8.88,8.881c0,4.896,3.983,8.881,8.88,8.881
		c4.897,0,8.881-3.984,8.881-8.881C35.787,29.62,31.804,25.636,26.906,25.636z"/>
	<g>
		<path fill="#FFFFFF" d="M20.504,9.713h1.345l-2.053,6.612h-1.439l-1.332-4.884l-1.332,4.884h-1.44l-2.063-6.612h1.392l1.38,5.316
			l1.404-5.316h1.428l1.345,5.292L20.504,9.713z"/>
		<path fill="#FFFFFF" d="M24.236,9.713v1.044c0.44-0.768,1.145-1.152,2.112-1.152c0.512,0,0.968,0.12,1.368,0.36
			c0.399,0.24,0.704,0.588,0.912,1.044c0.231-0.44,0.554-0.784,0.966-1.032c0.412-0.248,0.878-0.372,1.398-0.372
			c0.76,0,1.384,0.246,1.872,0.738c0.487,0.492,0.731,1.186,0.731,2.082v3.9h-1.368v-3.696c0-0.592-0.147-1.046-0.443-1.362
			c-0.297-0.316-0.7-0.474-1.213-0.474c-0.512,0-0.916,0.158-1.212,0.474c-0.296,0.316-0.443,0.77-0.443,1.362v3.696h-1.356v-3.696
			c0-0.592-0.147-1.046-0.443-1.362c-0.297-0.316-0.7-0.474-1.213-0.474c-0.512,0-0.918,0.158-1.218,0.474
			c-0.3,0.316-0.45,0.77-0.45,1.362v3.696h-1.367V9.713H24.236z"/>
		<path fill="#FFFFFF" d="M34.557,9.713h1.464l1.872,5.388l1.872-5.388h1.476l-2.52,6.612h-1.656L34.557,9.713z"/>
	</g>
</g>
</svg>
