<?xml version="1.0" encoding="utf-8"?>
<!-- Generator: Adobe Illustrator 14.0.0, SVG Export Plug-In . SVG Version: 6.00 Build 43363)  -->
<!DOCTYPE svg PUBLIC "-//W3C//DTD SVG 1.1//EN" "http://www.w3.org/Graphics/SVG/1.1/DTD/svg11.dtd">
<svg version="1.1" id="Layer_1" xmlns="http://www.w3.org/2000/svg" xmlns:xlink="http://www.w3.org/1999/xlink" x="0px" y="0px"
	 width="16px" height="16px" viewBox="0.481 2 16 16" enable-background="new 0.481 2 16 16" xml:space="preserve">
<path fill="#4D4E4E" d="M5.275,18.002c-0.566,0-1.16-0.149-1.763-0.453c-0.048-0.023-1.254-0.625-1.676-1.968
	c-0.297-0.95-0.126-2.012,0.511-3.157l4.439-7.969C7.4,3.352,8.35,2.55,9.461,2.196c1.118-0.355,2.31-0.229,3.356,0.353l0.089,0.049
	c1.072,0.597,1.848,1.577,2.184,2.759c0.337,1.183,0.193,2.424-0.403,3.495l-3.982,7.15c-0.083,0.152-0.275,0.207-0.427,0.122
	s-0.205-0.274-0.12-0.427l3.981-7.151c0.515-0.924,0.639-1.996,0.348-3.018c-0.29-1.02-0.96-1.868-1.885-2.382l-0.088-0.05
	c-0.896-0.498-1.911-0.605-2.861-0.303C8.693,3.098,7.87,3.797,7.334,4.759L2.896,12.73c-0.549,0.984-0.704,1.879-0.463,2.657
	c0.337,1.081,1.349,1.594,1.358,1.599c1.637,0.824,3.127,0.304,4.092-1.43l4.458-8.009c0.249-0.447,0.31-0.963,0.17-1.456
	c-0.141-0.493-0.464-0.9-0.911-1.149l-0.089-0.05c-0.43-0.241-0.885-0.28-1.317-0.116C9.771,4.938,9.394,5.287,9.13,5.759
	l-4.002,7.188c-0.083,0.151-0.275,0.206-0.426,0.12C4.55,12.983,4.495,12.791,4.58,12.64l4.002-7.187
	C8.917,4.852,9.41,4.403,9.97,4.191c0.604-0.228,1.26-0.175,1.849,0.153l0.089,0.05c0.593,0.33,1.021,0.872,1.208,1.525
	c0.187,0.653,0.106,1.34-0.224,1.934l-4.46,8.009C7.65,17.267,6.532,18.002,5.275,18.002z"/>
</svg>
