<?xml version="1.0" encoding="utf-8"?>
<!-- Generator: Adobe Illustrator 14.0.0, SVG Export Plug-In . SVG Version: 6.00 Build 43363)  -->
<!DOCTYPE svg PUBLIC "-//W3C//DTD SVG 1.1//EN" "http://www.w3.org/Graphics/SVG/1.1/DTD/svg11.dtd">
<svg version="1.1" id="Layer_1" xmlns="http://www.w3.org/2000/svg" xmlns:xlink="http://www.w3.org/1999/xlink" x="0px" y="0px"
	 width="53.813px" height="53.813px" viewBox="0 0 53.813 53.813" enable-background="new 0 0 53.813 53.813" xml:space="preserve">
<g>
	<path fill-rule="evenodd" clip-rule="evenodd" fill="#F4F4F4" d="M11.943,0h29.925c6.569,0,11.944,5.375,11.944,11.944v29.925
		c0,6.569-5.375,11.944-11.944,11.944H11.943C5.375,53.813,0,48.438,0,41.869V11.944C0,5.375,5.375,0,11.943,0z"/>
	<path fill-rule="evenodd" clip-rule="evenodd" fill="#19AFE6" d="M21.377,9.297V5.825h-1.302v3.472h-1.904v1.33h1.904v5.698h1.302
		v-5.698h1.834v-1.33H21.377L21.377,9.297z M28.419,14.271l-0.84-1.467l1.974-3.451h-1.414l-1.246,2.221l-1.246-2.221h-1.4
		l1.974,3.451l-0.826,1.467l-1.204,2.053h1.302h0.098v-0.084l1.302-2.263l1.302,2.263v0.084h1.428L28.419,14.271L28.419,14.271z
		 M33.809,9.297V5.825h-1.302v3.472h-1.904v1.33h1.904v5.698h1.302v-5.698h1.834v-1.33H33.809z"/>
	<path fill-rule="evenodd" clip-rule="evenodd" fill="#19AFE6" d="M9.91,23.965h33.992v2.977H9.91V23.965L9.91,23.965z M9.91,30.01
		h33.992v2.977H9.91V30.01L9.91,30.01z M9.91,36.054h33.992v2.977H9.91V36.054L9.91,36.054z M9.91,42.099h16.996v2.977H9.91V42.099z
		"/>
</g>
</svg>
