<?xml version="1.0" encoding="utf-8"?>
<!-- Generator: Adobe Illustrator 14.0.0, SVG Export Plug-In . SVG Version: 6.00 Build 43363)  -->
<!DOCTYPE svg PUBLIC "-//W3C//DTD SVG 1.1//EN" "http://www.w3.org/Graphics/SVG/1.1/DTD/svg11.dtd">
<svg version="1.1" id="Layer_1" xmlns="http://www.w3.org/2000/svg" xmlns:xlink="http://www.w3.org/1999/xlink" x="0px" y="0px"
	 width="53.813px" height="53.813px" viewBox="0 0 53.813 53.813" enable-background="new 0 0 53.813 53.813" xml:space="preserve">
<g>
	<linearGradient id="SVGID_1_" gradientUnits="userSpaceOnUse" x1="26.9063" y1="53.2441" x2="26.9062" y2="-2.4529">
		<stop  offset="0" style="stop-color:#4F6BB3"/>
		<stop  offset="1" style="stop-color:#617ABC"/>
	</linearGradient>
	<path fill-rule="evenodd" clip-rule="evenodd" fill="url(#SVGID_1_)" d="M11.944,0h29.925c6.569,0,11.944,5.375,11.944,11.944
		v29.925c0,6.568-5.375,11.943-11.944,11.943H11.944C5.375,53.813,0,48.438,0,41.869V11.944C0,5.375,5.375,0,11.944,0z"/>
	<path fill="#AAB4DC" d="M25.765,44.729l-2.875-0.771l5.158-19.25l2.875,0.771L25.765,44.729z M32.641,40.763l-1.719-2.431
		l5.11-3.612l-5.11-3.613l1.719-2.431l8.546,6.044L32.641,40.763z M21.172,40.763l-8.547-6.043l8.547-6.044l1.719,2.431l-5.11,3.613
		l5.11,3.612L21.172,40.763z"/>
	<g>
		<path fill="#FFFFFF" d="M14.634,9.713h1.368v7.908c0,1.232-0.632,1.848-1.896,1.848h-0.708v-1.151h0.468
			c0.28,0,0.478-0.054,0.594-0.162c0.116-0.108,0.174-0.286,0.174-0.534V9.713z M16.194,7.961c0,0.248-0.084,0.456-0.252,0.624
			s-0.374,0.252-0.618,0.252s-0.45-0.084-0.618-0.252s-0.252-0.376-0.252-0.624s0.084-0.456,0.252-0.624s0.374-0.252,0.618-0.252
			s0.45,0.084,0.618,0.252S16.194,7.713,16.194,7.961z"/>
		<path fill="#FFFFFF" d="M18.247,15.467c-0.6-0.644-0.9-1.468-0.9-2.472s0.298-1.819,0.894-2.448
			c0.596-0.628,1.338-0.941,2.226-0.941c0.52,0,0.978,0.118,1.374,0.354c0.396,0.236,0.702,0.546,0.918,0.931V9.713h1.38v6.612
			h-1.38v-1.236c-0.224,0.408-0.532,0.734-0.924,0.979c-0.392,0.244-0.848,0.366-1.368,0.366
			C19.586,16.434,18.846,16.111,18.247,15.467z M22.165,14.64c0.396-0.404,0.594-0.946,0.594-1.626c0-0.681-0.198-1.221-0.594-1.62
			c-0.396-0.4-0.866-0.601-1.41-0.601s-1.014,0.196-1.41,0.588c-0.396,0.393-0.594,0.929-0.594,1.608s0.198,1.226,0.594,1.638
			s0.866,0.618,1.41,0.618S21.769,15.043,22.165,14.64z"/>
		<path fill="#FFFFFF" d="M25.158,9.713h1.464l1.872,5.389l1.872-5.389h1.476l-2.52,6.612h-1.656L25.158,9.713z"/>
		<path fill="#FFFFFF" d="M33.294,15.467c-0.6-0.644-0.9-1.468-0.9-2.472s0.298-1.819,0.894-2.448
			c0.596-0.628,1.338-0.941,2.226-0.941c0.52,0,0.978,0.118,1.374,0.354c0.396,0.236,0.702,0.546,0.918,0.931V9.713h1.38v6.612
			h-1.38v-1.236c-0.224,0.408-0.532,0.734-0.924,0.979c-0.392,0.244-0.848,0.366-1.368,0.366
			C34.634,16.434,33.894,16.111,33.294,15.467z M37.212,14.64c0.396-0.404,0.594-0.946,0.594-1.626c0-0.681-0.198-1.221-0.594-1.62
			c-0.396-0.4-0.866-0.601-1.41-0.601s-1.014,0.196-1.41,0.588c-0.396,0.393-0.594,0.929-0.594,1.608s0.198,1.226,0.594,1.638
			s0.866,0.618,1.41,0.618S36.816,15.043,37.212,14.64z"/>
	</g>
</g>
</svg>
