<?xml version="1.0" encoding="utf-8"?>
<!-- Generator: Adobe Illustrator 14.0.0, SVG Export Plug-In . SVG Version: 6.00 Build 43363)  -->
<!DOCTYPE svg PUBLIC "-//W3C//DTD SVG 1.1//EN" "http://www.w3.org/Graphics/SVG/1.1/DTD/svg11.dtd">
<svg version="1.1" id="Layer_1" xmlns="http://www.w3.org/2000/svg" xmlns:xlink="http://www.w3.org/1999/xlink" x="0px" y="0px"
	 width="53.813px" height="53.813px" viewBox="0 0 53.813 53.813" enable-background="new 0 0 53.813 53.813" xml:space="preserve">
<g>
	<linearGradient id="SVGID_1_" gradientUnits="userSpaceOnUse" x1="26.9063" y1="-0.4468" x2="26.9063" y2="51.5519">
		<stop  offset="0" style="stop-color:#F26B75"/>
		<stop  offset="1" style="stop-color:#EB5A63"/>
	</linearGradient>
	<path fill-rule="evenodd" clip-rule="evenodd" fill="url(#SVGID_1_)" d="M11.944,0h29.925c6.568,0,11.943,5.375,11.943,11.944
		v29.925c0,6.569-5.375,11.944-11.943,11.944H11.944C5.375,53.813,0,48.438,0,41.869V11.944C0,5.375,5.375,0,11.944,0z"/>
	<path fill-rule="evenodd" clip-rule="evenodd" fill="#FFFFFF" d="M18.319,19.797v-4.256c0.602,0.49,1.33,0.784,2.17,0.784
		c1.861,0,3.388-1.551,3.388-3.493c0-1.927-1.526-3.507-3.388-3.507c-0.84,0-1.568,0.294-2.17,0.784V9.325h-1.26v10.472H18.319
		L18.319,19.797z M20.489,10.599c1.189,0,2.155,1.003,2.155,2.233c0,1.215-0.966,2.219-2.155,2.219c-1.12,0-2.017-0.837-2.17-1.939
		v-0.574C18.473,11.464,19.369,10.599,20.489,10.599L20.489,10.599z M30.289,5.825v4.242c-0.574-0.49-1.316-0.77-2.143-0.77
		c-1.875,0-3.401,1.554-3.401,3.493s1.526,3.535,3.401,3.535c0.826,0,1.568-0.322,2.143-0.812v0.812h1.26v-10.5H30.289L30.289,5.825
		z M28.146,15.023c-1.189,0-2.155-0.997-2.155-2.233c0-1.237,0.966-2.233,2.155-2.233c1.12,0,2.03,0.842,2.143,1.939v0.588
		C30.177,14.181,29.267,15.023,28.146,15.023L28.146,15.023z M34.671,9.325L34.671,9.325c0-1.288,1.064-2.156,2.311-2.156V5.853
		c-1.961,0-3.557,1.442-3.557,3.458v0.014h-1.05v1.26h1.05l0.015,5.74h1.246l-0.015-5.74h2.324v-1.26H34.671z"/>
	<path fill-rule="evenodd" clip-rule="evenodd" fill="#FFFFFF" d="M30.719,23.965h11.695h1.488v1.488v12.089v1.488h-1.488H30.719
		H29.23v-1.488V25.453v-1.488H30.719L30.719,23.965z M29.23,42.099h14.672v2.977H29.23V42.099L29.23,42.099z M9.91,42.099h14.672
		v2.977H9.91V42.099L9.91,42.099z M9.91,36.054h14.672v2.977H9.91V36.054L9.91,36.054z M9.91,30.01h14.672v2.977H9.91V30.01
		L9.91,30.01z M9.91,23.965h14.672v2.977H9.91V23.965L9.91,23.965z M40.926,26.941h-8.72v9.113h8.72V26.941z"/>
</g>
</svg>
