<?xml version="1.0" encoding="utf-8"?>
<!-- Generator: Adobe Illustrator 14.0.0, SVG Export Plug-In . SVG Version: 6.00 Build 43363)  -->
<!DOCTYPE svg PUBLIC "-//W3C//DTD SVG 1.1//EN" "http://www.w3.org/Graphics/SVG/1.1/DTD/svg11.dtd">
<svg version="1.1" id="Layer_1" xmlns="http://www.w3.org/2000/svg" xmlns:xlink="http://www.w3.org/1999/xlink" x="0px" y="0px"
	 width="53.813px" height="53.813px" viewBox="0 0 53.813 53.813" enable-background="new 0 0 53.813 53.813" xml:space="preserve">
<g>
	<linearGradient id="SVGID_1_" gradientUnits="userSpaceOnUse" x1="26.9063" y1="53.2441" x2="26.9062" y2="-2.4524">
		<stop  offset="0" style="stop-color:#177DBB"/>
		<stop  offset="0.28" style="stop-color:#2B87C8"/>
		<stop  offset="1" style="stop-color:#328FCE"/>
	</linearGradient>
	<path fill-rule="evenodd" clip-rule="evenodd" fill="url(#SVGID_1_)" d="M11.944,0h29.925c6.569,0,11.944,5.375,11.944,11.944
		v29.925c0,6.569-5.375,11.944-11.944,11.944H11.944C5.375,53.813,0,48.438,0,41.869V11.944C0,5.375,5.375,0,11.944,0z"/>
	<path fill-rule="evenodd" clip-rule="evenodd" fill="#7CB6E3" d="M9.91,16.965h33.992v2.977H9.91V16.965L9.91,16.965z M9.91,23.01
		h33.992v2.977H9.91V23.01L9.91,23.01z M9.91,29.054h33.992v2.977H9.91V29.054L9.91,29.054z M9.91,35.099h33.992v2.977H9.91V35.099z
		"/>
</g>
</svg>
