<?xml version="1.0" encoding="utf-8"?>
<!-- Generator: Adobe Illustrator 14.0.0, SVG Export Plug-In . SVG Version: 6.00 Build 43363)  -->
<!DOCTYPE svg PUBLIC "-//W3C//DTD SVG 1.1//EN" "http://www.w3.org/Graphics/SVG/1.1/DTD/svg11.dtd">
<svg version="1.1" id="Layer_1" xmlns="http://www.w3.org/2000/svg" xmlns:xlink="http://www.w3.org/1999/xlink" x="0px" y="0px"
	 width="53.813px" height="53.813px" viewBox="0 0 53.813 53.813" enable-background="new 0 0 53.813 53.813" xml:space="preserve">
<g>
	<linearGradient id="SVGID_1_" gradientUnits="userSpaceOnUse" x1="26.9063" y1="-0.4473" x2="26.9063" y2="51.5518">
		<stop  offset="0" style="stop-color:#F26B75"/>
		<stop  offset="1" style="stop-color:#EB5A63"/>
	</linearGradient>
	<path fill-rule="evenodd" clip-rule="evenodd" fill="url(#SVGID_1_)" d="M11.944,0h29.925c6.569,0,11.943,5.375,11.943,11.943
		v29.926c0,6.568-5.374,11.943-11.943,11.943H11.944C5.375,53.813,0,48.438,0,41.869V11.943C0,5.375,5.375,0,11.944,0z"/>
	<path fill-rule="evenodd" clip-rule="evenodd" fill="#FFFFFF" d="M19.494,12.068c-1.119-0.042-1.245-0.447-1.245-0.728
		c0-0.546,0.434-0.798,0.896-0.798c0.434,0.014,0.812,0.21,1.148,0.602l0.168,0.196l0.63-1.12l-0.084-0.098
		c-0.393-0.49-1.148-0.826-1.862-0.826h-0.14c-1.078,0-1.975,0.924-1.975,2.044c0,1.302,1.302,1.918,2.395,1.96
		c0.742,0.112,1.036,0.395,1.036,0.889c0,0.551-0.435,0.974-1.009,0.974h-0.027c-0.729-0.015-1.387-0.225-1.708-0.732l-0.154-0.241
		l-0.588,1.016l0.07,0.084c0.434,0.63,1.273,1.036,2.128,1.036h0.279c1.232,0,2.185-0.952,2.185-2.136
		C21.637,13.049,20.797,12.223,19.494,12.068L19.494,12.068z M28.763,13.329l-1.765-4.032l-1.777,4.032l-1.68-3.99h-1.219
		l2.717,6.538l0.182,0.448v-0.015l0.014,0.015l0.168-0.42l1.582-3.837l1.568,3.809l0.21,0.448v-0.015v0.015l0.098-0.267l2.786-6.72
		h-1.204L28.763,13.329L28.763,13.329z M34.587,9.325L34.587,9.325c0-1.288,1.063-2.156,2.31-2.156V5.853
		c-1.96,0-3.556,1.442-3.556,3.458v0.015H32.29v1.26h1.051l0.014,5.74h1.246l-0.014-5.74h2.323v-1.26H34.587z"/>
	<path fill="#F7B0B9" d="M36.206,39.226H17.607c-4.329,0-7.852-3.522-7.852-7.852s3.522-7.851,7.852-7.851s7.851,3.521,7.851,7.851
		c0,1.84-0.636,3.534-1.7,4.875h12.448V39.226z M17.607,26.5c-2.688,0-4.875,2.187-4.875,4.874s2.187,4.875,4.875,4.875
		c2.688,0,4.875-2.188,4.875-4.875S20.295,26.5,17.607,26.5z"/>
	<path fill="#FFFFFF" d="M36.206,39.226c-4.329,0-7.851-3.522-7.851-7.852s3.521-7.851,7.851-7.851s7.851,3.521,7.851,7.851
		S40.535,39.226,36.206,39.226z M36.206,26.5c-2.688,0-4.875,2.187-4.875,4.874s2.188,4.875,4.875,4.875
		c2.688,0,4.874-2.188,4.874-4.875S38.895,26.5,36.206,26.5z"/>
</g>
</svg>
