<?xml version="1.0" encoding="utf-8"?>
<!-- Generator: Adobe Illustrator 14.0.0, SVG Export Plug-In . SVG Version: 6.00 Build 43363)  -->
<!DOCTYPE svg PUBLIC "-//W3C//DTD SVG 1.1//EN" "http://www.w3.org/Graphics/SVG/1.1/DTD/svg11.dtd">
<svg version="1.1" id="Layer_1" xmlns="http://www.w3.org/2000/svg" xmlns:xlink="http://www.w3.org/1999/xlink" x="0px" y="0px"
	 width="15px" height="14px" viewBox="0 0 15 14" enable-background="new 0 0 15 14" xml:space="preserve">
<g>
	<path fill="#504F53" d="M3.458,7.5c-0.258,0-0.477-0.199-0.498-0.46C2.954,6.971,2.837,5.335,3.892,4.165
		C4.539,3.448,5.465,3.07,6.645,3.042C6.955,3.02,7.15,3.253,7.157,3.529c0.006,0.276-0.212,0.505-0.488,0.512
		C5.775,4.063,5.091,4.33,4.635,4.835C3.877,5.675,3.956,6.948,3.957,6.96c0.022,0.275-0.184,0.516-0.459,0.538
		C3.485,7.5,3.471,7.5,3.458,7.5L3.458,7.5z"/>
</g>
<path fill="#504F53" d="M14.68,12.278l-2.354-2.229c0.603-0.998,0.956-2.162,0.956-3.41c0-3.653-2.972-6.625-6.625-6.625
	c-3.653,0-6.625,2.972-6.625,6.625c0,3.653,2.972,6.625,6.625,6.625c1.626,0,3.114-0.591,4.269-1.566l2.405,2.038
	c0.404,0.373,1.032,0.349,1.404-0.053C15.108,13.279,15.085,12.651,14.68,12.278z M1.032,6.639c0-3.102,2.523-5.625,5.625-5.625
	s5.625,2.523,5.625,5.625s-2.523,5.625-5.625,5.625S1.032,9.74,1.032,6.639z"/>
</svg>
