<?xml version="1.0" encoding="utf-8"?>
<!-- Generator: Adobe Illustrator 14.0.0, SVG Export Plug-In . SVG Version: 6.00 Build 43363)  -->
<!DOCTYPE svg PUBLIC "-//W3C//DTD SVG 1.1//EN" "http://www.w3.org/Graphics/SVG/1.1/DTD/svg11.dtd">
<svg version="1.1" id="Layer_1" xmlns="http://www.w3.org/2000/svg" xmlns:xlink="http://www.w3.org/1999/xlink" x="0px" y="0px"
	 width="53.813px" height="53.813px" viewBox="0 0 53.813 53.813" enable-background="new 0 0 53.813 53.813" xml:space="preserve">
<g>
	<linearGradient id="SVGID_1_" gradientUnits="userSpaceOnUse" x1="26.9063" y1="53.2441" x2="26.9062" y2="-2.4524">
		<stop  offset="0" style="stop-color:#177DBB"/>
		<stop  offset="0.28" style="stop-color:#2B87C8"/>
		<stop  offset="1" style="stop-color:#328FCE"/>
	</linearGradient>
	<path fill-rule="evenodd" clip-rule="evenodd" fill="url(#SVGID_1_)" d="M11.944,0h29.925c6.569,0,11.944,5.375,11.944,11.944
		v29.925c0,6.569-5.375,11.944-11.944,11.944H11.944C5.375,53.813,0,48.438,0,41.869V11.944C0,5.375,5.375,0,11.944,0z"/>
	<path fill-rule="evenodd" clip-rule="evenodd" fill="#7CB6E3" d="M23.056,23.965h20.846v2.977H23.056V23.965L23.056,23.965z
		 M23.056,30.01h20.846v2.977H23.056V30.01L23.056,30.01z M9.91,36.054h33.992v2.977H9.91V36.054L9.91,36.054z M9.91,42.099h33.992
		v2.977H9.91V42.099z"/>
	<g>
		<path fill="#FFFFFF" d="M17.957,24.471h1.368v8.34h-1.368v-3.684h-3.924v3.684h-1.368v-8.34h1.368v3.6h3.924V24.471z"/>
	</g>
</g>
<g>
	<path fill="#FFFFFF" d="M16.263,7.445v3.312c0.44-0.768,1.144-1.152,2.112-1.152c0.744,0,1.358,0.248,1.842,0.744
		c0.484,0.496,0.726,1.188,0.726,2.076v3.9h-1.356v-3.696c0-0.592-0.148-1.046-0.444-1.362c-0.296-0.316-0.7-0.474-1.212-0.474
		c-0.512,0-0.918,0.158-1.218,0.474c-0.3,0.316-0.45,0.77-0.45,1.362v3.696h-1.368v-8.88H16.263z"/>
	<path fill="#FFFFFF" d="M30.219,9.713h1.344l-2.052,6.612h-1.44l-1.332-4.884l-1.332,4.884h-1.44l-2.064-6.612h1.392l1.38,5.316
		l1.404-5.316h1.428l1.344,5.292L30.219,9.713z"/>
	<path fill="#FFFFFF" d="M36.254,9.604c0.888,0,1.628,0.314,2.22,0.942c0.592,0.628,0.888,1.444,0.888,2.448
		s-0.298,1.828-0.894,2.472c-0.596,0.644-1.334,0.966-2.214,0.966c-0.52,0-0.976-0.122-1.368-0.366
		c-0.392-0.244-0.704-0.57-0.936-0.978v4.38h-1.368V9.713h1.368v1.176c0.224-0.384,0.534-0.694,0.93-0.93
		C35.277,9.723,35.734,9.604,36.254,9.604z M37.371,14.626c0.4-0.412,0.6-0.958,0.6-1.638s-0.198-1.216-0.594-1.608
		s-0.868-0.588-1.416-0.588s-1.02,0.2-1.416,0.6c-0.396,0.4-0.594,0.94-0.594,1.62c0,0.68,0.198,1.222,0.594,1.626
		c0.396,0.404,0.866,0.606,1.41,0.606S36.971,15.039,37.371,14.626z"/>
</g>
</svg>
