<?xml version="1.0" encoding="utf-8"?>
<!-- Generator: Adobe Illustrator 14.0.0, SVG Export Plug-In . SVG Version: 6.00 Build 43363)  -->
<!DOCTYPE svg PUBLIC "-//W3C//DTD SVG 1.1//EN" "http://www.w3.org/Graphics/SVG/1.1/DTD/svg11.dtd">
<svg version="1.1" id="Layer_1" xmlns="http://www.w3.org/2000/svg" xmlns:xlink="http://www.w3.org/1999/xlink" x="0px" y="0px"
	 width="20.065px" height="20.014px" viewBox="0 0 20.065 20.014" enable-background="new 0 0 20.065 20.014" xml:space="preserve">
<g>
	<g>
		<path fill="#4D4E4E" d="M8.101,10.067c0,1.019,0.827,1.845,1.846,1.845s1.846-0.826,1.846-1.845c0-1.02-0.827-1.846-1.846-1.846
			S8.101,9.047,8.101,10.067z"/>
	</g>
	<g>
		<path fill="#4D4E4E" d="M9.947,15.143c-2.844,0-5.159-2.276-5.159-5.075s2.314-5.076,5.159-5.076c1.574,0,3.042,0.694,4.027,1.904
			c0.122,0.15,0.1,0.371-0.051,0.493c-0.147,0.122-0.369,0.1-0.492-0.05c-0.852-1.046-2.122-1.646-3.484-1.646
			c-2.458,0-4.458,1.963-4.458,4.375c0,2.413,2,4.376,4.458,4.376c2.458,0,4.459-1.963,4.459-4.376c0-0.344-0.041-0.687-0.12-1.017
			c-0.046-0.188,0.07-0.377,0.258-0.422c0.19-0.044,0.377,0.072,0.422,0.258c0.093,0.384,0.14,0.782,0.14,1.181
			C15.105,12.866,12.792,15.143,9.947,15.143L9.947,15.143z"/>
	</g>
	<g>
		<path fill="#4D4E4E" d="M0.6,5.256c-0.332,0-0.6-0.269-0.6-0.6V1.541C0,0.691,0.692,0,1.543,0h3.401c0.332,0,0.6,0.269,0.6,0.6
			s-0.269,0.6-0.6,0.6H1.543C1.354,1.2,1.2,1.353,1.2,1.541v3.116C1.2,4.988,0.932,5.256,0.6,5.256L0.6,5.256z"/>
	</g>
	<g>
		<path fill="#4D4E4E" d="M4.945,20.014H1.543c-0.851,0-1.543-0.69-1.543-1.54v-2.996c0-0.331,0.269-0.6,0.6-0.6s0.6,0.269,0.6,0.6
			v2.996c0,0.188,0.154,0.341,0.343,0.341h3.401c0.332,0,0.6,0.269,0.6,0.6S5.276,20.014,4.945,20.014L4.945,20.014z"/>
	</g>
	<g>
		<path fill="#4D4E4E" d="M18.523,20.014H14.95c-0.331,0-0.6-0.269-0.6-0.6s0.269-0.6,0.6-0.6h3.573
			c0.188,0,0.343-0.153,0.343-0.341v-2.996c0-0.331,0.269-0.6,0.6-0.6s0.6,0.269,0.6,0.6v2.996
			C20.065,19.323,19.374,20.014,18.523,20.014L18.523,20.014z"/>
	</g>
	<g>
		<path fill="#4D4E4E" d="M19.465,5.256c-0.331,0-0.6-0.269-0.6-0.6V1.541c0-0.188-0.154-0.34-0.343-0.34H14.95
			c-0.331,0-0.6-0.269-0.6-0.6S14.619,0,14.95,0h3.573c0.851,0,1.542,0.691,1.542,1.541v3.116
			C20.065,4.988,19.796,5.256,19.465,5.256L19.465,5.256z"/>
	</g>
</g>
</svg>
