<?xml version="1.0" encoding="utf-8"?>
<!-- Generator: Adobe Illustrator 14.0.0, SVG Export Plug-In . SVG Version: 6.00 Build 43363)  -->
<!DOCTYPE svg PUBLIC "-//W3C//DTD SVG 1.1//EN" "http://www.w3.org/Graphics/SVG/1.1/DTD/svg11.dtd">
<svg version="1.1" id="Layer_1" xmlns="http://www.w3.org/2000/svg" xmlns:xlink="http://www.w3.org/1999/xlink" x="0px" y="0px"
	 width="53.813px" height="53.813px" viewBox="0 0 53.813 53.813" enable-background="new 0 0 53.813 53.813" xml:space="preserve">
<g>
	<linearGradient id="SVGID_1_" gradientUnits="userSpaceOnUse" x1="26.9063" y1="53.2441" x2="26.9062" y2="-2.4529">
		<stop  offset="0" style="stop-color:#4F6BB3"/>
		<stop  offset="1" style="stop-color:#617ABC"/>
	</linearGradient>
	<path fill-rule="evenodd" clip-rule="evenodd" fill="url(#SVGID_1_)" d="M11.944,0h29.925c6.569,0,11.944,5.375,11.944,11.944
		v29.925c0,6.568-5.375,11.943-11.944,11.943H11.944C5.375,53.813,0,48.438,0,41.869V11.944C0,5.375,5.375,0,11.944,0z"/>
	<path fill="#AAB4DC" d="M25.765,44.729l-2.875-0.771l5.158-19.25l2.875,0.771L25.765,44.729z M32.641,40.763l-1.719-2.431
		l5.11-3.612l-5.11-3.613l1.719-2.431l8.546,6.044L32.641,40.763z M21.172,40.763l-8.547-6.043l8.547-6.044l1.719,2.431l-5.11,3.613
		l5.11,3.612L21.172,40.763z"/>
	<g>
		<path fill="#FFFFFF" d="M23.022,9.713h1.368v7.908c0,1.232-0.632,1.848-1.896,1.848h-0.708v-1.151h0.468
			c0.28,0,0.478-0.054,0.594-0.162c0.116-0.108,0.174-0.286,0.174-0.534V9.713z M24.582,7.961c0,0.248-0.084,0.456-0.252,0.624
			s-0.374,0.252-0.618,0.252s-0.45-0.084-0.618-0.252s-0.252-0.376-0.252-0.624s0.084-0.456,0.252-0.624s0.374-0.252,0.618-0.252
			s0.45,0.084,0.618,0.252S24.582,7.713,24.582,7.961z"/>
		<path fill="#FFFFFF" d="M25.89,11.609c0-0.56,0.236-1.034,0.708-1.422c0.472-0.389,1.092-0.582,1.86-0.582s1.378,0.189,1.83,0.569
			c0.452,0.381,0.694,0.898,0.726,1.555H29.61c-0.024-0.328-0.138-0.584-0.342-0.769c-0.204-0.184-0.49-0.275-0.858-0.275
			c-0.368,0-0.656,0.082-0.864,0.246s-0.312,0.38-0.312,0.647c0,0.269,0.132,0.479,0.396,0.63c0.264,0.152,0.586,0.265,0.966,0.336
			c0.38,0.072,0.76,0.16,1.14,0.265c0.38,0.104,0.702,0.294,0.966,0.569c0.264,0.276,0.396,0.646,0.396,1.11
			c0,0.576-0.242,1.044-0.726,1.404c-0.484,0.359-1.106,0.54-1.866,0.54c-0.76,0-1.376-0.185-1.848-0.553
			c-0.472-0.367-0.732-0.892-0.78-1.571h1.416c0.024,0.328,0.144,0.584,0.36,0.768c0.216,0.185,0.51,0.276,0.882,0.276
			s0.668-0.082,0.888-0.246c0.22-0.164,0.33-0.382,0.33-0.654c0-0.271-0.132-0.483-0.396-0.636
			c-0.264-0.152-0.586-0.266-0.966-0.342s-0.76-0.164-1.14-0.265c-0.38-0.1-0.702-0.282-0.966-0.546
			C26.022,12.401,25.89,12.049,25.89,11.609z"/>
	</g>
</g>
</svg>
