<?xml version="1.0" encoding="utf-8"?>
<!-- Generator: Adobe Illustrator 14.0.0, SVG Export Plug-In . SVG Version: 6.00 Build 43363)  -->
<!DOCTYPE svg PUBLIC "-//W3C//DTD SVG 1.1//EN" "http://www.w3.org/Graphics/SVG/1.1/DTD/svg11.dtd">
<svg version="1.1" xmlns="http://www.w3.org/2000/svg" xmlns:xlink="http://www.w3.org/1999/xlink" x="0px" y="0px" width="17px"
	 height="16.35px" viewBox="0 0 17 16.35" enable-background="new 0 0 17 16.35" xml:space="preserve">
<g id="Layer_1">
	<path display="none" fill="#767676" d="M-154.042-3.245l3.915,7.071l8.217,1.775l-5.589,5.574l1.199,8.424l-7.381-3.242
		l-7.825,3.081l1.604-8.264l-5.825-5.979l7.71-1.5L-154.042-3.245 M-154.023-4.323c-0.726,0-1.398,0.389-1.76,1.02l-3.183,5.557
		l-6.158,1.198c-0.731,0.142-1.325,0.675-1.546,1.386c-0.224,0.711-0.038,1.487,0.482,2.022l4.598,4.72l-1.268,6.533
		c-0.144,0.729,0.125,1.474,0.694,1.947c0.371,0.31,0.832,0.469,1.297,0.469c0.251,0,0.502-0.046,0.742-0.141l6.39-2.515
		l5.991,2.634c0.264,0.115,0.541,0.17,0.818,0.17c0.436,0,0.866-0.141,1.227-0.412c0.586-0.444,0.886-1.173,0.781-1.902
		l-0.954-6.718l4.405-4.392c0.526-0.524,0.724-1.295,0.514-2.008c-0.209-0.713-0.792-1.255-1.519-1.412l-6.633-1.432l-3.144-5.678
		c-0.356-0.641-1.029-1.041-1.759-1.047C-154.014-4.323-154.018-4.323-154.023-4.323L-154.023-4.323z"/>
</g>
<g id="Layer_2">
	<g>
		<path fill="#FFA800" d="M13.548,16.35c-0.068,0-0.138-0.014-0.203-0.043l-4.764-2.092l-5.059,1.992
			c-0.171,0.068-0.366,0.036-0.507-0.082c-0.141-0.117-0.208-0.302-0.172-0.483l1.027-5.291L0.143,6.525
			C0.014,6.393-0.032,6.2,0.023,6.024C0.078,5.847,0.226,5.715,0.408,5.68l4.951-0.963l2.554-4.459
			c0.091-0.158,0.243-0.28,0.441-0.253c0.182,0.001,0.349,0.101,0.437,0.259l2.518,4.548l5.294,1.144
			c0.181,0.039,0.325,0.173,0.377,0.35c0.052,0.177,0.003,0.368-0.127,0.499l-3.574,3.564l0.77,5.407
			c0.025,0.181-0.049,0.362-0.194,0.472C13.764,16.315,13.657,16.35,13.548,16.35L13.548,16.35z"/>
	</g>
</g>
</svg>
