<?xml version="1.0" encoding="utf-8"?>
<!-- Generator: Adobe Illustrator 14.0.0, SVG Export Plug-In . SVG Version: 6.00 Build 43363)  -->
<!DOCTYPE svg PUBLIC "-//W3C//DTD SVG 1.1//EN" "http://www.w3.org/Graphics/SVG/1.1/DTD/svg11.dtd">
<svg version="1.1" id="Layer_1" xmlns="http://www.w3.org/2000/svg" xmlns:xlink="http://www.w3.org/1999/xlink" x="0px" y="0px"
	 width="53.813px" height="53.813px" viewBox="0 0 53.813 53.813" enable-background="new 0 0 53.813 53.813" xml:space="preserve">
<g>
	<path fill-rule="evenodd" clip-rule="evenodd" fill="#F4F4F4" d="M11.944,0h29.925c6.569,0,11.944,5.375,11.944,11.944v29.925
		c0,6.568-5.375,11.943-11.944,11.943H11.944C5.375,53.813,0,48.438,0,41.869V11.944C0,5.375,5.375,0,11.944,0z"/>
	<polygon fill-rule="evenodd" clip-rule="evenodd" fill="#A2ACB7" points="22.517,29.085 27.063,31.71 31.61,34.335 27.063,36.96 
		22.517,39.585 22.517,34.335 	"/>
	<path opacity="0.5" fill="#A2ACB7" d="M26.101,46.191c-6.538,0-11.856-5.318-11.856-11.856s5.319-11.857,11.856-11.857
		c6.538,0,11.857,5.319,11.857,11.857S32.639,46.191,26.101,46.191z M26.101,25.454c-4.896,0-8.88,3.984-8.88,8.881
		c0,4.896,3.984,8.881,8.88,8.881c4.897,0,8.881-3.984,8.881-8.881C34.981,29.438,30.998,25.454,26.101,25.454z"/>
	<g>
		<path fill="#A2ACB7" d="M15.519,11.609c0-0.56,0.236-1.034,0.708-1.422c0.472-0.388,1.092-0.582,1.86-0.582s1.378,0.19,1.83,0.57
			c0.452,0.38,0.694,0.898,0.726,1.554h-1.404c-0.024-0.328-0.138-0.583-0.342-0.768s-0.49-0.276-0.858-0.276
			c-0.368,0-0.656,0.082-0.864,0.246s-0.312,0.38-0.312,0.648s0.132,0.478,0.396,0.63c0.264,0.152,0.586,0.264,0.966,0.336
			c0.38,0.072,0.76,0.16,1.14,0.264s0.702,0.294,0.966,0.57c0.264,0.276,0.396,0.646,0.396,1.11c0,0.576-0.242,1.044-0.726,1.404
			c-0.484,0.36-1.106,0.54-1.866,0.54c-0.76,0-1.376-0.184-1.848-0.552c-0.472-0.368-0.732-0.892-0.78-1.572h1.416
			c0.024,0.328,0.144,0.584,0.36,0.768c0.216,0.184,0.51,0.276,0.882,0.276s0.668-0.082,0.888-0.246
			c0.22-0.164,0.33-0.382,0.33-0.654s-0.132-0.484-0.396-0.636c-0.264-0.152-0.586-0.266-0.966-0.342
			c-0.38-0.076-0.76-0.164-1.14-0.264s-0.702-0.282-0.966-0.546C15.65,12.401,15.519,12.049,15.519,11.609z"/>
		<path fill="#A2ACB7" d="M23.595,9.713v1.044c0.44-0.768,1.144-1.152,2.112-1.152c0.512,0,0.968,0.12,1.368,0.36
			c0.4,0.24,0.704,0.588,0.912,1.044c0.232-0.44,0.554-0.784,0.966-1.032c0.412-0.248,0.878-0.372,1.398-0.372
			c0.76,0,1.384,0.246,1.872,0.738c0.488,0.492,0.732,1.186,0.732,2.082v3.9h-1.368v-3.696c0-0.592-0.148-1.046-0.444-1.362
			c-0.296-0.316-0.7-0.474-1.212-0.474c-0.512,0-0.916,0.158-1.212,0.474c-0.296,0.316-0.444,0.77-0.444,1.362v3.696h-1.356v-3.696
			c0-0.592-0.148-1.046-0.444-1.362c-0.296-0.316-0.7-0.474-1.212-0.474c-0.512,0-0.918,0.158-1.218,0.474
			c-0.3,0.316-0.45,0.77-0.45,1.362v3.696h-1.368V9.713H23.595z"/>
		<path fill="#A2ACB7" d="M36.254,7.961c0,0.248-0.084,0.456-0.252,0.624c-0.168,0.168-0.374,0.252-0.618,0.252
			s-0.45-0.084-0.618-0.252c-0.168-0.168-0.252-0.375-0.252-0.624s0.084-0.456,0.252-0.624s0.374-0.252,0.618-0.252
			s0.45,0.084,0.618,0.252S36.254,7.713,36.254,7.961z M34.694,16.325V9.713h1.368v6.612H34.694z"/>
	</g>
</g>
</svg>
