<svg xmlns="http://www.w3.org/2000/svg" width="21" height="5" viewBox="0 0 21 5">
  <defs>
    <style>
      .cls-1 {
        fill: #333;
        fill-rule: evenodd;
      }
    </style>
  </defs>
  <path id="더보기" class="cls-1" d="M984.5,79a2.5,2.5,0,1,1-2.5,2.5A2.5,2.5,0,0,1,984.5,79Zm0,1a1.5,1.5,0,1,1-1.5,1.5A1.5,1.5,0,0,1,984.5,80Zm8-1a2.5,2.5,0,1,1-2.5,2.5A2.5,2.5,0,0,1,992.5,79Zm0,1a1.5,1.5,0,1,1-1.5,1.5A1.5,1.5,0,0,1,992.5,80Zm8-1a2.5,2.5,0,1,1-2.5,2.5A2.5,2.5,0,0,1,1000.5,79Zm0,1a1.5,1.5,0,1,1-1.5,1.5A1.5,1.5,0,0,1,1000.5,80Z" transform="translate(-982 -79)"/>
</svg>
