<?xml version="1.0" encoding="utf-8"?>
<!-- Generator: Adobe Illustrator 14.0.0, SVG Export Plug-In . SVG Version: 6.00 Build 43363)  -->
<!DOCTYPE svg PUBLIC "-//W3C//DTD SVG 1.1//EN" "http://www.w3.org/Graphics/SVG/1.1/DTD/svg11.dtd">
<svg version="1.1" id="Layer_1" xmlns="http://www.w3.org/2000/svg" xmlns:xlink="http://www.w3.org/1999/xlink" x="0px" y="0px"
	 width="14.871px" height="3px" viewBox="0 0 14.871 3" enable-background="new 0 0 14.871 3" xml:space="preserve">
<g id="Layer_1_1_">
	<path display="none" fill="#767676" d="M-288.278,28.773l3.915,7.072l8.217,1.773l-5.589,5.572l1.197,8.426l-7.381-3.242
		l-7.825,3.081l1.604-8.265l-5.825-5.979l7.71-1.5L-288.278,28.773 M-288.259,27.695c-0.726,0-1.398,0.389-1.76,1.02l-3.185,5.557
		l-6.156,1.199c-0.731,0.141-1.325,0.674-1.546,1.385c-0.226,0.711-0.038,1.488,0.48,2.022l4.598,4.72l-1.268,6.533
		c-0.145,0.729,0.125,1.475,0.694,1.947c0.371,0.311,0.832,0.469,1.297,0.469c0.251,0,0.502-0.046,0.742-0.141l6.39-2.516
		l5.991,2.635c0.264,0.115,0.541,0.17,0.816,0.17c0.438,0,0.866-0.141,1.229-0.412c0.586-0.444,0.886-1.174,0.781-1.902
		l-0.954-6.718l4.403-4.392c0.526-0.524,0.726-1.295,0.516-2.008c-0.209-0.715-0.792-1.257-1.521-1.412l-6.633-1.434l-3.144-5.678
		c-0.356-0.643-1.029-1.041-1.761-1.049C-288.25,27.695-288.254,27.695-288.259,27.695L-288.259,27.695z"/>
</g>
<g id="Layer_2">
	<g>
		<circle fill="#BFBFBF" cx="1.499" cy="1.5" r="1.499"/>
		<circle fill="#BFBFBF" cx="7.374" cy="1.5" r="1.499"/>
		<circle fill="#BFBFBF" cx="13.372" cy="1.5" r="1.499"/>
	</g>
</g>
</svg>
