<?xml version="1.0" encoding="utf-8"?>
<!-- Generator: Adobe Illustrator 14.0.0, SVG Export Plug-In . SVG Version: 6.00 Build 43363)  -->
<!DOCTYPE svg PUBLIC "-//W3C//DTD SVG 1.1//EN" "http://www.w3.org/Graphics/SVG/1.1/DTD/svg11.dtd">
<svg version="1.1" id="Isolation_Mode" xmlns="http://www.w3.org/2000/svg" xmlns:xlink="http://www.w3.org/1999/xlink" x="0px"
	 y="0px" width="25px" height="25px" viewBox="0 -8.031 25 25" enable-background="new 0 -8.031 25 25" xml:space="preserve">
<g>
	<path fill="#FFFFFF" d="M3.589,11.967c0-5.961,7.312-3.265,7.312-7.756C9.675,3.43,8.83,1.793,8.83-0.106
		c0-2.651,1.644-4.8,3.672-4.8c2.031,0,3.677,2.149,3.677,4.8c0,1.885-0.836,3.512-2.045,4.297c0,4.988,7.281,1.174,7.281,7.777
		H3.589V11.967z M9.505,4.983C8.248,5.385,5.6,5.704,3.828,7.674H0c-0.059-5.555,4.643-3.82,4.643-6.71
		C3.855,0.462,3.312-0.589,3.312-1.811c0-1.704,1.057-3.085,2.362-3.085s2.363,1.381,2.363,3.085c0,1.213-0.535,2.258-1.314,2.764
		c0.03,1.088,0.378,1.543,1.42,1.92C8.299,4.051,9.505,4.983,9.505,4.983"/>
	<path fill="#FFFFFF" d="M16.859,2.873c1.043-0.377,1.391-0.831,1.42-1.92c-0.779-0.504-1.314-1.55-1.314-2.764
		c0-1.704,1.057-3.085,2.361-3.085s2.361,1.381,2.361,3.085c0,1.222-0.545,2.273-1.332,2.774c0,2.89,4.701,1.156,4.645,6.71h-3.826
		c-1.773-1.971-4.422-2.289-5.68-2.69C15.496,4.983,16.703,4.051,16.859,2.873"/>
</g>
</svg>
