<?xml version="1.0" encoding="utf-8"?>
<!-- Generator: Adobe Illustrator 14.0.0, SVG Export Plug-In . SVG Version: 6.00 Build 43363)  -->
<!DOCTYPE svg PUBLIC "-//W3C//DTD SVG 1.1//EN" "http://www.w3.org/Graphics/SVG/1.1/DTD/svg11.dtd">
<svg version="1.1" id="Layer_1" xmlns="http://www.w3.org/2000/svg" xmlns:xlink="http://www.w3.org/1999/xlink" x="0px" y="0px"
	 width="20px" height="19.689px" viewBox="0 0 20 19.689" enable-background="new 0 0 20 19.689" xml:space="preserve">
<g>
	<g>
		<g>
			<path fill="#4D4E4E" d="M14.048,19.689h-8.26c-0.219,0-0.397-0.177-0.397-0.397c0-1.021,1.501-1.585,3.021-1.793v-2.148
				c0-0.22,0.178-0.397,0.399-0.397h2.378c0.222,0,0.4,0.178,0.4,0.397v2.173c1.438,0.222,2.856,0.785,2.856,1.769
				C14.446,19.513,14.268,19.689,14.048,19.689z M6.533,18.894h6.766c-0.377-0.241-1.072-0.5-2.155-0.628
				c-0.201-0.022-0.352-0.193-0.352-0.396v-2.121H9.209v2.104c0,0.204-0.154,0.376-0.358,0.396
				C7.672,18.368,6.928,18.64,6.533,18.894z"/>
		</g>
		<g>
			<path fill="#4D4E4E" d="M19.603,13.833H0.398C0.18,13.833,0,13.655,0,13.436V2.493c0-0.221,0.18-0.398,0.398-0.398h1.921
				c0.22,0,0.397,0.177,0.397,0.398c0,0.22-0.178,0.398-0.397,0.398H0.797v10.147h18.407V2.891h-1.522
				c-0.22,0-0.398-0.178-0.398-0.398c0-0.221,0.179-0.398,0.398-0.398h1.921C19.821,2.095,20,2.272,20,2.493v10.943
				C20,13.655,19.821,13.833,19.603,13.833z"/>
		</g>
		<g>
			<path fill="#4D4E4E" d="M19.603,15.749H0.398C0.18,15.749,0,15.571,0,15.351v-1.915c0-0.22,0.18-0.397,0.398-0.397h19.204
				c0.219,0,0.397,0.178,0.397,0.397v1.915C20,15.571,19.821,15.749,19.603,15.749z M0.797,14.953h18.407v-1.12H0.797V14.953z"/>
		</g>
	</g>
	<g>
		<g>
			<path fill="#4D4E4E" d="M12.078,6.84c-0.102,0-0.203-0.039-0.281-0.117l-0.074-0.074c-0.435-0.434-1.012-0.673-1.628-0.673
				c-0.612,0-1.191,0.239-1.626,0.673c-0.155,0.155-0.407,0.155-0.563,0c-0.155-0.155-0.155-0.407,0-0.562
				C8.49,5.502,9.269,5.18,10.095,5.18c0.829,0,1.606,0.322,2.191,0.908l0.072,0.073c0.157,0.156,0.157,0.408,0,0.563
				C12.281,6.802,12.181,6.84,12.078,6.84z"/>
		</g>
		<g>
			<path fill="#4D4E4E" d="M13.286,4.661c-0.102,0-0.203-0.04-0.281-0.117l-0.12-0.12c-1.55-1.55-4.071-1.55-5.622,0
				C7.107,4.58,6.856,4.58,6.7,4.424c-0.155-0.155-0.155-0.407,0-0.563C8.561,2,11.588,2,13.447,3.861l0.119,0.12
				c0.157,0.155,0.157,0.407,0,0.563C13.489,4.622,13.389,4.661,13.286,4.661z"/>
		</g>
		<g>
			<path fill="#4D4E4E" d="M14.615,2.788c-0.102,0-0.204-0.039-0.283-0.117L14.163,2.5c-1.1-1.099-2.561-1.704-4.115-1.704
				S7.031,1.402,5.932,2.5c-0.154,0.156-0.407,0.156-0.563,0c-0.154-0.155-0.154-0.407,0-0.563C6.618,0.688,8.28,0,10.048,0
				c1.766,0,3.429,0.688,4.679,1.938l0.17,0.17c0.156,0.155,0.156,0.408,0,0.563C14.818,2.749,14.717,2.788,14.615,2.788z"/>
		</g>
	</g>
</g>
</svg>
