<?xml version="1.0" encoding="utf-8"?>
<!-- Generator: Adobe Illustrator 14.0.0, SVG Export Plug-In . SVG Version: 6.00 Build 43363)  -->
<!DOCTYPE svg PUBLIC "-//W3C//DTD SVG 1.1//EN" "http://www.w3.org/Graphics/SVG/1.1/DTD/svg11.dtd">
<svg version="1.1" id="Layer_1" xmlns="http://www.w3.org/2000/svg" xmlns:xlink="http://www.w3.org/1999/xlink" x="0px" y="0px"
	 width="53.813px" height="53.813px" viewBox="0 0 53.813 53.813" enable-background="new 0 0 53.813 53.813" xml:space="preserve">
<g>
	<linearGradient id="SVGID_1_" gradientUnits="userSpaceOnUse" x1="26.9063" y1="53.2441" x2="26.9062" y2="-2.4529">
		<stop  offset="0" style="stop-color:#4F6BB3"/>
		<stop  offset="1" style="stop-color:#617ABC"/>
	</linearGradient>
	<path fill-rule="evenodd" clip-rule="evenodd" fill="url(#SVGID_1_)" d="M11.944,0h29.925c6.569,0,11.944,5.375,11.944,11.944
		v29.925c0,6.568-5.375,11.943-11.944,11.943H11.944C5.375,53.813,0,48.438,0,41.869V11.944C0,5.375,5.375,0,11.944,0z"/>
	<path fill="#AAB4DC" d="M25.765,44.729l-2.875-0.771l5.158-19.25l2.875,0.771L25.765,44.729z M32.641,40.763l-1.719-2.431
		l5.11-3.612l-5.11-3.613l1.719-2.431l8.546,6.044L32.641,40.763z M21.172,40.763l-8.547-6.043l8.547-6.044l1.719,2.431l-5.11,3.613
		l5.11,3.612L21.172,40.763z"/>
	<g>
		<path fill="#FFFFFF" d="M19.452,9.605c0.888,0,1.628,0.313,2.22,0.941c0.592,0.629,0.888,1.444,0.888,2.448
			s-0.298,1.828-0.894,2.472c-0.596,0.645-1.334,0.967-2.214,0.967c-0.52,0-0.976-0.122-1.368-0.366
			c-0.392-0.244-0.704-0.57-0.936-0.979v4.38H15.78V9.713h1.368v1.177c0.224-0.385,0.534-0.694,0.93-0.931
			C18.475,9.724,18.932,9.605,19.452,9.605z M20.568,14.627c0.4-0.412,0.6-0.958,0.6-1.638s-0.198-1.216-0.594-1.608
			c-0.396-0.392-0.868-0.588-1.416-0.588s-1.02,0.2-1.416,0.601c-0.396,0.399-0.594,0.939-0.594,1.62
			c0,0.68,0.198,1.222,0.594,1.626c0.396,0.403,0.866,0.605,1.41,0.605S20.168,15.039,20.568,14.627z"/>
		<path fill="#FFFFFF" d="M25.284,7.445v3.312c0.44-0.768,1.144-1.151,2.112-1.151c0.744,0,1.358,0.248,1.842,0.744
			c0.484,0.496,0.726,1.188,0.726,2.075v3.9h-1.356v-3.696c0-0.592-0.148-1.046-0.444-1.361c-0.296-0.316-0.7-0.475-1.212-0.475
			c-0.512,0-0.918,0.158-1.218,0.475c-0.3,0.315-0.45,0.77-0.45,1.361v3.696h-1.368v-8.88H25.284z"/>
		<path fill="#FFFFFF" d="M35.376,9.605c0.888,0,1.628,0.313,2.22,0.941c0.592,0.629,0.888,1.444,0.888,2.448
			s-0.298,1.828-0.894,2.472c-0.596,0.645-1.334,0.967-2.214,0.967c-0.52,0-0.976-0.122-1.368-0.366
			c-0.392-0.244-0.704-0.57-0.936-0.979v4.38h-1.368V9.713h1.368v1.177c0.224-0.385,0.534-0.694,0.93-0.931
			C34.398,9.724,34.856,9.605,35.376,9.605z M36.492,14.627c0.4-0.412,0.6-0.958,0.6-1.638s-0.198-1.216-0.594-1.608
			c-0.396-0.392-0.868-0.588-1.416-0.588s-1.02,0.2-1.416,0.601c-0.396,0.399-0.594,0.939-0.594,1.62
			c0,0.68,0.198,1.222,0.594,1.626c0.396,0.403,0.866,0.605,1.41,0.605S36.092,15.039,36.492,14.627z"/>
	</g>
</g>
</svg>
