<?xml version="1.0" encoding="utf-8"?>
<!-- Generator: Adobe Illustrator 14.0.0, SVG Export Plug-In . SVG Version: 6.00 Build 43363)  -->
<!DOCTYPE svg PUBLIC "-//W3C//DTD SVG 1.1//EN" "http://www.w3.org/Graphics/SVG/1.1/DTD/svg11.dtd">
<svg version="1.1" id="Layer_1" xmlns="http://www.w3.org/2000/svg" xmlns:xlink="http://www.w3.org/1999/xlink" x="0px" y="0px"
	 width="53.813px" height="53.813px" viewBox="0 0 53.813 53.813" enable-background="new 0 0 53.813 53.813" xml:space="preserve">
<g>
	<linearGradient id="SVGID_1_" gradientUnits="userSpaceOnUse" x1="26.9063" y1="53.6665" x2="26.9062" y2="9.4708">
		<stop  offset="0" style="stop-color:#4F6BB3"/>
		<stop  offset="1" style="stop-color:#617ABC"/>
	</linearGradient>
	<path fill-rule="evenodd" clip-rule="evenodd" fill="url(#SVGID_1_)" d="M11.944,0h29.925c6.569,0,11.943,5.375,11.943,11.944
		v29.925c0,6.569-5.374,11.944-11.943,11.944H11.944C5.375,53.813,0,48.438,0,41.869V11.944C0,5.375,5.375,0,11.944,0z"/>
	<path fill-rule="evenodd" clip-rule="evenodd" fill="#FFFFFF" d="M25.305,9.339v0.784c-0.602-0.504-1.344-0.784-2.143-0.784
		c-1.875,0-3.401,1.554-3.401,3.479c0,0.661,0.182,1.251,0.476,1.799c0.238,0.378,0.532,0.742,0.91,1.036
		c0.561,0.406,1.246,0.672,2.016,0.672c0.799,0,1.526-0.28,2.087-0.77c0.042,0,0.014-0.014,0.056-0.014v0.126v1.186
		c-0.252,0.919-1.078,1.615-2.086,1.615c-0.966,0-1.792-0.667-2.072-1.573l-0.756,1.295c0.63,0.936,1.638,1.552,2.828,1.552
		c0.784,0,1.484-0.28,2.086-0.742c0.798-0.627,1.315-1.631,1.315-2.744V9.339H25.305L25.305,9.339z M23.162,15.037
		c-0.518,0-0.966-0.154-1.344-0.462c-0.336-0.269-0.56-0.619-0.714-1.055c-0.069-0.224-0.112-0.464-0.112-0.703
		c0-1.236,0.967-2.233,2.17-2.233c1.106,0,1.988,0.856,2.143,1.939c-0.042,0.703-0.056,0.829-0.07,0.926
		c-0.153,0.437-0.378,0.801-0.7,1.083C24.156,14.855,23.709,15.037,23.162,15.037L23.162,15.037z M21.146,16.853h0.028l-0.028,0.042
		V16.853L21.146,16.853z M28.776,9.316h-1.26v7.009h1.26V9.316L28.776,9.316z M27.475,7.267c0,0.364,0.294,0.658,0.658,0.658
		c0.35,0,0.658-0.294,0.658-0.658c0-0.35-0.309-0.658-0.658-0.658C27.769,6.609,27.475,6.917,27.475,7.267L27.475,7.267z
		 M31.772,9.325L31.772,9.325c0-1.288,1.064-2.156,2.311-2.156V5.853c-1.96,0-3.557,1.442-3.557,3.458v0.014h-1.05v1.26h1.05
		l0.015,5.74h1.245l-0.014-5.74h2.324v-1.26H31.772z"/>
	<path fill="#AAB4DC" d="M32.835,45.914h-2.976c0-2.108-0.413-4.152-1.227-6.076c-0.786-1.858-1.912-3.528-3.346-4.962
		c-1.435-1.434-3.104-2.56-4.963-3.346l1.16-2.741c2.214,0.937,4.201,2.276,5.907,3.983c1.706,1.706,3.046,3.693,3.982,5.907
		C32.344,40.971,32.835,43.405,32.835,45.914z"/>
	<path fill-rule="evenodd" clip-rule="evenodd" fill="#AAB4DC" d="M14.044,23.743H39.77h1.487v1.488v19.075v1.488H39.77H14.044
		h-1.488v-1.488V25.231v-1.488H14.044L14.044,23.743z M38.281,26.719H15.532v16.099h22.749V26.719z"/>
	<circle fill-rule="evenodd" clip-rule="evenodd" fill="#FFFFFF" cx="21.809" cy="30.573" r="2.712"/>
	<rect x="12.556" y="42.818" fill-rule="evenodd" clip-rule="evenodd" fill="#FFFFFF" width="27.214" height="2.976"/>
	<polygon fill-rule="evenodd" clip-rule="evenodd" fill="#FFFFFF" points="12.556,42.818 18.772,36.602 19.824,35.549 
		20.877,36.602 24.557,40.281 22.452,42.385 19.824,39.758 14.66,44.922 	"/>
	<path fill-rule="evenodd" clip-rule="evenodd" fill="#FFFFFF" d="M33.961,31.749l6.86,6.86l0.436,0.436v0.616v4.645v1.488H39.77
		H21.403h-3.592l2.54-2.541l11.505-11.505l1.053-1.052L33.961,31.749L33.961,31.749z M38.281,40.277l-5.372-5.372l-7.913,7.913
		h13.285V40.277z"/>
</g>
</svg>
