<?xml version="1.0" encoding="utf-8"?>
<!-- Generator: Adobe Illustrator 14.0.0, SVG Export Plug-In . SVG Version: 6.00 Build 43363)  -->
<!DOCTYPE svg PUBLIC "-//W3C//DTD SVG 1.1//EN" "http://www.w3.org/Graphics/SVG/1.1/DTD/svg11.dtd">
<svg version="1.1" id="暠꿔_1" xmlns="http://www.w3.org/2000/svg" xmlns:xlink="http://www.w3.org/1999/xlink" x="0px" y="0px"
	 width="16px" height="15.988px" viewBox="0 0 16 15.988" enable-background="new 0 0 16 15.988" xml:space="preserve">
<g>
	<path fill="#E1BB42" d="M7.439,9.51c-0.282,0-0.511-0.23-0.511-0.512V7.296c0-0.283,0.229-0.512,0.511-0.512h1.158
		c0.281,0,0.51,0.229,0.51,0.512v1.702c0,0.281-0.229,0.512-0.51,0.512H7.439z"/>
	<path fill="#647076" d="M9.312,8.045V7.296c0-0.395-0.321-0.716-0.715-0.716H7.439c-0.395,0-0.715,0.321-0.715,0.716v0.749H1.276
		c-0.282,0-0.511-0.229-0.511-0.511v-3.89c0-0.281,0.229-0.51,0.511-0.51l13.483,0c0.283,0,0.513,0.229,0.513,0.51v3.89
		c0,0.282-0.229,0.511-0.513,0.511H9.312z"/>
	<path fill="#586267" d="M2.008,15.26c-0.281,0-0.511-0.229-0.511-0.51v-6.5h5.228v0.749c0,0.393,0.32,0.715,0.715,0.715h1.158
		c0.394,0,0.715-0.322,0.715-0.715V8.249h5.227v6.502c0,0.279-0.229,0.508-0.51,0.508H2.008z"/>
	<path fill="#604C55" d="M14.76,2.725H10.98v-1.46c0-0.507-0.412-0.919-0.919-0.919l-4.086,0c-0.507,0-0.92,0.413-0.92,0.919v1.46
		H1.276c-0.507,0-0.92,0.413-0.92,0.919v3.89c0,0.442,0.315,0.813,0.732,0.9v6.316c0,0.508,0.413,0.92,0.919,0.92h12.021
		c0.506,0,0.919-0.412,0.919-0.918V8.433c0.418-0.086,0.731-0.457,0.731-0.9v-3.89C15.679,3.137,15.268,2.725,14.76,2.725z
		 M5.668,1.264c0-0.169,0.138-0.306,0.307-0.306h4.086c0.169,0,0.306,0.137,0.306,0.306v1.46H5.668V1.264z M14.029,15.056H2.008
		c-0.169,0-0.307-0.135-0.307-0.307V8.453H6.52v0.545c0,0.508,0.412,0.92,0.919,0.92h1.158c0.507,0,0.919-0.412,0.919-0.92V8.452
		h4.817v6.299C14.334,14.922,14.198,15.056,14.029,15.056z M7.133,8.998V7.296c0-0.169,0.138-0.307,0.307-0.307h1.158
		c0.168,0,0.306,0.138,0.306,0.307v1.702c0,0.17-0.138,0.307-0.306,0.307H7.439C7.27,9.304,7.133,9.168,7.133,8.998z M15.067,7.533
		c0,0.169-0.139,0.307-0.308,0.307H9.516V7.296c0-0.508-0.412-0.92-0.919-0.92H7.439c-0.508,0-0.919,0.413-0.919,0.92V7.84H1.276
		c-0.169,0-0.307-0.138-0.307-0.307v-3.89c0-0.168,0.138-0.307,0.307-0.307H14.76c0.169,0,0.308,0.138,0.308,0.307V7.533z"/>
</g>
</svg>
