<?xml version="1.0" encoding="utf-8"?>
<!-- Generator: Adobe Illustrator 14.0.0, SVG Export Plug-In . SVG Version: 6.00 Build 43363)  -->
<!DOCTYPE svg PUBLIC "-//W3C//DTD SVG 1.1//EN" "http://www.w3.org/Graphics/SVG/1.1/DTD/svg11.dtd">
<svg version="1.1" id="Layer_1" xmlns="http://www.w3.org/2000/svg" xmlns:xlink="http://www.w3.org/1999/xlink" x="0px" y="0px"
	 width="53.813px" height="53.813px" viewBox="0 0 53.813 53.813" enable-background="new 0 0 53.813 53.813" xml:space="preserve">
<g>
	<linearGradient id="SVGID_1_" gradientUnits="userSpaceOnUse" x1="26.9063" y1="53.2441" x2="26.9062" y2="-2.4524">
		<stop  offset="0" style="stop-color:#177DBB"/>
		<stop  offset="0.28" style="stop-color:#2B87C8"/>
		<stop  offset="1" style="stop-color:#328FCE"/>
	</linearGradient>
	<path fill-rule="evenodd" clip-rule="evenodd" fill="url(#SVGID_1_)" d="M11.944,0h29.925c6.569,0,11.944,5.375,11.944,11.944
		v29.925c0,6.569-5.375,11.944-11.944,11.944H11.944C5.375,53.813,0,48.438,0,41.869V11.944C0,5.375,5.375,0,11.944,0z"/>
	<path fill-rule="evenodd" clip-rule="evenodd" fill="#7CB6E3" d="M9.91,23.965h33.992v2.977H9.91V23.965L9.91,23.965z M9.91,30.01
		h33.992v2.977H9.91V30.01L9.91,30.01z M9.91,36.054h33.992v2.977H9.91V36.054L9.91,36.054z M9.91,42.099h33.992v2.977H9.91V42.099z
		"/>
	<g>
		<path fill="#FFFFFF" d="M14.945,15.497c-0.6-0.624-0.9-1.45-0.9-2.478c0-1.028,0.302-1.854,0.906-2.478s1.382-0.936,2.334-0.936
			c0.8,0,1.462,0.19,1.986,0.57s0.878,0.922,1.062,1.626h-1.476c-0.248-0.696-0.772-1.044-1.572-1.044
			c-0.56,0-1.006,0.198-1.338,0.594c-0.332,0.396-0.498,0.95-0.498,1.662s0.166,1.268,0.498,1.668c0.332,0.4,0.778,0.6,1.338,0.6
			c0.792,0,1.316-0.348,1.572-1.044h1.476c-0.192,0.672-0.552,1.206-1.08,1.602c-0.528,0.396-1.184,0.594-1.968,0.594
			C16.325,16.433,15.545,16.121,14.945,15.497z"/>
		<path fill="#FFFFFF" d="M23.069,7.445v3.312c0.44-0.768,1.144-1.152,2.112-1.152c0.744,0,1.358,0.248,1.842,0.744
			c0.484,0.496,0.726,1.188,0.726,2.076v3.9h-1.356v-3.696c0-0.592-0.148-1.046-0.444-1.362c-0.296-0.316-0.7-0.474-1.212-0.474
			c-0.512,0-0.918,0.158-1.218,0.474c-0.3,0.316-0.45,0.77-0.45,1.362v3.696h-1.368v-8.88H23.069z"/>
		<path fill="#FFFFFF" d="M30.857,9.713v1.044c0.44-0.768,1.144-1.152,2.112-1.152c0.512,0,0.968,0.12,1.368,0.36
			c0.4,0.24,0.704,0.588,0.912,1.044c0.232-0.44,0.554-0.784,0.966-1.032c0.412-0.248,0.878-0.372,1.398-0.372
			c0.76,0,1.384,0.246,1.872,0.738c0.488,0.492,0.732,1.186,0.732,2.082v3.9h-1.368v-3.696c0-0.592-0.148-1.046-0.444-1.362
			c-0.296-0.316-0.7-0.474-1.212-0.474c-0.512,0-0.916,0.158-1.212,0.474c-0.296,0.316-0.444,0.77-0.444,1.362v3.696h-1.356v-3.696
			c0-0.592-0.148-1.046-0.444-1.362c-0.296-0.316-0.7-0.474-1.212-0.474c-0.512,0-0.918,0.158-1.218,0.474
			c-0.3,0.316-0.45,0.77-0.45,1.362v3.696h-1.368V9.713H30.857z"/>
	</g>
</g>
</svg>
