<?xml version="1.0" encoding="utf-8"?>
<!-- Generator: Adobe Illustrator 14.0.0, SVG Export Plug-In . SVG Version: 6.00 Build 43363)  -->
<!DOCTYPE svg PUBLIC "-//W3C//DTD SVG 1.1//EN" "http://www.w3.org/Graphics/SVG/1.1/DTD/svg11.dtd">
<svg version="1.1" id="Layer_1" xmlns="http://www.w3.org/2000/svg" xmlns:xlink="http://www.w3.org/1999/xlink" x="0px" y="0px"
	 width="19.725px" height="19.689px" viewBox="0 0 19.725 19.689" enable-background="new 0 0 19.725 19.689" xml:space="preserve">
<g>
	<path d="M8.725,19.003c1.104,0,2-0.896,2-2h-4C6.725,18.107,7.62,19.003,8.725,19.003z"/>
	<path d="M15.951,13.816l-0.242-0.236V9c0-1.234-0.34-2.382-0.903-3.389l4.92-4.92L19,0.003l-19,19l0.725,0.688l3.654-3.654h10.439
		c1.342,0,1.906-0.698,1.906-1.032C16.724,14.003,15.951,13.816,15.951,13.816z M5.415,15l8.612-8.61
		c0.365,0.769,0.584,1.618,0.584,2.523L14.703,14l1.021,1H5.415z"/>
	<path d="M1.229,15.499L1.728,15H1.725l0.019-0.017l1.15-1.149L2.805,8.913C2.805,5.652,5.453,3,8.707,3
		c1.402,0,2.691,0.495,3.705,1.314l0.726-0.724c-0.966-0.789-2.143-1.327-3.434-1.513V0.978C9.703,0.438,9.265,0,8.724,0
		s-0.98,0.438-0.98,0.979v1.096C4.34,2.547,1.708,5.468,1.708,9v4.589l-0.23,0.226c0,0-0.752,0.187-0.559,1.187
		C0.944,15.13,1.041,15.317,1.229,15.499z"/>
</g>
</svg>
