<?xml version="1.0" encoding="utf-8"?>
<!-- Generator: Adobe Illustrator 14.0.0, SVG Export Plug-In . SVG Version: 6.00 Build 43363)  -->
<!DOCTYPE svg PUBLIC "-//W3C//DTD SVG 1.1//EN" "http://www.w3.org/Graphics/SVG/1.1/DTD/svg11.dtd">
<svg version="1.1" id="Layer_1" xmlns="http://www.w3.org/2000/svg" xmlns:xlink="http://www.w3.org/1999/xlink" x="0px" y="0px"
	 width="19.54px" height="18.887px" viewBox="0 0 19.54 18.887" enable-background="new 0 0 19.54 18.887" xml:space="preserve">
<g>
	<g>
		<path fill="#4D4E4E" d="M1.67,18.887c-0.044,0-0.087-0.007-0.131-0.021c-0.221-0.072-0.343-0.311-0.271-0.531L7.184,0.26
			c0.114-0.347,0.688-0.347,0.802,0l5.913,18.074c0.072,0.222-0.048,0.459-0.27,0.531c-0.221,0.071-0.459-0.048-0.531-0.27
			L7.585,1.746L2.07,18.596C2.013,18.774,1.848,18.887,1.67,18.887z"/>
	</g>
	<g>
		<g>
			<path fill="#4D4E4E" d="M3.244,18.887H0.421C0.188,18.887,0,18.698,0,18.465s0.188-0.422,0.421-0.422h2.823
				c0.231,0,0.421,0.189,0.421,0.422S3.476,18.887,3.244,18.887z"/>
		</g>
		<g>
			<path fill="#4D4E4E" d="M14.748,18.887h-2.822c-0.232,0-0.422-0.189-0.422-0.422s0.189-0.422,0.422-0.422h2.822
				c0.232,0,0.421,0.189,0.421,0.422S14.98,18.887,14.748,18.887z"/>
		</g>
	</g>
	<g>
		<path fill="#4D4E4E" d="M11.362,13.313H3.8c-0.231,0-0.421-0.189-0.421-0.422s0.189-0.422,0.421-0.422h7.563
			c0.232,0,0.422,0.189,0.422,0.422S11.595,13.313,11.362,13.313z"/>
	</g>
	<g>
		<path fill="#4D4E4E" d="M15.483,9.422c-0.74,0-1.351-0.224-1.813-0.667c-0.474-0.451-0.714-1.007-0.714-1.651
			c0-0.637,0.215-1.144,0.644-1.507c0.363-0.319,0.77-0.542,1.203-0.662c0.365-0.098,1.031-0.251,1.984-0.46
			c0.959-0.215,1.647-0.402,2.102-0.575c0.13-0.049,0.275-0.031,0.389,0.047c0.113,0.078,0.183,0.208,0.183,0.347v0.497
			c0,1.288-0.17,2.205-0.517,2.806c-0.297,0.537-0.773,0.986-1.411,1.325C16.914,9.253,16.225,9.422,15.483,9.422z M18.617,4.878
			c-0.437,0.131-0.98,0.269-1.647,0.419c-0.937,0.206-1.59,0.354-1.947,0.451c-0.311,0.086-0.597,0.245-0.874,0.487
			c-0.236,0.202-0.351,0.486-0.351,0.869c0,0.416,0.144,0.747,0.453,1.041c0.306,0.292,0.709,0.434,1.232,0.434
			c0.609,0,1.149-0.131,1.652-0.401c0.492-0.262,0.853-0.597,1.075-0.997C18.474,6.725,18.609,5.953,18.617,4.878z"/>
	</g>
	<g>
		<path fill="#4D4E4E" d="M19.119,9.343c-0.233,0-0.421-0.188-0.421-0.421v-5.5c0-1.202-0.915-2.179-2.039-2.179h-0.58
			c-0.817,0-1.554,0.519-1.876,1.323c-0.086,0.216-0.334,0.319-0.546,0.234c-0.218-0.086-0.321-0.332-0.235-0.547
			c0.45-1.125,1.494-1.853,2.657-1.853h0.58c1.588,0,2.881,1.355,2.881,3.022v5.5C19.54,9.154,19.352,9.343,19.119,9.343z"/>
	</g>
</g>
</svg>
