<?xml version="1.0" encoding="utf-8"?>
<!-- Generator: Adobe Illustrator 14.0.0, SVG Export Plug-In . SVG Version: 6.00 Build 43363)  -->
<!DOCTYPE svg PUBLIC "-//W3C//DTD SVG 1.1//EN" "http://www.w3.org/Graphics/SVG/1.1/DTD/svg11.dtd">
<svg version="1.1" id="Layer_1_copy" xmlns="http://www.w3.org/2000/svg" xmlns:xlink="http://www.w3.org/1999/xlink" x="0px"
	 y="0px" width="16px" height="16px" viewBox="2 2 16 16" enable-background="new 2 2 16 16" xml:space="preserve">
<g>
	<path d="M14.877,18.062c-3.121,0-6.353-1.443-8.868-3.959C3.368,11.46,1.927,8.142,2.003,4.947l0.002-0.121L2.08,4.733
		c0.222-0.284,0.441-0.531,0.67-0.762c0.842-0.841,1.831-1.485,2.938-1.913C5.789,2.019,5.903,2,6.03,2
		C6.415,2,7.045,2.203,7.18,2.572C7.571,3.66,8.066,5.08,8.424,6.433c0.067,0.259-0.007,1.02-0.378,1.251L6.768,8.495
		c-0.086,0.053-0.12,0.148-0.135,0.221C6.591,8.934,6.67,9.215,6.842,9.449c0.505,0.693,1.091,1.38,1.739,2.039
		c0.655,0.645,1.339,1.227,2.03,1.729c0.348,0.255,0.828,0.281,0.953,0.08l0.813-1.286c0.251-0.391,1.027-0.395,1.035-0.395
		c0.077,0,0.145,0.006,0.199,0.019c1.656,0.368,2.64,0.686,3.901,1.256c0.389,0.176,0.669,1.022,0.487,1.483
		c-0.428,1.105-1.071,2.095-1.909,2.936c-0.236,0.233-0.493,0.458-0.764,0.671l-0.097,0.075L14.877,18.062z M2.723,5.084
		c-0.033,2.961,1.329,6.038,3.746,8.457l0.054,0.055c2.378,2.376,5.422,3.742,8.354,3.742l0.101-0.001
		c0.214-0.174,0.417-0.353,0.605-0.541c0.766-0.768,1.354-1.672,1.744-2.688c0.051-0.119-0.065-0.496-0.155-0.585
		c-1.165-0.522-2.114-0.829-3.714-1.185c-0.226,0.009-0.449,0.06-0.504,0.1l-0.777,1.24c-0.347,0.562-1.301,0.626-1.991,0.121
		c-0.717-0.522-1.429-1.128-2.114-1.802c-0.677-0.688-1.287-1.401-1.813-2.123C5.968,9.479,5.843,8.993,5.925,8.577
		c0.059-0.301,0.221-0.549,0.46-0.694l1.275-0.81C7.686,7.021,7.742,6.71,7.724,6.611C7.375,5.292,6.885,3.891,6.5,2.819
		c-0.033,0.02-0.271-0.097-0.47-0.097c-0.055,0-0.079,0.01-0.08,0.01C4.938,3.123,4.033,3.712,3.262,4.48
		C3.08,4.664,2.901,4.863,2.723,5.084z"/>
</g>
</svg>
