<?xml version="1.0" encoding="utf-8"?>
<!-- Generator: Adobe Illustrator 14.0.0, SVG Export Plug-In . SVG Version: 6.00 Build 43363)  -->
<!DOCTYPE svg PUBLIC "-//W3C//DTD SVG 1.1//EN" "http://www.w3.org/Graphics/SVG/1.1/DTD/svg11.dtd">
<svg version="1.1" id="Layer_1" xmlns="http://www.w3.org/2000/svg" xmlns:xlink="http://www.w3.org/1999/xlink" x="0px" y="0px"
	 width="53.813px" height="53.813px" viewBox="0 0 53.813 53.813" enable-background="new 0 0 53.813 53.813" xml:space="preserve">
<g>
	<linearGradient id="SVGID_1_" gradientUnits="userSpaceOnUse" x1="26.9063" y1="53.2441" x2="26.9062" y2="-2.4529">
		<stop  offset="0" style="stop-color:#4F6BB3"/>
		<stop  offset="1" style="stop-color:#617ABC"/>
	</linearGradient>
	<path fill-rule="evenodd" clip-rule="evenodd" fill="url(#SVGID_1_)" d="M11.944,0h29.925c6.569,0,11.944,5.375,11.944,11.944
		v29.925c0,6.568-5.375,11.943-11.944,11.943H11.944C5.375,53.813,0,48.438,0,41.869V11.944C0,5.375,5.375,0,11.944,0z"/>
	<path fill="#AAB4DC" d="M25.765,44.729l-2.875-0.771l5.158-19.25l2.875,0.771L25.765,44.729z M32.641,40.763l-1.719-2.431
		l5.11-3.612l-5.11-3.613l1.719-2.431l8.546,6.044L32.641,40.763z M21.172,40.763l-8.547-6.043l8.547-6.044l1.719,2.431l-5.11,3.613
		l5.11,3.612L21.172,40.763z"/>
	<g>
		<path fill="#FFFFFF" d="M16.254,15.467c-0.6-0.644-0.9-1.468-0.9-2.472s0.298-1.819,0.894-2.448
			c0.596-0.628,1.338-0.941,2.226-0.941c0.52,0,0.978,0.118,1.374,0.354c0.396,0.236,0.702,0.546,0.918,0.931V9.713h1.38v6.612
			h-1.38v-1.236c-0.224,0.408-0.532,0.734-0.924,0.979c-0.392,0.244-0.848,0.366-1.368,0.366
			C17.594,16.434,16.854,16.111,16.254,15.467z M20.172,14.64c0.396-0.404,0.594-0.946,0.594-1.626c0-0.681-0.198-1.221-0.594-1.62
			c-0.396-0.4-0.866-0.601-1.41-0.601s-1.014,0.196-1.41,0.588c-0.396,0.393-0.594,0.929-0.594,1.608s0.198,1.226,0.594,1.638
			s0.866,0.618,1.41,0.618S19.776,15.043,20.172,14.64z"/>
		<path fill="#FFFFFF" d="M23.646,11.609c0-0.56,0.236-1.034,0.708-1.422c0.472-0.389,1.092-0.582,1.86-0.582
			s1.378,0.189,1.83,0.569c0.452,0.381,0.694,0.898,0.726,1.555h-1.404c-0.024-0.328-0.138-0.584-0.342-0.769
			c-0.204-0.184-0.49-0.275-0.858-0.275c-0.368,0-0.656,0.082-0.864,0.246s-0.312,0.38-0.312,0.647c0,0.269,0.132,0.479,0.396,0.63
			c0.264,0.152,0.586,0.265,0.966,0.336c0.38,0.072,0.76,0.16,1.14,0.265c0.38,0.104,0.702,0.294,0.966,0.569
			c0.264,0.276,0.396,0.646,0.396,1.11c0,0.576-0.242,1.044-0.726,1.404c-0.484,0.359-1.106,0.54-1.866,0.54
			c-0.76,0-1.376-0.185-1.848-0.553c-0.472-0.367-0.732-0.892-0.78-1.571h1.416c0.024,0.328,0.144,0.584,0.36,0.768
			c0.216,0.185,0.51,0.276,0.882,0.276s0.668-0.082,0.888-0.246c0.22-0.164,0.33-0.382,0.33-0.654c0-0.271-0.132-0.483-0.396-0.636
			c-0.264-0.152-0.586-0.266-0.966-0.342s-0.76-0.164-1.14-0.265c-0.38-0.1-0.702-0.282-0.966-0.546
			C23.778,12.401,23.646,12.049,23.646,11.609z"/>
		<path fill="#FFFFFF" d="M34.026,9.605c0.888,0,1.628,0.313,2.22,0.941c0.592,0.629,0.888,1.444,0.888,2.448
			s-0.298,1.828-0.894,2.472c-0.596,0.645-1.334,0.967-2.214,0.967c-0.52,0-0.976-0.122-1.368-0.366
			c-0.392-0.244-0.704-0.57-0.936-0.979v4.38h-1.368V9.713h1.368v1.177c0.224-0.385,0.534-0.694,0.93-0.931
			C33.048,9.724,33.506,9.605,34.026,9.605z M35.142,14.627c0.4-0.412,0.6-0.958,0.6-1.638s-0.198-1.216-0.594-1.608
			c-0.396-0.392-0.868-0.588-1.416-0.588s-1.02,0.2-1.416,0.601c-0.396,0.399-0.594,0.939-0.594,1.62
			c0,0.68,0.198,1.222,0.594,1.626c0.396,0.403,0.866,0.605,1.41,0.605S34.742,15.039,35.142,14.627z"/>
	</g>
</g>
</svg>
