<svg xmlns="http://www.w3.org/2000/svg" width="172" height="77" viewBox="0 0 172 77">
  <metadata><?xpacket begin="﻿" id="W5M0MpCehiHzreSzNTczkc9d"?>
<x:xmpmeta xmlns:x="adobe:ns:meta/" x:xmptk="Adobe XMP Core 5.6-c142 79.160924, 2017/07/13-01:06:39        ">
   <rdf:RDF xmlns:rdf="http://www.w3.org/1999/02/22-rdf-syntax-ns#">
      <rdf:Description rdf:about=""/>
   </rdf:RDF>
</x:xmpmeta>
                                                                                                    
                                                                                                    
                                                                                                    
                                                                                                    
                                                                                                    
                                                                                                    
                                                                                                    
                                                                                                    
                                                                                                    
                                                                                                    
                                                                                                    
                                                                                                    
                                                                                                    
                                                                                                    
                                                                                                    
                                                                                                    
                                                                                                    
                                                                                                    
                                                                                                    
                                                                                                    
                           
<?xpacket end="w"?></metadata>
<defs>
    <style>
      .cls-1 {
        fill: #fff;
        fill-rule: evenodd;
      }
    </style>
  </defs>
  <path id="logo" class="cls-1" d="M81.69,37.969C73,25.98,53.677,45.62,55.287,58.9c0.26,15.166,24.851-1.013,24.4-18.437A2.625,2.625,0,0,1,81.69,37.969ZM108.232,76.7c7.1,1.129,17.219-3.127,26.776-20.327,9.724,21.314,23.119,27.347,34.968,16,7.727-7.777-1.158-12.766-6.631-7.905-3.22,3.564-10.818,7.583-23.375-13.8,23.5-11.341,28.976-15.943,28.976-15.943,7.084-6.48-2.253-13.933-7.727-7.129,0,0-6.37,6.867-19.319,12.961,0,0,3.864-6.157,11.269-25.274,3.864-6.481-7.723-15.1-10.109-5.184-12.332,38.857-22.154,54.075-29.371,57.214-5.21,2.719-9.514,1.112-8.191-5.657C116.864,36.915,118.91,7.828,116.312,3.015c-3.637-6.741-19.056,1.108-17.651,59.193a28.051,28.051,0,0,1-8.613,7.516C81.475,74.386,81.88,54.969,89,40.111c0.065-.325,1.707-2.79-0.869-2.466C92,26.137,77.221,23.13,64.947,28.845c-9.153,4.262-15.2,13.519-20.285,26.945-5.152,10.045-21,13.423-17.581.388,0,0,1.16-4.277,5.346-17.238l11.336-.974C57.989,34.858,54.45,25.01,47.882,27.276c-3.22,1.3-10.625,1.3-10.625,1.3l4.508-8.1c4.186-7.129-5.152-13.285-8.05-6.8L26.309,28.572,4.55,27.407c-6.631-.129-3.223,11.146,3.99,11.6l12.295,0.259c-5.8,16.384-8.363,28.046-3.52,33.952,5.6,6.826,18.3,5.877,28.312-5.762C48.2,77.5,64.3,82.684,75.25,65.187c0,8.461,7.42,16.273,16.355,10.593,2.647-1.443,5.313-4.26,7.629-8.089C101.6,72.8,105.806,76.425,108.232,76.7Zm0.141-37.749c3.719-40.077,5.239-33.1,6.794-31.531C116.97,11.643,108.051,39.681,108.373,38.954Z"/>
</svg>
