<?xml version="1.0" encoding="utf-8"?>
<!-- Generator: Adobe Illustrator 14.0.0, SVG Export Plug-In . SVG Version: 6.00 Build 43363)  -->
<!DOCTYPE svg PUBLIC "-//W3C//DTD SVG 1.1//EN" "http://www.w3.org/Graphics/SVG/1.1/DTD/svg11.dtd">
<svg version="1.1" xmlns="http://www.w3.org/2000/svg" xmlns:xlink="http://www.w3.org/1999/xlink" x="0px" y="0px"
	 width="40.877px" height="45px" viewBox="0 0 40.877 45" enable-background="new 0 0 40.877 45" xml:space="preserve">
<g id="bg">
</g>
<g id="icons">
	<g>
		<g>
			<path fill="#44444D" d="M16.876,22.379c0.787,0.346,1.712-0.011,2.06-0.801c0.348-0.79-0.012-1.712-0.802-2.059
				c-4.586-2.017-6.204-6.787-5.434-10.458c0.782-3.717,3.642-5.936,7.651-5.936c2.57,0,4.577,0.842,5.963,2.503
				c1.674,2.007,2.074,4.819,1.729,6.717c-0.783,4.293-3.673,7.737-9.097,10.837c-0.749,0.428-1.009,1.383-0.58,2.132
				c0.287,0.505,0.814,0.787,1.356,0.787c0.264,0,0.53-0.066,0.774-0.206c3.954-2.261,9.358-6.067,10.62-12.99
				c0.441-2.422,0.076-6.307-2.403-9.279C27.334,1.972,24.763,0,20.352,0C13.76,0,10.498,4.349,9.643,8.418
				C8.612,13.322,10.766,19.692,16.876,22.379z"/>
			<path fill="#44444D" d="M39.562,29.128c-1.761-4.599-9.325-7.5-10.182-7.816c-0.767-0.283-1.619,0.072-1.96,0.813
				c-0.045,0.096-3.907,8.472-6.963,13.395c-3.057-4.922-6.918-13.298-6.963-13.395c-0.341-0.741-1.194-1.097-1.96-0.813
				c-0.856,0.315-8.423,3.217-10.183,7.814c-1.102,2.871-1.049,5.941-1.002,8.649c0.009,0.499,0.018,0.984,0.018,1.45
				c0,0.863,0.698,1.563,1.562,1.563s1.563-0.699,1.563-1.563c0-0.483-0.009-0.986-0.018-1.504c-0.041-2.423-0.089-5.17,0.796-7.476
				c0.877-2.289,4.626-4.379,7.022-5.454c1.488,3.146,5.249,10.871,7.909,14.463c0.014,0.019,0.031,0.032,0.046,0.05
				c0.034,0.042,0.071,0.082,0.109,0.121c0.039,0.039,0.078,0.075,0.12,0.108c0.018,0.015,0.032,0.032,0.051,0.046
				c0.021,0.015,0.044,0.024,0.064,0.039c0.047,0.031,0.095,0.06,0.145,0.086c0.044,0.023,0.088,0.043,0.132,0.062
				c0.048,0.02,0.096,0.036,0.146,0.051c0.049,0.015,0.097,0.027,0.146,0.037c0.049,0.009,0.098,0.016,0.147,0.021
				s0.099,0.008,0.147,0.008c0.052,0,0.103-0.003,0.154-0.008c0.048-0.004,0.095-0.01,0.142-0.02
				c0.052-0.01,0.103-0.023,0.152-0.038c0.048-0.014,0.093-0.03,0.14-0.049c0.046-0.019,0.092-0.04,0.137-0.063
				c0.048-0.025,0.095-0.054,0.142-0.084c0.021-0.015,0.044-0.024,0.065-0.04c0.02-0.014,0.033-0.032,0.051-0.046
				c0.042-0.033,0.08-0.069,0.119-0.107c0.039-0.04,0.076-0.08,0.111-0.123c0.014-0.018,0.031-0.031,0.044-0.049
				c2.659-3.591,6.419-11.313,7.909-14.461c2.358,1.066,6.153,3.18,7.022,5.452c0.677,1.766,1.046,5.677,1.101,11.628H1.563
				C0.7,41.875,0,42.575,0,43.438S0.7,45,1.563,45h37.75c0.863,0,1.563-0.7,1.563-1.563C40.877,38.767,40.74,32.201,39.562,29.128z"
				/>
		</g>
	</g>
</g>
</svg>
